<?xml version="1.0" standalone="no"?>
<!DOCTYPE svg PUBLIC "-//W3C//DTD SVG 1.1//EN" "http://www.w3.org/Graphics/SVG/1.1/DTD/svg11.dtd" >
<svg>
<metadata>
Created by FontForge 20090914 at Mon Jul 26 19:11:15 2021
 By www-data
Copyright (c) 1990 Adobe Systems Incorporated.  All Rights Reserved.Herculanum is a trademark of Linotype AG and/or its subsidi 
</metadata>
<defs>
<font id="Herculanum" horiz-adv-x="278" >
  <font-face 
    font-family="Herculanum"
    font-weight="400"
    font-stretch="normal"
    units-per-em="1000"
    panose-1="0 0 0 0 0 0 0 0 0 0"
    ascent="800"
    descent="-200"
    x-height="561.001"
    cap-height="587"
    bbox="-135 -184.003 1080 782"
    underline-thickness="50"
    underline-position="-55"
    unicode-range="U+0020-U+F002"
  />
<missing-glyph 
 />
    <glyph glyph-name=".notdef" 
 />
    <glyph glyph-name="space" unicode=" " 
 />
    <glyph glyph-name="space" unicode="&#xa0;" 
 />
    <glyph glyph-name="exclam" unicode="!" horiz-adv-x="315" 
d="M106 39c0 3.33301 0.500977 6.50488 1.50098 9.50488s2.5 6.16699 4.5 9.5c2.66699 5.33301 6 10.333 10 15s8 9 12 13c5.33301 5.33301 10.5 9.66602 15.5 12.999s8.5 5 10.5 5c3.33301 0 7 -0.833008 11 -2.5s8.33301 -3.83398 13 -6.50098
c4.66699 -3.33301 9.33398 -7 14.001 -11s8.33398 -8 11.001 -12c2 -2.66699 3.66699 -5.33398 5 -8.00098s2 -5.33398 2 -8.00098c0 -3.33301 -0.666992 -6.83301 -2 -10.5s-3 -7.16699 -5 -10.5c-4.66699 -8.66699 -11.334 -16.667 -20.001 -24s-18.334 -11 -29.001 -11
c-2.66699 0 -5.16699 0.333008 -7.5 1s-4.83301 1.33398 -7.5 2.00098c-4.66699 2 -9.33398 4.66699 -14.001 8s-8.66699 6.66602 -12 9.99902c-4 3.33301 -7.16699 6.66602 -9.5 9.99902s-3.5 6 -3.5 8v0zM120.001 398.005l-0.000976562 18.002c0 6 0.333008 12 1 18v18v18
c0 10 -1.16699 19.167 -3.5 27.5s-4.83301 15.833 -7.5 22.5s-5.16699 12.334 -7.5 17.001s-3.5 8.66699 -3.5 12c0 1.33301 0.5 2.83301 1.5 4.5s2.16699 3.5 3.5 5.5s2.83301 3.66699 4.5 5s3.16699 2.66602 4.5 3.99902c0.666992 0.666992 1.33398 1.16699 2.00098 1.5
s1.33398 0.833008 2.00098 1.5l28 18c0.666992 0 1.16699 0.166992 1.5 0.5l1.5 1.5l6 2c2 0.666992 4 1 6 1c1.33301 0 4 -1.16699 8 -3.5s8.33301 -5.16602 13 -8.49902c2 -1.33301 4 -2.83301 6 -4.5s4 -3.5 6 -5.5c2.66699 -2.66699 5 -5.33398 7 -8.00098s3 -5 3 -7
c0 -10 -1.16699 -21.167 -3.5 -33.5s-4.5 -29.833 -6.5 -52.5c-2.66699 -23.333 -5.16699 -53.333 -7.5 -90s-3.5 -84.667 -3.5 -144v-8.5c0 -3 0.333008 -5.83301 1 -8.5v-10.5v-10.5c0 -4.66699 -1.16699 -7.83398 -3.5 -9.50098s-5.16602 -2.5 -8.49902 -2.5
c-2.66699 0 -5.83398 1 -9.50098 3s-7.83398 4.66699 -12.501 8c-2 1.33301 -4 2.83301 -6 4.5s-4 3.5 -6 5.5c-4 3.33301 -7.16699 6.66602 -9.5 9.99902s-3.5 6 -3.5 8c0 14 -0.166992 28.167 -0.5 42.5s-0.833008 28.833 -1.5 43.5s-1.16699 29.167 -1.5 43.5
s-0.5 28.5 -0.5 42.5v0z" />
    <glyph glyph-name="quotedbl" unicode="&#x22;" horiz-adv-x="500" 
 />
    <glyph glyph-name="numbersign" unicode="#" horiz-adv-x="500" 
 />
    <glyph glyph-name="dollar" unicode="$" horiz-adv-x="519" 
d="M238 58l1.99902 212.005l-109 52c-2 1.33301 -4.16699 2.66602 -6.5 3.99902s-4.5 3 -6.5 5c-9.33301 7.33301 -18 18 -26 32s-12 30.333 -12 49c0 26.667 1.33301 46 4 58s7.33398 22.333 14.001 31c1.33301 2 2.83301 3.83301 4.5 5.5l5.5 5.5
c19.333 21.333 40 36.166 62 44.499s45.667 14.833 71 19.5v67v1.5v1.5c1.33301 4.66699 5.33301 9.16699 12 13.5s14.667 6.5 24 6.5c2.66699 0 5 -0.833008 7 -2.5s3 -4.16699 3 -7.5c0 -2.66699 -0.333008 -6.33398 -1 -11.001s-1 -10 -1 -16
c-0.666992 -6.66699 -1.33398 -14 -2.00098 -22s-1 -17 -1 -27h20c6 0 14 -0.666992 24 -2s20.667 -3.33301 32 -6c16 -4 30.667 -8.83301 44 -14.5s20 -11.834 20 -18.501c0 -2.66699 -0.333008 -5.66699 -1 -9s-1.66699 -6.66602 -3 -9.99902
c-2.66699 -6.66699 -5.83398 -13 -9.50098 -19s-7.83398 -10.667 -12.501 -14c-2 -2.66699 -4.33301 -4.66699 -7 -6s-5 -2 -7 -2h-2.5c-1 0 -1.83301 0.333008 -2.5 1c-4 1.33301 -8.33301 4.66602 -13 9.99902s-11.334 14 -20.001 26
c-3.33301 4.66699 -8.83301 8.33398 -16.5 11.001s-15.5 4.66699 -23.5 6c-3.33301 0 -6.66602 0.166992 -9.99902 0.5s-6.66602 0.5 -9.99902 0.5c-1.33301 -2.66699 -2.16602 -6.16699 -2.49902 -10.5s-0.5 -8.83301 -0.5 -13.5v-2.5v-2.5l-2 -186l4 -2
c1.33301 -0.666992 2.33301 -1.33398 3 -2.00098c4.66699 -2.66699 9.5 -5.16699 14.5 -7.5l14.5 -6.5c8 -4 16.5 -7.66699 25.5 -11l31.5 -12c16.667 -6.66699 30.167 -17.334 40.5 -32.001s17.833 -30.334 22.5 -47.001c2 -6.66699 3.5 -13.5 4.5 -20.5
s1.5 -13.5 1.5 -19.5s-1.33301 -13.5 -4 -22.5s-6 -18.167 -10 -27.5l-10.5 -20c-3.66699 -6.66699 -7.5 -12.667 -11.5 -18c-3.33301 -5.33301 -6.66602 -9.83301 -9.99902 -13.5s-6.33301 -6.5 -9 -8.5c-16.667 -10.667 -34.334 -19 -53.001 -25s-38.667 -11 -60 -15
c0 -3.33301 -0.333008 -8.66602 -1 -15.999s-1.33398 -15.333 -2.00098 -24c-0.666992 -4 -1.33398 -7.66699 -2.00098 -11l-2 -10c0 -1.33301 -0.333008 -2.5 -1 -3.5s-1.33398 -2.16699 -2.00098 -3.5c-2 -3.33301 -5.16699 -6.66602 -9.5 -9.99902
s-9.16602 -5 -14.499 -5c-1.33301 0 -2.33301 0.333008 -3 1s-1 2 -1 4c0 1.33301 0.166992 3.66602 0.5 6.99902s0.5 7.66602 0.5 12.999c0 6 0.166992 13.333 0.5 22s0.5 19.334 0.5 32.001h-10.5c-3.66699 0 -7.16699 0.333008 -10.5 1c-20.667 1.33301 -40.5 4 -59.5 8
s-34.833 8 -47.5 12c-2 1.33301 -4 2.33301 -6 3s-3.66699 1.33398 -5 2.00098c-3.33301 1.33301 -6.5 5.33301 -9.5 12s-5.5 13.667 -7.5 21l-2 12.5c-0.666992 4.33301 -1 8.16602 -1 11.499v1.5v0.5c0.666992 4.66699 2.33398 8.66699 5.00098 12s6.33398 5 11.001 5
c3.33301 0 7.33301 -1 12 -3s14.334 -7 29.001 -15c4.66699 -2.66699 9.5 -5.16699 14.5 -7.5l14.5 -6.5c12 -5.33301 23.5 -9.83301 34.5 -13.5s19.5 -5.5 25.5 -5.5c2.66699 0 5.16699 0.166992 7.5 0.5s4.5 0.833008 6.5 1.5v0zM273.999 252.005l-1.99902 -192.003
c9.33301 2.66699 17.833 5.5 25.5 8.5s14.5 5.83301 20.5 8.5c25.333 10.667 41.166 22.334 47.499 35.001s9.5 29 9.5 49s-8.5 36.5 -25.5 49.5s-39.167 25.5 -66.5 37.5c-1.33301 0.666992 -2.83301 1.33398 -4.5 2.00098s-3.16699 1.33398 -4.5 2.00098v0zM242 338.002
l-1.99902 193.001c-4.66699 0 -9.33398 -0.666992 -14.001 -2s-9.33398 -3 -14.001 -5c-13.333 -6.66699 -25.833 -15.834 -37.5 -27.501s-20.5 -24.167 -26.5 -37.5c-2 -4 -3.5 -8.33301 -4.5 -13s-1.5 -9 -1.5 -13c0 -10 5 -20.5 15 -31.5s23 -22.5 39 -34.5l21.5 -14.5
c7.66699 -5 15.834 -9.83301 24.501 -14.5v0z" />
    <glyph glyph-name="percent" unicode="%" horiz-adv-x="833" 
d="M59 471c0 12 1.99609 23.9971 5.99609 35.9971s11.333 24.333 22 37c8 10 18.667 20 32 30s30 19.667 50 29c4.66699 2.66699 8.83398 5.66699 12.501 9l10.5 10l2 2l2 2c4.66699 5.33301 10 10.166 16 14.499s13.667 6.5 23 6.5c10 0 17.833 -1.66699 23.5 -5
s11.167 -7.66602 16.5 -12.999l6.5 -6.5l7.5 -7.5c8.66699 -8 20.667 -15.333 36 -22s38.666 -10 69.999 -10c66.667 0 108.334 0.5 125.001 1.5s28 3.83301 34 8.5h1v0c11.333 8 19.5 13.5 24.5 16.5s9.16699 4.5 12.5 4.5c4 0 8.66699 -0.833008 14 -2.5
s14 -5.16699 26 -10.5c2.66699 -0.666992 4.83398 -2.33398 6.50098 -5.00098s2.5 -5.66699 2.5 -9c0 -2 -0.333008 -3.66699 -1 -5s-1.66699 -2.66602 -3 -3.99902c-4 -4 -12 -10.667 -24 -20s-27.667 -30.666 -47 -63.999c-6 -10.667 -17.5 -29.334 -34.5 -56.001
l-54.5 -85c-0.666992 -1.33301 -1.5 -2.66602 -2.5 -3.99902s-1.83301 -2.66602 -2.5 -3.99902l-53.5 -81.5c-17 -25.667 -29.5 -43.167 -37.5 -52.5l-24 -31.5c-7.33301 -9.66699 -14 -19.5 -20 -29.5l-16 -27c-5.33301 -9.33301 -10.333 -19 -15 -29l-14.5 -33.5
l-16.5 -38.5l-5.5 -12.5c-1.66699 -3.66699 -3.5 -6.83398 -5.5 -9.50098c-3.33301 -5.33301 -7.33301 -9 -12 -11s-10.667 -3 -18 -3c-2.66699 0 -6 0.166992 -10 0.5s-8 0.833008 -12 1.5c-7.33301 0.666992 -14 2 -20 4s-9 4.33301 -9 7v1.5v1.5
c0.666992 6 3.5 13.167 8.5 21.5s15.5 22.5 31.5 42.5l19 23.5l18 22.5c2.66699 4 5.5 7.83301 8.5 11.5s5.83301 7.5 8.5 11.5c20 26.667 41.167 56.834 63.5 90.501l85.5 135.5c22.667 36.667 42.334 67.167 59.001 91.5l39 56.5c4.66699 6.66699 8.16699 12 10.5 16
s3.5 7.33301 3.5 10c0 3.33301 -1 5.5 -3 6.5s-4.33301 1.5 -7 1.5c-4 0 -9.5 -0.666992 -16.5 -2s-15.833 -2.66602 -26.5 -3.99902s-23.334 -2.66602 -38.001 -3.99902s-32 -2 -52 -2c-14 0 -25.167 0.333008 -33.5 1s-16.166 2 -23.499 4
c-4 0.666992 -7.83301 1.66699 -11.5 3s-7.83398 3 -12.501 5l-2 -2c1.33301 -1.33301 2.33301 -3.83301 3 -7.5s1 -7.5 1 -11.5c0 -7.33301 -0.5 -16.333 -1.5 -27s-2.16699 -22 -3.5 -34c-0.666992 -4.66699 -1.5 -9.5 -2.5 -14.5s-1.83301 -9.83301 -2.5 -14.5
c-2.66699 -14.667 -8.16699 -28 -16.5 -40s-17.5 -20.667 -27.5 -26c-34.667 -18 -61.167 -29.333 -79.5 -34s-30.5 -7 -36.5 -7c-2.66699 0 -6.66699 1.33301 -12 4s-10.666 6 -15.999 10c-2 0.666992 -4 1.66699 -6 3s-3.66699 2.66602 -5 3.99902
c-4 2.66699 -7.83301 5.5 -11.5 8.5s-6.16699 5.5 -7.5 7.5c-4 4.66699 -7.33301 9 -10 13s-5 8 -7 12c-5.33301 10.667 -8.66602 22.167 -9.99902 34.5s-2 28.5 -2 48.5v0zM120.996 445.997c0 -8.66699 0.504883 -16.6699 1.50488 -24.0029s2.83301 -13.666 5.5 -18.999
v-0.5c0 -0.333008 0.333008 -0.5 1 -0.5c2 -5.33301 5.16699 -8.66602 9.5 -9.99902s13.166 -2 26.499 -2c14 0 27.333 2.16699 40 6.5s22.667 10.833 30 19.5c5.33301 6.66699 10.166 13.834 14.499 21.501s8.16602 15.834 11.499 24.501
c5.33301 13.333 9.16602 26.5 11.499 39.5s3.5 22.5 3.5 28.5c0 11.333 -3.16699 21 -9.5 29s-13.166 14.667 -20.499 20c-5.33301 3.33301 -10.5 5.83301 -15.5 7.5s-8.83301 2.5 -11.5 2.5s-7.83398 -2.5 -15.501 -7.5s-15.834 -11.167 -24.501 -18.5
c-2 -2 -4.16699 -3.83301 -6.5 -5.5s-4.5 -3.5 -6.5 -5.5l-10 -10l-9 -9c-4.66699 -4.66699 -8.66699 -11.5 -12 -20.5s-6.33301 -18.5 -9 -28.5c-1.33301 -6.66699 -2.5 -13.334 -3.5 -20.001s-1.5 -12.667 -1.5 -18v0zM492.001 140.994
c0 22 3.67188 40.166 11.0049 54.499s15.333 25.5 24 33.5c33.333 30 56.166 48.833 68.499 56.5s22.5 11.5 30.5 11.5h1.5h0.5c4.66699 0 9.66699 -0.166992 15 -0.5s10.666 -0.833008 15.999 -1.5c12.667 -0.666992 24.667 -2.33398 36 -5.00098s19.666 -6 24.999 -10
c10 -7.33301 18.667 -16.833 26 -28.5s13.333 -23.834 18 -36.501c3.33301 -8.66699 5.83301 -17.167 7.5 -25.5s2.5 -15.833 2.5 -22.5c0 -7.33301 -2.66699 -18.166 -8 -32.499s-12.666 -29.166 -21.999 -44.499c-3.33301 -6 -7 -12.167 -11 -18.5
s-8.33301 -12.166 -13 -17.499c-2 -2.66699 -4.83301 -5.33398 -8.5 -8.00098s-7.5 -5.66699 -11.5 -9l-14.5 -8.5c-5 -3 -10.167 -5.83301 -15.5 -8.5c-10.667 -6 -21 -10.833 -31 -14.5s-16.667 -5.5 -20 -5.5c-8.66699 0 -21.834 4.33301 -39.501 13
s-37.834 21.334 -60.501 38.001c-8.66699 6.66699 -15.334 18.167 -20.001 34.5s-7 34.833 -7 55.5v0zM558.006 138.993c0 -18.667 0.833984 -32.167 2.50098 -40.5s4.16699 -14.833 7.5 -19.5c5.33301 -6.66699 12.5 -11.834 21.5 -15.501s18.167 -5.5 27.5 -5.5
c28 0 49.5 5.66699 64.5 17s25.5 24 31.5 38c3.33301 7.33301 5.66602 14.5 6.99902 21.5s2 13.167 2 18.5c0 8.66699 -2.33301 17.667 -7 27s-13.667 20.333 -27 33c-8 8 -16.5 14.333 -25.5 19s-17.833 8.33398 -26.5 11.001c-4 0.666992 -7.83301 1.16699 -11.5 1.5
s-7.16699 0.5 -10.5 0.5c-22.667 0 -37.667 -7.5 -45 -22.5s-11 -42.833 -11 -83.5v0z" />
    <glyph glyph-name="ampersand" unicode="&#x26;" horiz-adv-x="832" 
d="M84 182c0 7.33301 1 14.8311 3 22.498s4.66699 15.5 8 23.5c6.66699 15.333 15.167 30.166 25.5 44.499s21.166 26.833 32.499 37.5c8 8 16 15 24 21s15 10.667 21 14l-52 49c-10.667 10 -18.167 23 -22.5 39s-6.5 33.333 -6.5 52c0 24 9.5 46 28.5 66
s40.167 35.667 63.5 47c11.333 6 22.666 10.667 33.999 14s21.333 5 30 5c7.33301 0 15.833 -1 25.5 -3s19.834 -5 30.501 -9c20 -8.66699 38.5 -20.667 55.5 -36s25.5 -33.333 25.5 -54c0 -8.66699 -1 -17 -3 -25s-5 -16.333 -9 -25
c-8.66699 -18 -21.834 -36.167 -39.501 -54.5s-39.5 -37.833 -65.5 -58.5c6.66699 -6 17.334 -14.5 32.001 -25.5l48 -35.5c1.33301 -1.33301 2.83301 -2.5 4.5 -3.5s3.5 -2.16699 5.5 -3.5l46.5 -32c15 -10 26.833 -17.667 35.5 -23c0.666992 1.33301 1.33398 3 2.00098 5
l2 6l4.5 16.5c1.66699 6.33301 2.83398 12.833 3.50098 19.5c2 8.66699 3.5 17 4.5 25s1.5 14.333 1.5 19c0 6.66699 -0.833008 13 -2.5 19s-3.5 11.333 -5.5 16c-0.666992 2 -2 3.66699 -4 5s-4 2.33301 -6 3c0 0.666992 -0.166992 1 -0.5 1h-1.5
c-2.66699 2 -5.33398 4.16699 -8.00098 6.5s-4 5.16602 -4 8.49902c0 7.33301 6.33301 12.333 19 15s27.334 4 44.001 4c14.667 0 24.167 -1 28.5 -3s6.5 -7.66699 6.5 -17c0 -22.667 -1 -42.667 -3 -60s-5.33301 -34.333 -10 -51c-2.66699 -11.333 -6 -22.666 -10 -33.999
l-13 -36c53.333 -34.667 101.833 -64.667 145.5 -90s69.167 -38 76.5 -38c3.33301 0 6.66602 0.666992 9.99902 2l10 4c2.66699 1.33301 5.66699 2.66602 9 3.99902s6.33301 2 9 2c4.66699 0 8.16699 -0.833008 10.5 -2.5s3.5 -4.5 3.5 -8.5s-1.83301 -9.16699 -5.5 -15.5
s-8.16699 -13.166 -13.5 -20.499l-7 -9c-2.66699 -3.33301 -5.66699 -6.33301 -9 -9c-6 -6.66699 -11.667 -12 -17 -16s-9.66602 -6 -12.999 -6c-4.66699 0 -12.167 3.16699 -22.5 9.5l-51.5 31.5l-163 102c-8 -15.333 -17.833 -29.666 -29.5 -42.999
s-23.5 -25.666 -35.5 -36.999c-19.333 -16 -37 -28.833 -53 -38.5s-25.667 -15.167 -29 -16.5c-4 -1.33301 -8.5 -2.66602 -13.5 -3.99902s-10.167 -2.33301 -15.5 -3c-6 -0.666992 -11.833 -1.16699 -17.5 -1.5s-10.5 -0.5 -14.5 -0.5h-13.5c-5 0 -10.167 0.333008 -15.5 1
c-6.66699 0 -13.167 0.5 -19.5 1.5s-11.5 2.16699 -15.5 3.5c-5.33301 1.33301 -13.833 5.5 -25.5 12.5s-23.834 16.5 -36.501 28.5c-16.667 16 -32 35.833 -46 59.5s-21 51.167 -21 82.5v0zM156 170.998c0 -22 8.33398 -43.165 25.001 -63.498
s35.334 -36.166 56.001 -47.499c8.66699 -5.33301 17.167 -9.33301 25.5 -12s16.166 -4 23.499 -4c27.333 0 53.5 10.167 78.5 30.5s49.833 50.166 74.5 89.499l-64 44l-38.5 28l-44.5 33c-2 2 -3.83301 3.66699 -5.5 5s-3.5 2.66602 -5.5 3.99902l-24.5 19.5l-23.5 18.5
c-12 -10.667 -22.667 -21.834 -32 -33.501s-17.333 -23.167 -24 -34.5c-6.66699 -13.333 -11.834 -26.5 -15.501 -39.5s-5.5 -25.5 -5.5 -37.5v0zM183.001 480l-0.000976562 -1.99902v-3c1.33301 -10.667 7 -22.667 17 -36s27.333 -32 52 -56l42 34
c6.66699 5.33301 12.667 11 18 17s10 12 14 18c6 9.33301 10.5 18.5 13.5 27.5s4.5 17.167 4.5 24.5c0 3.33301 -0.666992 6.83301 -2 10.5s-3.33301 7.5 -6 11.5c-5.33301 8 -12.5 15.667 -21.5 23s-18.167 12 -27.5 14c-2 0.666992 -4 1.16699 -6 1.5s-4 0.5 -6 0.5
c-4 0 -7.83301 -0.333008 -11.5 -1s-7.5 -1.66699 -11.5 -3c-17.333 -4.66699 -33.166 -14.334 -47.499 -29.001s-21.5 -32 -21.5 -52v0z" />
    <glyph glyph-name="quotesingle" unicode="'" horiz-adv-x="500" 
 />
    <glyph glyph-name="parenleft" unicode="(" horiz-adv-x="333" 
d="M66 289c0 19.333 1.66309 35.834 4.99609 49.501s7.33301 26.167 12 37.5c11.333 25.333 28.166 56 50.499 92s59.166 86 110.499 150c2 2.66699 3.83301 5.33398 5.5 8.00098s2.83398 5.33398 3.50098 8.00098c0.666992 3.33301 2.33398 5.83301 5.00098 7.5
s6.66699 2.5 12 2.5c2 0 4.66699 -0.166992 8 -0.5s7 -0.833008 11 -1.5c5.33301 -0.666992 10.333 -2 15 -4s7 -5 7 -9c0 -1.33301 -0.333008 -2.66602 -1 -3.99902l-2 -4c-2.66699 -3.33301 -6.5 -6.83301 -11.5 -10.5s-10.167 -8.5 -15.5 -14.5
c-1.33301 -1.33301 -2.66602 -3 -3.99902 -5l-4 -6c-46.667 -70.667 -78.167 -123.834 -94.5 -159.501s-25.833 -67.834 -28.5 -96.501c-0.666992 -6.66699 -1.16699 -13.334 -1.5 -20.001s-0.5 -13.667 -0.5 -21c0 -12.667 0.333008 -25.334 1 -38.001s2 -25.334 4 -38.001
c4.66699 -37.333 16.167 -75.5 34.5 -114.5s48.833 -82.5 91.5 -130.5c1.33301 -2 3 -3.66699 5 -5s3.66699 -2.33301 5 -3c2.66699 -2 5.16699 -3.5 7.5 -4.5s4.83301 -1.83301 7.5 -2.5c2.66699 -1.33301 4.83398 -2.66602 6.50098 -3.99902s2.5 -3.33301 2.5 -6
c0 -1.33301 -0.5 -3 -1.5 -5s-2.16699 -4 -3.5 -6s-2.66602 -3.83301 -3.99902 -5.5s-3 -3.16699 -5 -4.5c-1.33301 -1.33301 -2.66602 -2.33301 -3.99902 -3s-2.66602 -1 -3.99902 -1c-2.66699 0 -6 0.333008 -10 1l-12 2c-4.66699 1.33301 -9.16699 3 -13.5 5
s-7.83301 4.33301 -10.5 7l-19.5 22.5l-19.5 23.5c-24.667 30 -46.834 59.333 -66.501 88s-35.5 53.334 -47.5 74.001c-1.33301 2 -2.5 3.83301 -3.5 5.5s-1.83301 3.5 -2.5 5.5c-7.33301 13.333 -12.5 29.166 -15.5 47.499s-4.5 48.5 -4.5 90.5v0z" />
    <glyph glyph-name="parenright" unicode=")" horiz-adv-x="333" 
d="M185 288c0 7.33301 -0.173828 14.332 -0.506836 20.999s-0.833008 13.334 -1.5 20.001c-2.66699 28.667 -12.167 60.834 -28.5 96.501s-47.833 88.834 -94.5 159.501l-4 6c-1.33301 2 -2.66602 3.66699 -3.99902 5c-5.33301 6 -10.5 10.833 -15.5 14.5
s-8.83301 7.16699 -11.5 10.5l-2 4c-0.666992 1.33301 -1 2.66602 -1 3.99902c0 4 2.33301 7 7 9s9.66699 3.33301 15 4c4 0.666992 7.66699 1.16699 11 1.5s6 0.5 8 0.5c5.33301 0 9.33301 -0.833008 12 -2.5s4.33398 -4.16699 5.00098 -7.5
c0.666992 -2.66699 1.83398 -5.33398 3.50098 -8.00098s3.5 -5.33398 5.5 -8.00098c51.333 -64 88.333 -114 111 -150s39.334 -66.667 50.001 -92c5.33301 -11.333 9.5 -23.833 12.5 -37.5s4.5 -30.167 4.5 -49.5c0 -42 -1.5 -72.167 -4.5 -90.5
s-8.16699 -34.166 -15.5 -47.499c-0.666992 -2 -1.5 -3.83301 -2.5 -5.5s-2.16699 -3.5 -3.5 -5.5c-12 -20.667 -27.833 -45.334 -47.5 -74.001s-41.834 -58 -66.501 -88l-19.5 -23.5l-19.5 -22.5c-2.66699 -2.66699 -6.16699 -5 -10.5 -7s-8.83301 -3.66699 -13.5 -5
l-12 -2c-4 -0.666992 -7.33301 -1 -10 -1c-1.33301 0 -2.66602 0.333008 -3.99902 1s-2.66602 1.66699 -3.99902 3c-2 1.33301 -3.66699 2.83301 -5 4.5s-2.66602 3.5 -3.99902 5.5s-2.5 4 -3.5 6s-1.5 3.66699 -1.5 5c0 2.66699 0.833008 4.66699 2.5 6
s3.83398 2.66602 6.50098 3.99902c2.66699 0.666992 5.16699 1.5 7.5 2.5s4.83301 2.5 7.5 4.5c1.33301 0.666992 3 1.66699 5 3s3.66699 3 5 5c42.667 48 73.167 91.5 91.5 130.5s29.833 77.167 34.5 114.5c2 12.667 3.33301 25.334 4 38.001s1 25.334 1 38.001v0z" />
    <glyph glyph-name="asterisk" unicode="*" horiz-adv-x="407" 
d="M301 287c-2.66699 0 -6.00098 1.49805 -10.001 4.49805s-8.33301 6.83301 -13 11.5l-10.5 12l-10.5 12c-12.667 14.667 -24.167 29.167 -34.5 43.5l-26.5 36.5c-0.666992 -0.666992 -1.33398 -1.16699 -2.00098 -1.5s-1 -0.833008 -1 -1.5l-12 -12
c-4 -4 -7.66699 -8 -11 -12c-17.333 -18 -32.666 -34.833 -45.999 -50.5s-21.333 -25.5 -24 -29.5c-2.66699 -3.33301 -5.5 -5.66602 -8.5 -6.99902s-6.16699 -2 -9.5 -2c-2.66699 0 -5 0.666992 -7 2s-4 3.66602 -6 6.99902l-2.5 5c-1 2 -1.83301 4.66699 -2.5 8
c0 0.666992 -0.166992 1.5 -0.5 2.5s-0.833008 2.16699 -1.5 3.5c-1.33301 4.66699 -2.5 9 -3.5 13s-1.5 6.33301 -1.5 7c0 2 0.833008 4 2.5 6s3.83398 4.33301 6.50098 7l95 75c-6 2 -13 4.83301 -21 8.5l-24 11.5c-3.33301 1.33301 -6.66602 2.83301 -9.99902 4.5
s-6.33301 3.5 -9 5.5c-12 6 -22.333 12 -31 18s-13 10.333 -13 13c0 1.33301 0.333008 3.5 1 6.5s1.66699 6.16699 3 9.5c0.666992 2.66699 1.66699 5.33398 3 8.00098l3 6l2 2c0.666992 0.666992 1.33398 1 2.00098 1c2 0 6.83301 -1.33301 14.5 -4
s15.834 -5.66699 24.501 -9c1.33301 -0.666992 2.5 -1.16699 3.5 -1.5s1.83301 -0.5 2.5 -0.5c4 -2 7.83301 -3.66699 11.5 -5s6.83398 -2.66602 9.50098 -3.99902c2 -0.666992 4.33301 -1.66699 7 -3s5.33398 -2.33301 8.00098 -3l11 -4.5l11 -4.5
c3.33301 -0.666992 6.66602 -1.5 9.99902 -2.5s6.66602 -1.83301 9.99902 -2.5l2 118c0 3.33301 2 6.5 6 9.5s8.66699 5.5 14 7.5c3.33301 2 6.5 3.33301 9.5 4s5.5 1 7.5 1c5.33301 0 9.16602 -7.16699 11.499 -21.5s3.5 -32.5 3.5 -54.5
c0 -8.66699 -0.333008 -16.5 -1 -23.5s-1.33398 -13.167 -2.00098 -18.5c-0.666992 -4.66699 -1.33398 -8.66699 -2.00098 -12s-1 -5.66602 -1 -6.99902v-0.5v-0.5l1.5 -1.5c0.333008 -0.333008 0.833008 -0.5 1.5 -0.5c1.33301 0 2.83301 0.833008 4.5 2.5l6.5 6.5
c1.33301 1.33301 6.66602 5 15.999 11l31 20c0.666992 0 1.33398 0.333008 2.00098 1s1.66699 1.33398 3 2.00098l33.5 19c10.333 6 16.166 9 17.499 9s2.83301 -0.333008 4.5 -1s3.5 -1.33398 5.5 -2.00098c1.33301 -0.666992 2.66602 -1.5 3.99902 -2.5
s2.66602 -1.83301 3.99902 -2.5c0.666992 -1.33301 1.33398 -2.33301 2.00098 -3s1 -1.33398 1 -2.00098c0 -2 -1.33301 -5.33301 -4 -10l-9 -15c0 -0.666992 -0.333008 -1.33398 -1 -2.00098l-2 -2l-7.5 -11l-5.5 -8c-2.66699 -4 -5.83398 -7.66699 -9.50098 -11
s-7.5 -6 -11.5 -8l-21 -9.5c-8 -3.66699 -16.667 -7.16699 -26 -10.5l-15.5 -6l-15.5 -6c-1.33301 0 -2.5 -0.166992 -3.5 -0.5s-2.16699 -0.833008 -3.5 -1.5l14 -20l17 -23c1.33301 -1.33301 2.33301 -2.5 3 -3.5s1.66699 -2.16699 3 -3.5l28 -35
c8.66699 -10.667 14.334 -17.334 17.001 -20.001c4 -3.33301 7 -6.33301 9 -9s3.33301 -5 4 -7v-2v-2c0 -1.33301 -0.5 -2.66602 -1.5 -3.99902s-2.5 -2.66602 -4.5 -3.99902l-6 -4l-6 -4c-3.33301 -2 -6.66602 -3.5 -9.99902 -4.5s-5.66602 -1.5 -6.99902 -1.5v0z" />
    <glyph glyph-name="plus" unicode="+" horiz-adv-x="500" 
 />
    <glyph glyph-name="comma" unicode="," 
d="M100 128c0 2 1.49902 4.33105 4.49902 6.99805s6.83301 5.33398 11.5 8.00098c2 1.33301 4.16699 2.66602 6.5 3.99902s4.83301 2.66602 7.5 3.99902c5.33301 2.66699 10.5 5 15.5 7s8.83301 3 11.5 3c2 0 4.66699 -0.666992 8 -2s7 -3 11 -5s7.83301 -4.5 11.5 -7.5
s6.5 -5.83301 8.5 -8.5c0 -1.33301 0.166992 -2.33301 0.5 -3s0.5 -1.33398 0.5 -2.00098c0 -3.33301 -4.66699 -16.5 -14 -39.5s-20.666 -47.833 -33.999 -74.5c-2 -5.33301 -4.33301 -10.5 -7 -15.5l-8 -15.5c-11.333 -22.667 -22.333 -42.167 -33 -58.5
s-18.667 -24.5 -24 -24.5h-4.5c-1.66699 0 -3.5 0.333008 -5.5 1c-4 0.666992 -7.83301 2 -11.5 4s-5.5 5 -5.5 9c0 2 2.83301 11.667 8.5 29l18.5 57v1v1l18 57.5c5.33301 17.667 8 28.167 8 31.5c0 2.66699 -0.166992 5.33398 -0.5 8.00098s-0.5 5.33398 -0.5 8.00098
c-0.666992 2.66699 -1.16699 5.33398 -1.5 8.00098s-0.5 5.33398 -0.5 8.00098v0z" />
    <glyph glyph-name="hyphen" unicode="-" horiz-adv-x="333" 
d="M63 257c0 2 1.00195 5.66699 3.00195 11s4.66699 11 8 17c4 7.33301 9 14.166 15 20.499s12.333 9.5 19 9.5c2.66699 0 5.83398 -0.666992 9.50098 -2s8.5 -3 14.5 -5s13.833 -3.66699 23.5 -5s21.834 -2 36.501 -2c10 0 19.667 0.333008 29 1s18 1.66699 26 3
c7.33301 0.666992 14.166 1.33398 20.499 2.00098s11.5 1 15.5 1c3.33301 0 6.16602 -1.66699 8.49902 -5s3.83301 -7 4.5 -11c1.33301 -3.33301 2.16602 -6.33301 2.49902 -9s0.5 -4.66699 0.5 -6s-0.833008 -3.16602 -2.5 -5.49902s-3.83398 -4.83301 -6.50098 -7.5
c-2 -2 -3.83301 -3.66699 -5.5 -5s-3.5 -2.66602 -5.5 -3.99902c-2 -2 -4.16699 -3.5 -6.5 -4.5s-4.5 -1.5 -6.5 -1.5c-6 0 -14 -0.333008 -24 -1s-21.667 -1.33398 -35 -2.00098c-14 -0.666992 -30.167 -1.33398 -48.5 -2.00098s-39.166 -1 -62.499 -1
c-8.66699 0 -16.334 1 -23.001 3s-10 5.66699 -10 11v0z" />
    <glyph glyph-name="period" unicode="." 
d="M78 45c0 2.66699 1.66602 6.50098 4.99902 11.501s7.33301 10.167 12 15.5l7.5 7.5l7.5 7.5c5.33301 4.66699 10.5 8.66699 15.5 12s8.83301 5 11.5 5c2 0 4 -0.166992 6 -0.5s4.33301 -0.833008 7 -1.5l6 -2c2 -0.666992 3.66699 -1.33398 5 -2.00098
c16.667 -9.33301 27.334 -17.166 32.001 -23.499s7 -10.833 7 -13.5c0 -2 -0.166992 -3.83301 -0.5 -5.5s-0.833008 -3.5 -1.5 -5.5c-2.66699 -6 -6.5 -11.833 -11.5 -17.5s-10.167 -10.834 -15.5 -15.501c-6 -5.33301 -11.667 -9.5 -17 -12.5s-9 -4.5 -11 -4.5
c-2.66699 -0 -7.5 1.33301 -14.5 4s-20.167 9.33398 -39.5 20.001c-3.33301 2 -6 4.66699 -8 8s-3 7.66602 -3 12.999v0z" />
    <glyph glyph-name="slash" unicode="/" horiz-adv-x="370" 
d="M-4 -64c0.666992 2.66699 2.00293 5.49707 4.00293 8.49707s4.33301 6.83301 7 11.5c0 0.666992 0.166992 1.33398 0.5 2.00098s0.833008 1.33398 1.5 2.00098c5.33301 10 21.333 42 48 96l86 179l6 12.5l6 13.5l49 107c16 35.333 29.667 67 41 95
c34 81.333 56.833 132.833 68.5 154.5s21.5 33.167 29.5 34.5h0.5h1.5c1.33301 0 2.66602 -0.166992 3.99902 -0.5s3 -0.833008 5 -1.5c3.33301 -2 6.5 -4.5 9.5 -7.5s5.16699 -6.16699 6.5 -9.5c1.33301 -1.33301 2.33301 -3 3 -5s1 -3.66699 1 -5v-0.5v-0.5
c0 -3.33301 -2 -7.5 -6 -12.5s-9.66699 -14.833 -17 -29.5c-64.667 -128.667 -123.5 -251.834 -176.5 -369.501s-93.167 -210.167 -120.5 -277.5l-3 -3c-1.33301 -1.33301 -3 -2.66602 -5 -3.99902c-0.666992 -0.666992 -1.66699 -1.33398 -3 -2.00098s-2.33301 -1 -3 -1
c-3.33301 -2 -6.33301 -3.5 -9 -4.5s-4.33398 -1.5 -5.00098 -1.5c-1.33301 0 -2.83301 0.166992 -4.5 0.5s-3.5 0.833008 -5.5 1.5c-1.33301 0.666992 -2.5 1.16699 -3.5 1.5s-2.16699 0.833008 -3.5 1.5l-3 1.5c-0.666992 0.333008 -1.33398 0.833008 -2.00098 1.5
c-1.33301 0.666992 -2.5 1.83398 -3.5 3.50098s-1.83301 3.16699 -2.5 4.5c-0.666992 0.666992 -1 1.33398 -1 2.00098v2z" />
    <glyph glyph-name="zero" unicode="0" horiz-adv-x="593" 
d="M90 246c0 89.333 12.6709 157.669 38.0039 205.002s53 80.666 83 99.999c15.333 10 30.166 17 44.499 21s27.166 6 38.499 6c64 0 114.833 -28.333 152.5 -85s56.5 -124.667 56.5 -204c0 -15.333 -2.16699 -34.5 -6.5 -57.5s-11.5 -46.833 -21.5 -71.5
c-16 -40 -40.5 -76.667 -73.5 -110s-76.5 -50 -130.5 -50c-38.667 0 -73.334 18 -104.001 54s-52.334 75.667 -65.001 119c-4 12.667 -7 25.167 -9 37.5s-3 24.166 -3 35.499v0zM162.004 288.003c0 -4.66699 0.832031 -18 2.49902 -40s6.5 -45.667 14.5 -71
c8 -28 21.167 -53.833 39.5 -77.5s44.166 -35.5 77.499 -35.5c46.667 0 79.834 20.833 99.501 62.5s31.167 87.167 34.5 136.5c0 6 0.166992 12 0.5 18s0.5 12 0.5 18c0 12 -1.33301 26.5 -4 43.5s-6.66699 34.5 -12 52.5c-10 31.333 -25.167 60 -45.5 86
s-47.166 39 -80.499 39c-38 0 -68.667 -22.333 -92 -67s-35 -99.667 -35 -165v0z" />
    <glyph glyph-name="one" unicode="1" horiz-adv-x="333" 
d="M139 214c0 119.333 -3.33594 195.502 -10.0029 228.502s-16.667 52.833 -30 59.5c-5.33301 2.66699 -9.83301 5.66699 -13.5 9s-6.5 6.66602 -8.5 9.99902c0 1.33301 -0.166992 2.5 -0.5 3.5s-0.5 2.16699 -0.5 3.5c0 2.66699 0.666992 5.16699 2 7.5
s3.66602 4.16602 6.99902 5.49902c36 15.333 59.833 26.833 71.5 34.5s20.834 12.167 27.501 13.5c0.666992 0.666992 1.5 1 2.5 1h2.5c2 0 4 -0.166992 6 -0.5s4.33301 -0.833008 7 -1.5c4.66699 -1.33301 8.83398 -3.16602 12.501 -5.49902s5.5 -4.83301 5.5 -7.5
c0 -4.66699 -0.833008 -10.5 -2.5 -17.5s-3.16699 -18.833 -4.5 -35.5c-2 -17.333 -3.83301 -41.666 -5.5 -72.999s-2.5 -74 -2.5 -128c0 -43.333 0.333008 -82 1 -116s1.33398 -63.667 2.00098 -89c0.666992 -8.66699 1.16699 -16.834 1.5 -24.501s0.5 -14.834 0.5 -21.501
c0 -8.66699 1.33301 -15.5 4 -20.5s5.33398 -8.83301 8.00098 -11.5c2 -1.33301 3.5 -2.66602 4.5 -3.99902s2.16699 -2.33301 3.5 -3c1.33301 -1.33301 2.5 -2.83301 3.5 -4.5s1.5 -3.5 1.5 -5.5c0 -6.66699 -6 -11.834 -18 -15.501s-27.667 -5.5 -47 -5.5
c-24 -0 -39.333 1.33301 -46 4s-10 6.66699 -10 12c0 2 1 5 3 9s6 9.33301 12 16c3.33301 4 5.83301 14.667 7.5 32s2.5 64.333 2.5 141v0z" />
    <glyph glyph-name="two" unicode="2" horiz-adv-x="519" 
d="M66 22l-0.000976562 54v1.5v1.5c0.666992 6.66699 5.66699 15.167 15 25.5s32 31.166 68 62.499c77.333 67.333 127 122.333 149 165s33 78.334 33 107.001c0 24 -8 45.333 -24 64s-41.333 28 -76 28c-28 0 -50.167 -3.66699 -66.5 -11s-28.166 -20 -35.499 -38
c-1.33301 -3.33301 -4.33301 -6.16602 -9 -8.49902s-13.667 -3.5 -27 -3.5c-6 0 -11 3.66699 -15 11s-7 15.333 -9 24c-2 6.66699 -3.33301 13 -4 19s-1 10.333 -1 13c0 8 9.16699 15.167 27.5 21.5s38.833 11.5 61.5 15.5c14.667 2.66699 28.834 4.83398 42.501 6.50098
s24.5 2.5 32.5 2.5c8.66699 0 16.667 -0.166992 24 -0.5s14.666 -1.16602 21.999 -2.49902c10.667 -2.66699 21.834 -6.66699 33.501 -12s25.5 -13.666 41.5 -24.999c3.33301 -2.66699 6.5 -5 9.5 -7s5.83301 -4.33301 8.5 -7c14.667 -12.667 25 -26.334 31 -41.001
s9 -33.334 9 -56.001c0 -13.333 -2.16699 -29.166 -6.5 -47.499s-11.833 -36.833 -22.5 -55.5c-6 -10.667 -12.833 -21.334 -20.5 -32.001s-16.834 -20.667 -27.501 -30l-196 -183l-2 -2l-2 -2c-0.666992 -0.666992 -1.16699 -1.33398 -1.5 -2.00098
s-0.5 -1.33398 -0.5 -2.00098s0.333008 -1.16699 1 -1.5l3 -1.5h1.5h1.5c20 0 39.833 0.166992 59.5 0.5s39.167 0.833008 58.5 1.5h12h12c15.333 0.666992 30.833 1.16699 46.5 1.5s31.5 0.5 47.5 0.5c17.333 0 31.166 1.16699 41.499 3.5s18.833 4.5 25.5 6.5
c6 2.66699 10.833 5 14.5 7s6.83398 3.33301 9.50098 4h0.5h0.5c3.33301 0 6.5 -1.66699 9.5 -5s4.5 -7.66602 4.5 -12.999c0 -2.66699 -0.5 -7.66699 -1.5 -15s-2.16699 -15.333 -3.5 -24c-2.66699 -10 -5.83398 -19.333 -9.50098 -28s-8.16699 -13 -13.5 -13
c-3.33301 0 -7.33301 0.666992 -12 2s-10 3.33301 -16 6c-6.66699 3.33301 -18.167 5.33301 -34.5 6s-49.166 1 -98.499 1c-68 0 -111.5 -0.5 -130.5 -1.5s-33.167 -3.16699 -42.5 -6.5c-0.666992 0 -1.16699 -0.166992 -1.5 -0.5s-0.833008 -0.5 -1.5 -0.5
c-2 -0.666992 -3.83301 -1.33398 -5.5 -2.00098s-3.5 -1.33398 -5.5 -2.00098s-3.83301 -1.16699 -5.5 -1.5s-3.5 -0.5 -5.5 -0.5c-1.33301 0 -2.83301 0.333008 -4.5 1s-3.5 1.33398 -5.5 2.00098c-3.33301 2 -6.5 4.83301 -9.5 8.5s-4.5 7.16699 -4.5 10.5v0z" />
    <glyph glyph-name="three" unicode="3" horiz-adv-x="463" 
d="M361 455l-83.9951 -103.999c-6.66699 -8 -11.334 -15.167 -14.001 -21.5s-4 -12.166 -4 -17.499c0 -4.66699 2.5 -10.834 7.5 -18.501s12.167 -15.5 21.5 -23.5l56 -47c8 -6.66699 14.5 -14.5 19.5 -23.5s7.5 -19.167 7.5 -30.5c0 -12.667 -1.5 -24.334 -4.5 -35.001
s-8.16699 -21 -15.5 -31c-6.66699 -10 -15.5 -20.333 -26.5 -31s-24.5 -22.334 -40.5 -35.001c-5.33301 -4 -13.833 -9.66699 -25.5 -17s-24.834 -14.666 -39.501 -21.999l-10.5 -6c-3.66699 -2 -7.16699 -3.66699 -10.5 -5c-18 -9.33301 -35 -17.5 -51 -24.5
s-27.333 -10.5 -34 -10.5c-6 0 -11.167 0.833008 -15.5 2.5s-8.16602 4.16699 -11.499 7.5l-31 25c-3.33301 3.33301 -5.83301 6.33301 -7.5 9s-2.5 5 -2.5 7c0 3.33301 2 5.83301 6 7.5s13.667 3.16699 29 4.5c60 5.33301 107 19.5 141 42.5s55.333 47.833 64 74.5
c1.33301 4 2.33301 8.16699 3 12.5s1 8.5 1 12.5v4c0 1.33301 -0.333008 2.66602 -1 3.99902c-1.33301 9.33301 -6 19.333 -14 30s-21.333 23.667 -40 39l-52 43c-5.33301 4.66699 -9.5 8.83398 -12.5 12.501s-4.5 7.16699 -4.5 10.5c0 2.66699 4 7.83398 12 15.501
s22.667 23.5 44 47.5c33.333 37.333 53.666 62.666 60.999 75.999s11 24 11 32c0 1.33301 -0.333008 2.5 -1 3.5s-1.66699 2.16699 -3 3.5c-6 5.33301 -16.167 10.333 -30.5 15s-29.833 9 -46.5 13c-18 4 -34.667 7.33301 -50 10s-25 4 -29 4
c-8 0 -14.5 -0.833008 -19.5 -2.5s-9.16699 -3.16699 -12.5 -4.5c-2.66699 -2 -5 -3.66699 -7 -5s-4 -2 -6 -2c-0.666992 -0.666992 -1.16699 -1 -1.5 -1h-1.5c-4.66699 0 -9 2 -13 6s-6 10.333 -6 19c0 3.33301 0.5 8.16602 1.5 14.499s2.16699 12.833 3.5 19.5
c2.66699 9.33301 6 18 10 26s9 12 15 12c8 0 35.167 -5.16699 81.5 -15.5s102.166 -28.166 167.499 -53.499c10 -4 17.5 -9.33301 22.5 -16s7.5 -15.667 7.5 -27c0 -4 -0.333008 -7.66699 -1 -11s-1.66699 -6.33301 -3 -9
c-0.666992 -2.66699 -1.83398 -5.16699 -3.50098 -7.5s-3.83398 -4.83301 -6.50098 -7.5v0z" />
    <glyph glyph-name="four" unicode="4" horiz-adv-x="593" 
d="M83 235l246.005 329.997c2.66699 4 6.83398 8 12.501 12s11.5 7.33301 17.5 10c5.33301 2.66699 10.5 4.66699 15.5 6s9.16699 2 12.5 2c4.66699 0 8 -1.66699 10 -5s3 -7.66602 3 -12.999c0 -4 -0.5 -16.5 -1.5 -37.5s-2.16699 -47.167 -3.5 -78.5
c-1.33301 -32 -2.5 -68 -3.5 -108s-1.5 -81 -1.5 -123c0 -22 0.833008 -35.5 2.5 -40.5s5.16699 -7.5 10.5 -7.5h28c9.33301 0 18.666 0.333008 27.999 1h29h29c2 0 3.83301 0.166992 5.5 0.5s3.5 0.5 5.5 0.5c2 0.666992 3.83301 1.16699 5.5 1.5s3.5 0.833008 5.5 1.5
c3.33301 1.33301 6.5 2.33301 9.5 3s5.16699 1 6.5 1c2.66699 0 4.66699 -0.833008 6 -2.5s2.33301 -3.5 3 -5.5c0.666992 -0.666992 1 -1.33398 1 -2.00098v-2c0 -1.33301 -0.833008 -5.16602 -2.5 -11.499s-3.83398 -13.166 -6.50098 -20.499
c-3.33301 -8 -7.5 -15.333 -12.5 -22s-10.5 -10 -16.5 -10c-1.33301 0 -3.5 0.5 -6.5 1.5s-8.5 2.16699 -16.5 3.5s-19.333 2.5 -34 3.5s-34.334 1.5 -59.001 1.5h-23c0.666992 -16 1.16699 -30.333 1.5 -43s0.833008 -23.667 1.5 -33
c1.33301 -23.333 2.5 -39.166 3.5 -47.499s1.5 -14.833 1.5 -19.5c0 -6 -2.33301 -10.167 -7 -12.5s-10.334 -3.5 -17.001 -3.5c-2.66699 0 -6.66699 0.333008 -12 1s-11 1.66699 -17 3c-8.66699 2 -16.334 4.66699 -23.001 8s-10 8 -10 14
c0 1.33301 0.333008 2.66602 1 3.99902l2 4c0.666992 1.33301 1.33398 2.83301 2.00098 4.5s1 3.5 1 5.5c0.666992 2.66699 1.16699 5.5 1.5 8.5s0.5 5.83301 0.5 8.5c0.666992 4.66699 1.16699 9.5 1.5 14.5s0.833008 9.83301 1.5 14.5c1.33301 12 2.33301 23.333 3 34
s1 19.667 1 27c0 4 -1.5 7 -4.5 9s-10.167 3 -21.5 3c-12 0 -25 -0.166992 -39 -0.5s-28 -0.833008 -42 -1.5c-10 -0.666992 -19.833 -1.16699 -29.5 -1.5s-18.834 -0.833008 -27.501 -1.5l-59 -3.5c-16.667 -1 -27.334 -1.5 -32.001 -1.5c-2 0 -4.16699 0.666992 -6.5 2
s-4.5 3 -6.5 5c-2.66699 2 -5.16699 4.33301 -7.5 7s-4.5 5.33398 -6.5 8.00098l-4 8c-1.33301 2.66699 -2 5 -2 7v0.5v1.5c0 6 2.83301 13.833 8.5 23.5s18.167 27.5 37.5 53.5v0zM127.005 198.997c0 -4.66699 5.50195 -8.83203 16.502 -12.499s31.5 -5.5 61.5 -5.5h20h20
h10c3.33301 0 6.66602 0.333008 9.99902 1h30h30c0 6 0.166992 11.833 0.5 17.5s0.5 11.167 0.5 16.5c0.666992 12 1.16699 23.833 1.5 35.5s0.5 23.167 0.5 34.5v42v42c-0.666992 14 -1 28.167 -1 42.5v42.5c-9.33301 -8.66699 -19 -18.167 -29 -28.5l-31 -32.5l-20.5 -24
c-7 -8 -13.833 -16.333 -20.5 -25c-26.667 -33.333 -49.834 -64.333 -69.501 -93s-29.5 -46.334 -29.5 -53.001v0z" />
    <glyph glyph-name="five" unicode="5" horiz-adv-x="481" 
d="M193 572l209 0.00195312c1.33301 0 2.83301 0.166992 4.5 0.5s3.5 0.833008 5.5 1.5c2 0 4 0.166992 6 0.5s4 0.5 6 0.5c2.66699 0 5.33398 -1.33301 8.00098 -4s4.33398 -5.33398 5.00098 -8.00098c0.666992 -0.666992 1 -1.33398 1 -2.00098v-2
c0 -2.66699 -1.16699 -6.16699 -3.5 -10.5s-5.16602 -8.5 -8.49902 -12.5c-2 -3.33301 -4.33301 -6.5 -7 -9.5s-5.33398 -5.5 -8.00098 -7.5c-3.33301 -3.33301 -6.66602 -6 -9.99902 -8s-6.33301 -3 -9 -3h-6h-6h-35h-33c-13.333 -0.666992 -26 -1 -38 -1h-34
c-17.333 0 -29.666 0.333008 -36.999 1s-12.666 2 -15.999 4c-0.666992 0.666992 -1.83398 1.16699 -3.50098 1.5s-3.16699 0.833008 -4.5 1.5h-2h-2c-2 0 -4.33301 -1.33301 -7 -4s-5.66699 -6.33398 -9 -11.001l-6.5 -10.5
c-2.33301 -3.66699 -4.16602 -7.5 -5.49902 -11.5c-2.66699 -4.66699 -4.66699 -9.33398 -6 -14.001s-2 -8.66699 -2 -12c0 -8.66699 5.5 -18.5 16.5 -29.5s34.833 -28.167 71.5 -51.5l60 -39c11.333 -7.33301 21.166 -14.166 29.499 -20.499s15.5 -12.833 21.5 -19.5
c13.333 -13.333 22 -27.666 26 -42.999s6 -34.666 6 -57.999c0 -6 -0.166992 -11.667 -0.5 -17s-1.16602 -10.666 -2.49902 -15.999c-3.33301 -16 -10.833 -32.833 -22.5 -50.5s-31.5 -40.5 -59.5 -68.5c-6 -6 -15.667 -14 -29 -24l-45 -33l-16.5 -10.5
c-5.66699 -3.66699 -11.167 -7.5 -16.5 -11.5c-19.333 -12 -37.666 -22.167 -54.999 -30.5s-31.333 -12.5 -42 -12.5c-6.66699 0 -11.667 3 -15 9s-5 17.667 -5 35c0 16 1.66699 26.333 5 31s10.333 7 21 7c19.333 0 35.5 0.666992 48.5 2s25.167 5 36.5 11
c6 2.66699 12.167 6.16699 18.5 10.5s13.166 9.5 20.499 15.5c13.333 10.667 25.5 22 36.5 34s20.5 24.667 28.5 38c6.66699 10.667 12 21.5 16 32.5s6 21.167 6 30.5c0 13.333 -1 25 -3 35s-5.66699 19.333 -11 28c-7.33301 11.333 -18.5 23.666 -33.5 36.999
s-35.833 30.333 -62.5 51l-91 72c-8.66699 7.33301 -14.667 13 -18 17s-5.33301 8 -6 12v2v2c0 3.33301 1.16699 10 3.5 20s5.83301 20.333 10.5 31l20 51c8 19.333 14 32.666 18 39.999s7.66699 12 11 14c0.666992 0.666992 1.5 1 2.5 1h2.5
c1.33301 0 2.66602 -0.166992 3.99902 -0.5s2.66602 -0.833008 3.99902 -1.5s2.66602 -1.5 3.99902 -2.5s3 -1.83301 5 -2.5c3.33301 -2 7.66602 -3.66699 12.999 -5s12.666 -2 21.999 -2v0z" />
    <glyph glyph-name="six" unicode="6" horiz-adv-x="574" 
d="M84 254c0 11.333 0.999023 22.832 2.99902 34.499s5 23.167 9 34.5c12 37.333 30.667 73.666 56 108.999s52.333 67 81 95c30 30 58.333 54.167 85 72.5s45.334 27.5 56.001 27.5c4 0 9.33301 -0.166992 16 -0.5s13.667 -1.16602 21 -2.49902
c10.667 -1.33301 20.667 -3.66602 30 -6.99902s14 -7.66602 14 -12.999v-0.5v-1.5c-2 -6.66699 -12.167 -13.334 -30.5 -20.001s-38.166 -15 -59.499 -25c-14.667 -6 -28.667 -13.167 -42 -21.5s-24.333 -17.5 -33 -27.5c-34 -40.667 -60.667 -77.5 -80 -110.5
s-32.666 -65.5 -39.999 -97.5c-3.33301 -12.667 -5.83301 -25.667 -7.5 -39s-2.5 -27 -2.5 -41c0 -4 0.166992 -8 0.5 -12s0.5 -8 0.5 -12c4 -36 17.167 -69 39.5 -99s53.833 -45 94.5 -45c41.333 0 70.666 10.167 87.999 30.5s27.333 42.5 30 66.5
c0 3.33301 0.166992 6.5 0.5 9.5s0.5 6.16699 0.5 9.5c0 42.667 -9.33301 75 -28 97s-45.667 33 -81 33c-4 0 -8.5 -0.333008 -13.5 -1s-9.83301 -1.66699 -14.5 -3h-1.5h-1.5c-5.33301 -1.33301 -10.666 -2.5 -15.999 -3.5s-9.66602 -1.5 -12.999 -1.5h-2
c-0.666992 0 -1.33398 0.333008 -2.00098 1c-2.66699 0.666992 -5.33398 2.16699 -8.00098 4.5s-4 5.83301 -4 10.5c0 2.66699 1.16699 5.33398 3.5 8.00098s5.16602 5.33398 8.49902 8.00098c4 3.33301 8.5 6.33301 13.5 9l15.5 8
c7.33301 3.33301 14.333 6.16602 21 8.49902s11.667 3.5 15 3.5c58 0 100 -12.333 126 -37s42.667 -51.667 50 -81c3.33301 -10.667 5.5 -21.334 6.5 -32.001s1.5 -20.667 1.5 -30c0 -41.333 -16.833 -77.833 -50.5 -109.5s-70.5 -50.834 -110.5 -57.501
c-5.33301 -1.33301 -10.333 -2.16602 -15 -2.49902s-9.33398 -0.5 -14.001 -0.5c-56 0 -99.167 14.5 -129.5 43.5s-52.166 60.833 -65.499 95.5c-8 22 -13.5 43.333 -16.5 64s-4.5 37.667 -4.5 51v0z" />
    <glyph glyph-name="seven" unicode="7" horiz-adv-x="463" 
d="M94 572l249.999 -0.000976562c6 0 11.667 0.333008 17 1s10.666 1.66699 15.999 3l13.5 2c4.33301 0.666992 8.5 1 12.5 1c1.33301 0 2.66602 -0.333008 3.99902 -1s3 -1.66699 5 -3l6.5 -8.5c2.33301 -3 4.5 -6.16699 6.5 -9.5c2 -4 3.66699 -7.83301 5 -11.5
s2 -6.5 2 -8.5c0 -4 -1.83301 -8.83301 -5.5 -14.5l-13.5 -20.5c-11.333 -16 -25.166 -37.667 -41.499 -65s-33.166 -57.333 -50.499 -90l-22 -44.5l-22 -45.5c-21.333 -45.333 -39.333 -89 -54 -131s-22 -75.667 -22 -101c0 -4.66699 -2.66699 -8.66699 -8 -12
s-11.333 -6.33301 -18 -9c-4 -1.33301 -8.16699 -2.33301 -12.5 -3s-7.5 -1 -9.5 -1s-6 0.5 -12 1.5s-12 2.5 -18 4.5c-8 2.66699 -15.333 5.83398 -22 9.50098s-10 7.83398 -10 12.501c0 9.33301 5.33301 20.666 16 33.999s23.334 34 38.001 62l182 343
c8.66699 16 14.167 26.667 16.5 32s3.5 9.33301 3.5 12c0 1.33301 -0.333008 2.5 -1 3.5s-1.66699 1.5 -3 1.5s-3.5 -0.5 -6.5 -1.5s-6.83301 -2.5 -11.5 -4.5c-4 -2 -15.5 -3.83301 -34.5 -5.5s-58.5 -2.5 -118.5 -2.5c-33.333 0 -59.666 0.5 -78.999 1.5
s-36.666 2.16699 -51.999 3.5c-4.66699 0 -8.33398 2.16699 -11.001 6.5s-4.66699 8.83301 -6 13.5c-0.666992 4 -1.16699 7.66699 -1.5 11s-0.5 6 -0.5 8s0.5 5.33301 1.5 10s2.5 9.33398 4.5 14.001c2 5.33301 4.16699 10.5 6.5 15.5s4.83301 8.16699 7.5 9.5
c0.666992 0.666992 1.16699 1 1.5 1h1.5c2 0 4 -0.5 6 -1.5s4 -2.16699 6 -3.5c0.666992 -1.33301 1.66699 -2.5 3 -3.5s2.66602 -2.16699 3.99902 -3.5c3.33301 -2.66699 7.33301 -5.33398 12 -8.00098s10.667 -4 18 -4v0z" />
    <glyph glyph-name="eight" unicode="8" horiz-adv-x="556" 
d="M147 234l76.0029 59.0078c-45.333 29.333 -74.833 53.833 -88.5 73.5s-20.834 38.5 -21.501 56.5v2v2c0 17.333 5.16699 34 15.5 50s21.5 29.667 33.5 41c10 9.33301 19.5 16.833 28.5 22.5s15.167 8.5 18.5 8.5c1.33301 0 3.33301 -0.333008 6 -1
s5.33398 -1.66699 8.00098 -3s5.16699 -2.66602 7.5 -3.99902s4.16602 -2.66602 5.49902 -3.99902c0.666992 -0.666992 1.16699 -1.33398 1.5 -2.00098s0.5 -1.33398 0.5 -2.00098c0 -6 -0.833008 -10.667 -2.5 -14s-3.83398 -6 -6.50098 -8c-10 -8 -18 -15.5 -24 -22.5
s-10.667 -13.833 -14 -20.5c-2 -4 -3.5 -8.16699 -4.5 -12.5s-1.5 -8.5 -1.5 -12.5c0 -8.66699 0.5 -16.334 1.5 -23.001s3.16699 -13.334 6.5 -20.001c4.66699 -8.66699 12.834 -18.167 24.501 -28.5s29.167 -22.833 52.5 -37.5c36 32.667 60.333 59 73 79s19 38.667 19 56
c0 15.333 -1.66699 29 -5 41s-9.33301 22 -18 30c-3.33301 3.33301 -9 6.16602 -17 8.49902s-16.667 4.5 -26 6.5l-13.5 2c-4.33301 0.666992 -8.5 1 -12.5 1c-2.66699 0 -5 1 -7 3s-3.33301 4 -4 6v0.5v1.5c0 1.33301 0.833008 3.83301 2.5 7.5s3.83398 7.5 6.50098 11.5
c0.666992 0.666992 1.33398 1.66699 2.00098 3s1.66699 2.66602 3 3.99902c1.33301 2 2.66602 3.83301 3.99902 5.5s2.66602 3.16699 3.99902 4.5c2.66699 2.66699 6 4.83398 10 6.50098s8 3.16699 12 4.5c2 0 3.83301 0.166992 5.5 0.5s3.16699 0.5 4.5 0.5
c26.667 0 50.667 -9.66699 72 -29s36.333 -40.666 45 -63.999c2.66699 -6.66699 4.66699 -13.334 6 -20.001s2 -13 2 -19c0 -20.667 -10.5 -45.834 -31.5 -75.501s-52.167 -60.5 -93.5 -92.5l51 -32.5c14.667 -9.66699 27 -19.167 37 -28.5
c15.333 -14.667 26.166 -30.334 32.499 -47.001s9.5 -37.334 9.5 -62.001c0 -2.66699 -0.166992 -5.5 -0.5 -8.5s-0.833008 -6.16699 -1.5 -9.5c-6 -33.333 -25.833 -64 -59.5 -92s-69.834 -42.667 -108.501 -44h-3.5h-2.5c-6 0 -15.5 0.5 -28.5 1.5
s-26.5 2.83301 -40.5 5.5c-12 2 -23.333 4.83301 -34 8.5s-19.667 8.5 -27 14.5c-8.66699 7.33301 -16.5 15.833 -23.5 25.5s-12.5 19.834 -16.5 30.501c-3.33301 7.33301 -5.83301 14.666 -7.5 21.999s-2.5 14 -2.5 20c0 6.66699 1 13.667 3 21s4.66699 14.666 8 21.999
c4 9.33301 8.83301 18.666 14.5 27.999s11.167 17.333 16.5 24c3.33301 4 6.5 7.5 9.5 10.5s5.83301 5.5 8.5 7.5v0zM163.003 126.008c0 -26 10.5 -46.4961 31.5 -61.4961s43.833 -23.5 68.5 -25.5c2 -0.666992 4.16699 -1 6.5 -1h6.5h1.5h1.5
c21.333 1.33301 41.333 11.166 60 29.499s30.667 38.833 36 61.5c0.666992 3.33301 1.16699 6.66602 1.5 9.99902s0.5 6.66602 0.5 9.99902c0 25.333 -11.667 49.166 -35 71.499s-49.666 39.833 -78.999 52.5c-20.667 -16 -37.834 -31 -51.501 -45s-24.5 -28 -32.5 -42
c-5.33301 -9.33301 -9.33301 -19 -12 -29s-4 -20.333 -4 -31v0z" />
    <glyph glyph-name="nine" unicode="9" horiz-adv-x="556" 
d="M76 414c0 20 2.99414 38.9941 8.99414 56.9941s17 36 33 54l15 14.5c5.33301 5 11.333 10.167 18 15.5c12.667 10 29.334 18.167 50.001 24.5s44.334 9.5 71.001 9.5c32 0 57.333 -2 76 -6s36.334 -12.667 53.001 -26c2 -1.33301 4 -3 6 -5l6 -6
c8.66699 -8.66699 16.667 -18.167 24 -28.5s14 -20.833 20 -31.5c7.33301 -13.333 13 -26.666 17 -39.999s6 -24.666 6 -33.999c0 -10.667 -1.33301 -24.334 -4 -41.001s-7 -33.667 -13 -51l-12.5 -28c-4.33301 -9.33301 -9.5 -18.333 -15.5 -27l-23.5 -35.5l-27.5 -42.5
c-0.666992 -2 -1.66699 -3.83301 -3 -5.5s-2.66602 -3.5 -3.99902 -5.5l-34 -57.5c-10.667 -18.333 -18.667 -32.5 -24 -42.5c-2 -4 -5.16699 -10 -9.5 -18l-13.5 -24c-1.33301 -2.66699 -2.83301 -5.16699 -4.5 -7.5s-3.16699 -4.83301 -4.5 -7.5
c-5.33301 -8 -10.5 -15 -15.5 -21s-9.16699 -9.66699 -12.5 -11s-7.66602 -2.66602 -12.999 -3.99902l-16 -4c-8 -1.33301 -15.5 -2.5 -22.5 -3.5s-11.5 -1.5 -13.5 -1.5c-5.33301 0 -9.33301 1 -12 3s-4 4.66699 -4 8c0 2.66699 2 5.83398 6 9.50098
s8.33301 8.83398 13 15.501c70.667 99.333 119.667 171.5 147 216.5s44 84.833 50 119.5c1.33301 8.66699 2.33301 17.667 3 27s1 19 1 29c0 7.33301 -1 16.333 -3 27s-5.33301 21.667 -10 33c-8 18.667 -20.5 35.834 -37.5 51.501s-41.167 23.5 -72.5 23.5
c-4.66699 0 -9.16699 -0.333008 -13.5 -1l-13.5 -2c-24 -6 -46 -19.167 -66 -39.5s-30 -47.833 -30 -82.5c0 -24 7.83301 -45.833 23.5 -65.5s45.834 -29.5 90.501 -29.5c4 0 8.16699 0.166992 12.5 0.5s8.83301 0.833008 13.5 1.5s9.16699 1.16699 13.5 1.5
s8.83301 0.5 13.5 0.5h1.5c0.333008 0 0.833008 -0.333008 1.5 -1c2 0 3.66699 -0.666992 5 -2s2 -3 2 -5c0 -3.33301 -1.66699 -7.66602 -5 -12.999s-10.666 -13.333 -21.999 -24c-2.66699 -2.66699 -5.33398 -5.16699 -8.00098 -7.5s-5.33398 -4.16602 -8.00098 -5.49902
c-8.66699 -6 -18.167 -10.167 -28.5 -12.5s-25.833 -3.5 -46.5 -3.5c-7.33301 0 -15.666 2.16699 -24.999 6.5s-19 10.166 -29 17.499c-18 14 -34.833 32.333 -50.5 55s-25.5 46 -29.5 70c0 3.33301 -0.166992 6.5 -0.5 9.5s-0.5 5.83301 -0.5 8.5v0z" />
    <glyph glyph-name="colon" unicode=":" 
d="M72 49c0 3.33301 1.66699 7.50098 5 12.501s7.66602 9.83301 12.999 14.5c2.66699 2.66699 5.5 5.33398 8.5 8.00098s6.16699 5.33398 9.5 8.00098c6.66699 6 13.167 10.833 19.5 14.5s10.833 5.5 13.5 5.5h2c0.666992 0 1.33398 -0.333008 2.00098 -1
c2 -0.666992 4.33301 -2.16699 7 -4.5s6 -6.5 10 -12.5c11.333 -14.667 18.5 -24.5 21.5 -29.5s4.5 -9.16699 4.5 -12.5c0 -2.66699 -0.666992 -5.83398 -2 -9.50098s-3.33301 -7.5 -6 -11.5c-3.33301 -5.33301 -7.66602 -10.5 -12.999 -15.5
s-10.666 -8.83301 -15.999 -11.5c-2.66699 -1.33301 -5.33398 -2.33301 -8.00098 -3s-5 -1 -7 -1c-5.33301 0 -11.833 2 -19.5 6s-19.834 12.667 -36.501 26c-1.33301 1.33301 -2.5 2.83301 -3.5 4.5s-1.83301 3.16699 -2.5 4.5s-1.16699 2.66602 -1.5 3.99902
s-0.5 2.66602 -0.5 3.99902v0zM84 312.001c0 5.33301 1.16309 10.166 3.49609 14.499s5.83301 7.83301 10.5 10.5l38 22c4 2 7.5 3.33301 10.5 4s5.83301 1 8.5 1s5.83398 -0.666992 9.50098 -2s7.5 -3.33301 11.5 -6s7.83301 -5.5 11.5 -8.5s6.83398 -6.16699 9.50098 -9.5
s4.83398 -6.33301 6.50098 -9s2.5 -5.33398 2.5 -8.00098c0 -4 -1.66699 -8.66699 -5 -14s-7.66602 -10.666 -12.999 -15.999c-3.33301 -4 -6.83301 -7.66699 -10.5 -11l-11.5 -10c-6 -5.33301 -12 -9.66602 -18 -12.999s-11 -5 -15 -5c-2 0 -5.16699 2 -9.5 6l-14.5 14
l-4 6c-1.33301 2 -3 3.66699 -5 5l-11 17c-3.33301 5.33301 -5 9.33301 -5 12v0z" />
    <glyph glyph-name="semicolon" unicode=";" 
d="M59 -87c0 2 0.666016 4.66602 1.99902 7.99902s2.66602 7 3.99902 11l0.5 0.5l0.5 0.5c0 1.33301 0.333008 2.33301 1 3s1 1.33398 1 2.00098c1.33301 4 2.83301 8 4.5 12s3.16699 8 4.5 12c1.33301 3.33301 2.5 6.83301 3.5 10.5s2.16699 7.5 3.5 11.5
c4 12 8.16699 26.5 12.5 43.5l16.5 65.5c1.33301 6.66699 2.83301 12.334 4.5 17.001s3.83398 8.33398 6.50098 11.001c3.33301 3.33301 7.16602 6.83301 11.499 10.5s8.5 6.5 12.5 8.5c3.33301 1.33301 6.5 2.5 9.5 3.5s5.83301 1.5 8.5 1.5c2 0 4.5 -0.833008 7.5 -2.5
s6.16699 -3.83398 9.5 -6.50098c2.66699 -2.66699 5.5 -5.83398 8.5 -9.50098s5.5 -7.16699 7.5 -10.5c0.666992 -2 1.33398 -3.83301 2.00098 -5.5s1 -3.5 1 -5.5c0 -4 -1.33301 -8.16699 -4 -12.5s-5.66699 -9.5 -9 -15.5c0 -0.666992 -0.166992 -1.5 -0.5 -2.5
s-0.833008 -1.83301 -1.5 -2.5l-65 -133c-4 -8 -7.66699 -14.333 -11 -19s-6.66602 -8 -9.99902 -10c-2.66699 -2 -5.5 -3.33301 -8.5 -4s-6.16699 -1 -9.5 -1c-6.66699 0 -12 0.666992 -16 2s-6.33301 3 -7 5c-0.666992 0 -1 0.166992 -1 0.5v1.5v-1zM108.999 314.999
c0 7.33301 3.49902 14.167 10.499 20.5s14.5 11.833 22.5 16.5c6.66699 4 12.834 7 18.501 9s9.83398 3 12.501 3s5.83398 -1.16699 9.50098 -3.5s7.5 -5.5 11.5 -9.5c2.66699 -2.66699 5.16699 -5.33398 7.5 -8.00098l7.5 -9c2.66699 -4 5 -8 7 -12s3 -7.33301 3 -10
s-1.83301 -6.66699 -5.5 -12s-8.16699 -11 -13.5 -17l-8 -8c-2.66699 -2.66699 -5.33398 -5 -8.00098 -7c-4.66699 -4.66699 -9.5 -8.5 -14.5 -11.5s-9.16699 -4.5 -12.5 -4.5c-2.66699 0 -5.83398 1.16699 -9.50098 3.5s-7.16699 5.5 -10.5 9.5
c-3.33301 3.33301 -6.5 7 -9.5 11s-5.83301 8.33301 -8.5 13c-3.33301 4.66699 -5.83301 9.33398 -7.5 14.001s-2.5 8.66699 -2.5 12v0z" />
    <glyph glyph-name="less" unicode="&#x3c;" horiz-adv-x="500" 
 />
    <glyph glyph-name="equal" unicode="=" horiz-adv-x="500" 
 />
    <glyph glyph-name="greater" unicode="&#x3e;" horiz-adv-x="500" 
 />
    <glyph glyph-name="question" unicode="?" horiz-adv-x="481" 
d="M240 0c-1.33301 0 -5.49902 0.665039 -12.499 1.99805s-14.5 3.33301 -22.5 6c-8.66699 2.66699 -16.667 6.83398 -24 12.501s-11 12.5 -11 20.5c0 2.66699 1.33301 7.33398 4 14.001s6 13.334 10 20.001c2 4 4.16699 7.66699 6.5 11s4.5 6.66602 6.5 9.99902
c3.33301 4.66699 6.66602 8.5 9.99902 11.5s6.33301 4.5 9 4.5s6 -0.833008 10 -2.5s8.33301 -3.83398 13 -6.50098c1.33301 -0.666992 2.83301 -1.5 4.5 -2.5s3.5 -2.16699 5.5 -3.5c3.33301 -2 6.5 -4.16699 9.5 -6.5s5.16699 -4.16602 6.5 -5.49902l3.5 -3.5
c1 -1 1.83301 -2.16699 2.5 -3.5c4 -4.66699 6.5 -10.167 7.5 -16.5s1.5 -16.5 1.5 -30.5c0 -8.66699 -3 -16 -9 -22s-16.333 -9 -31 -9v0zM79.001 507.998c0 12 7.16309 23.5039 21.4961 34.5039s29.833 20.5 46.5 28.5c15.333 7.33301 29.5 13 42.5 17s21.167 6 24.5 6
c8.66699 0 18.5 -0.666992 29.5 -2s22.167 -3 33.5 -5c16.667 -3.33301 32.834 -8 48.501 -14s28.167 -13 37.5 -21c10 -8.66699 18 -20 24 -34s10.667 -28.333 14 -43c2.66699 -12.667 4.5 -25.167 5.5 -37.5s1.5 -22.833 1.5 -31.5
c0 -5.33301 -0.333008 -10.666 -1 -15.999s-2 -10.666 -4 -15.999c-4.66699 -16 -11.834 -31.5 -21.501 -46.5s-20.834 -26.833 -33.501 -35.5l-67 -48c-21.333 -15.333 -38.666 -29 -51.999 -41c-0.666992 -0.666992 -1.5 -1.33398 -2.5 -2.00098
s-2.16699 -1.33398 -3.5 -2.00098c-2.66699 -2 -5.5 -3.33301 -8.5 -4s-7.16699 -1 -12.5 -1c-6 0 -10 2.66699 -12 8s-3 11.333 -3 18c0 7.33301 1.16699 13.166 3.5 17.499s4.83301 6.83301 7.5 7.5c4 1.33301 11.833 5.83301 23.5 13.5s24.167 16.5 37.5 26.5
c2.66699 2 5.5 4 8.5 6s5.83301 4.33301 8.5 7c5.33301 4 10.5 8.16699 15.5 12.5s9.5 8.5 13.5 12.5c6.66699 6.66699 12.834 15 18.501 25s10.167 20 13.5 30c2.66699 8.66699 4.83398 17 6.50098 25s2.5 15.333 2.5 22c0 8 -1 16.333 -3 25s-6.66699 18.667 -14 30
c-1.33301 2.66699 -3.33301 5.66699 -6 9l-8 10c-0.666992 1.33301 -1.5 2.5 -2.5 3.5s-1.83301 2.16699 -2.5 3.5c-2.66699 2.66699 -5.16699 5.33398 -7.5 8.00098s-4.5 5 -6.5 7c-3.33301 3.33301 -7 6.16602 -11 8.49902l-11 6.5c-7.33301 4 -14.666 7 -21.999 9
s-14.666 3 -21.999 3c-3.33301 0 -7.16602 -0.333008 -11.499 -1s-8.5 -1.66699 -12.5 -3c-9.33301 -2.66699 -18.333 -7.33398 -27 -14.001s-14.667 -16 -18 -28c-3.33301 -10.667 -8.33301 -19 -15 -25s-13.667 -10.333 -21 -13c-5.33301 -2 -10.333 -3.33301 -15 -4
s-9 -1 -13 -1c-4.66699 0 -8.33398 3.16699 -11.001 9.5s-4.66699 13.166 -6 20.499c0 3.33301 -0.166992 6.66602 -0.5 9.99902s-0.5 6.33301 -0.5 9v0z" />
    <glyph glyph-name="at" unicode="@" horiz-adv-x="500" 
 />
    <glyph glyph-name="A" unicode="A" horiz-adv-x="667" 
d="M275 211c-30 0 -49.6758 -1.16699 -59.0088 -3.5s-16.666 -9.5 -21.999 -21.5c-0.666992 -1.33301 -1.16699 -2.5 -1.5 -3.5s-0.833008 -2.16699 -1.5 -3.5c-2.66699 -8 -6.83398 -17.667 -12.501 -29l-17.5 -35c0 -0.666992 -0.166992 -1.33398 -0.5 -2.00098l-0.5 -1
l-22.5 -45c-7 -14 -11.167 -24.333 -12.5 -31c-2 -10.667 -4.5 -18 -7.5 -22s-6.83301 -6.33301 -11.5 -7s-10.167 -1.16699 -16.5 -1.5s-12.833 -0.833008 -19.5 -1.5v0h-1c-11.333 -1.33301 -21.666 -2.33301 -30.999 -3s-15 -1 -17 -1c-2.66699 0 -4.66699 1 -6 3
s-2.33301 4.33301 -3 7c-0.666992 1.33301 -1 2.5 -1 3.5v2.5c0 9.33301 0.833008 15.666 2.5 18.999s4.83398 5.33301 9.50098 6c2 0.666992 4.33301 1.33398 7 2.00098s5 1.66699 7 3c8 3.33301 15.833 8.5 23.5 15.5s13.834 17.5 18.501 31.5
c2.66699 6.66699 14 27.834 34 63.501l65 121.5c4 6.66699 7.83301 13.5 11.5 20.5s7.16699 14.167 10.5 21.5c20.667 41.333 38.834 80.833 54.501 118.5s23.5 66.5 23.5 86.5c0 2 -0.666992 4.83301 -2 8.5s-2.66602 7.83398 -3.99902 12.501
c-2 4.66699 -3.66699 8.83398 -5 12.501s-2 6.5 -2 8.5s0.5 3.83301 1.5 5.5s2.5 3.5 4.5 5.5c3.33301 3.33301 7 6.33301 11 9s8 5 12 7c5.33301 2.66699 10.166 4.66699 14.499 6s7.83301 2 10.5 2c2 0 5 -1.5 9 -4.5s8.33301 -6.83301 13 -11.5
c2.66699 -3.33301 5.5 -7.33301 8.5 -12s5.83301 -9.33398 8.5 -14.001c0.666992 -1.33301 1.33398 -2.83301 2.00098 -4.5s1.33398 -3.16699 2.00098 -4.5l71 -150c24.667 -53.333 55.334 -112.333 92.001 -177c48 -84.667 81.333 -136.667 100 -156s28 -31.666 28 -36.999
c0 -6.66699 -2.16699 -11.334 -6.5 -14.001s-8.83301 -4 -13.5 -4h-1.5h-1.5c-3.33301 0 -8.66602 0.333008 -15.999 1s-14.666 1.66699 -21.999 3c-3.33301 0.666992 -6.33301 1.16699 -9 1.5s-5.33398 0.833008 -8.00098 1.5c-5.33301 0.666992 -10 1.5 -14 2.5
s-7 1.83301 -9 2.5c-6 1.33301 -11 5.5 -15 12.5s-7.33301 14.833 -10 23.5c-1.33301 5.33301 -4.66602 14 -9.99902 26s-11.333 24.667 -18 38c-1.33301 2.66699 -2.5 5.16699 -3.5 7.5s-2.16699 4.83301 -3.5 7.5l-20.5 36c-6.33301 10.667 -10.833 16.667 -13.5 18
c-7.33301 4 -20 7.16699 -38 9.5s-37.333 3.83301 -58 4.5c-17.333 1.33301 -33.833 2.16602 -49.5 2.49902s-28.167 0.5 -37.5 0.5v0zM250.991 257l181 0.00195312l-79 155c-5.33301 10 -9.33301 18.5 -12 25.5s-5 12.5 -7 16.5c-0.666992 2 -1.66699 3.5 -3 4.5
s-2.66602 1.5 -3.99902 1.5c-2.66699 0 -4.83398 -2.16699 -6.50098 -6.5l-5.5 -14.5c-0.666992 -1.33301 -1 -2.33301 -1 -3s-0.333008 -1.33398 -1 -2.00098c-0.666992 -3.33301 -1.5 -6.33301 -2.5 -9s-2.16699 -5.33398 -3.5 -8.00098l-52 -106l-16 -32
c-3.33301 -6.66699 -5 -11.667 -5 -15c0 -2.66699 1.66699 -4.5 5 -5.5s7.33301 -1.5 12 -1.5v0z" />
    <glyph glyph-name="B" unicode="B" horiz-adv-x="537" 
d="M145 313c0 76.667 -1.33496 123.668 -4.00195 141.001s-8.66699 29 -18 35h-0.5h-0.5c-4 2 -7.5 3.83301 -10.5 5.5s-5.83301 3.5 -8.5 5.5c-3.33301 2 -5.83301 4.16699 -7.5 6.5s-2.5 5.16602 -2.5 8.49902v0.5v0.5c0.666992 5.33301 7.83398 12.333 21.501 21
s50.834 28.334 111.501 59.001c0.666992 0 1.16699 0.166992 1.5 0.5l0.5 0.5c4 2 8.33301 3.33301 13 4s12 1 22 1c48 0 85.833 -7 113.5 -21s41.5 -39 41.5 -75c0 -20 -1.83301 -37 -5.5 -51s-11.5 -27.333 -23.5 -40c-8.66699 -9.33301 -20.667 -19.333 -36 -30
s-35 -22.667 -59 -36c8.66699 -2.66699 18.334 -6.83398 29.001 -12.501s21.667 -12.5 33 -20.5c21.333 -15.333 41.166 -33.666 59.499 -54.999s28.833 -43 31.5 -65c0.666992 -2 1 -3.83301 1 -5.5v-5.5c0 -31.333 -14 -59 -42 -83s-59 -43.667 -93 -59
c-30.667 -14 -59.167 -24.667 -85.5 -32s-42.166 -11 -47.499 -11c-30.667 0 -51 1.5 -61 4.5s-15 8.16699 -15 15.5c0 2.66699 1.16699 5.66699 3.5 9s5.16602 6.66602 8.49902 9.99902c2 3.33301 4.16699 6.66602 6.5 9.99902s3.83301 7 4.5 11
c0.666992 5.33301 1.66699 11.833 3 19.5s2.33301 16.167 3 25.5c2.66699 20.667 5 44.834 7 72.501s3.33301 56.167 4 85.5c0.666992 8.66699 1 17.167 1 25.5v24.5v0zM196.998 151.001c0 -38 1.00098 -60.999 3.00098 -68.999s7 -12 15 -12c8.66699 0 19.167 1 31.5 3
s24.833 5 37.5 9c23.333 7.33301 44.5 18.166 63.5 32.499s28.5 33.166 28.5 56.499c0 6.66699 -1.5 13.667 -4.5 21s-6.83301 14.666 -11.5 21.999c-9.33301 12.667 -20.833 25 -34.5 37s-27.834 22.667 -42.501 32c-7.33301 4.66699 -14.5 8.83398 -21.5 12.501
s-13.833 6.83398 -20.5 9.50098c-1.33301 -0.666992 -2.5 -1.16699 -3.5 -1.5s-2.16699 -0.833008 -3.5 -1.5c-5.33301 -2 -10.166 -4.33301 -14.499 -7s-7.83301 -5.33398 -10.5 -8.00098c-4.66699 -4.66699 -7.83398 -16.667 -9.50098 -36s-2.5 -52.666 -2.5 -99.999v0z
M206.999 524.002l-0.00195312 -156.996l2.5 -2.5l2.5 -2.5c2 -2 4.33301 -3.83301 7 -5.5s5.33398 -2.83398 8.00098 -3.50098c0.666992 0 1.5 -0.166992 2.5 -0.5s1.83301 -0.5 2.5 -0.5c5.33301 0 12.833 3.16699 22.5 9.5s19.834 14.166 30.501 23.499
c8 8 15.833 16.5 23.5 25.5s14.5 18.5 20.5 28.5c5.33301 8 9.5 16.167 12.5 24.5s4.5 16.166 4.5 23.499c0 2 -0.166992 4 -0.5 6s-0.5 4 -0.5 6c-4 15.333 -14.167 29.666 -30.5 42.999s-38.166 20 -65.499 20c-10.667 0 -20.334 -2.66699 -29.001 -8s-13 -15.333 -13 -30
v0z" />
    <glyph glyph-name="C" unicode="C" horiz-adv-x="593" 
d="M104 240c0 98.667 20.6709 172.667 62.0039 222s87 83.333 137 102c23.333 8.66699 46.333 14.667 69 18s43 5 61 5c21.333 0 39.333 -3.5 54 -10.5s24.667 -14.833 30 -23.5c1.33301 -2 2.33301 -4.16699 3 -6.5s1 -4.5 1 -6.5c0 -2.66699 -1 -5.83398 -3 -9.50098
s-4.66699 -7.5 -8 -11.5c-2.66699 -3.33301 -5.83398 -6.66602 -9.50098 -9.99902s-7.16699 -6.33301 -10.5 -9c-4.66699 -2.66699 -9 -5 -13 -7s-7.33301 -3 -10 -3c-0.666992 0 -1.5 0.166992 -2.5 0.5s-1.83301 0.5 -2.5 0.5c-2.66699 2 -5.5 5 -8.5 9
s-6.5 8.33301 -10.5 13c-5.33301 5.33301 -11.5 10.333 -18.5 15s-16.167 7 -27.5 7c-56 0 -99.667 -15.333 -131 -46s-54.333 -64.334 -69 -101.001c-10.667 -26 -17.834 -51.167 -21.501 -75.5s-5.5 -42.833 -5.5 -55.5c0 -11.333 1.5 -23.5 4.5 -36.5
s7.16699 -26.167 12.5 -39.5c13.333 -33.333 33.666 -63.833 60.999 -91.5s59.666 -41.5 96.999 -41.5c24.667 0 46.667 4.16699 66 12.5s36.666 17.833 51.999 28.5c14.667 10 27.334 19.167 38.001 27.5s19 12.5 25 12.5c6.66699 0 11.834 -2 15.501 -6s5.5 -9 5.5 -15
c0 -3.33301 -3.5 -9.5 -10.5 -18.5s-15.833 -18.833 -26.5 -29.5c-6.66699 -6 -13.834 -11.833 -21.501 -17.5s-15.5 -10.834 -23.5 -15.501c-0.666992 -0.666992 -1.5 -1.16699 -2.5 -1.5s-1.83301 -0.833008 -2.5 -1.5c-10.667 -4.66699 -25.167 -9.5 -43.5 -14.5
s-37.5 -8.16699 -57.5 -9.5c-7.33301 -1.33301 -14.5 -2.16602 -21.5 -2.49902s-13.833 -0.5 -20.5 -0.5c-12 0 -25.167 1.33301 -39.5 4s-28.833 7.66699 -43.5 15c-32.667 15.333 -62.5 40.833 -89.5 76.5s-40.5 84.834 -40.5 147.501v0z" />
    <glyph glyph-name="D" unicode="D" horiz-adv-x="648" 
d="M237 -12c-1.33301 0.666992 -2.66309 1.00293 -3.99609 1.00293h-4c-2.66699 0.666992 -5.33398 1.16699 -8.00098 1.5s-5 0.5 -7 0.5c-2.66699 0.666992 -5.16699 1.16699 -7.5 1.5s-4.5 0.5 -6.5 0.5l-56 7c-11.333 1.33301 -19.5 3.16602 -24.5 5.49902
s-7.5 6.16602 -7.5 11.499c0 3.33301 0.5 6 1.5 8s2.5 4 4.5 6c1.33301 2 2.83301 3.83301 4.5 5.5l5.5 5.5c3.33301 4 6.5 9.5 9.5 16.5s4.83301 16.833 5.5 29.5l2 45l2 46l2 77c0.666992 25.333 1 49.333 1 72c0 10 -0.333008 20.833 -1 32.5l-2 34.5
c-1.33301 19.333 -3 37.833 -5 55.5s-4.33301 32.834 -7 45.501c0 2 -0.166992 4 -0.5 6s-0.833008 4 -1.5 6c-1.33301 5.33301 -3.83301 8.66602 -7.5 9.99902s-7.5 2.33301 -11.5 3h-0.5h-0.5c-4.66699 0.666992 -9 1.83398 -13 3.50098s-6 6.16699 -6 13.5
c0 6.66699 1.16699 11.834 3.5 15.501s7.16602 6.83398 14.499 9.50098c2.66699 1.33301 6 2.66602 10 3.99902s8.33301 2.66602 13 3.99902l70 20c14.667 4 26.5 6.83301 35.5 8.5s15.833 2.5 20.5 2.5c2.66699 0 17.5 -1.83301 44.5 -5.5s56.5 -12.834 88.5 -27.501
c33.333 -16 64 -40.333 92 -73s42 -78.334 42 -137.001c0 -68 -4.33301 -121 -13 -159s-24 -73 -46 -105c-0.666992 -0.666992 -1.33398 -1.5 -2.00098 -2.5s-1.33398 -1.83301 -2.00098 -2.5c-10 -13.333 -25.167 -26 -45.5 -38s-41.833 -22.333 -64.5 -31
c-26.667 -10 -51.5 -17.833 -74.5 -23.5s-37.5 -8.5 -43.5 -8.5v-1zM212.003 529.003l0.00195312 -282.998v-6.5v-7.5v-30.5v-29.5c-0.666992 -12 -1 -23.833 -1 -35.5v-32.5c0 -25.333 2.66699 -41.333 8 -48s14 -10 26 -10c62 0 112.667 18.667 152 56s59 113.333 59 228
c0 48 -9.66699 87.167 -29 117.5s-40.333 53.5 -63 69.5c-16.667 12 -32.667 20.5 -48 25.5s-27 7.5 -35 7.5c-4 0 -8 -0.333008 -12 -1s-8.33301 -1.33398 -13 -2.00098c-7.33301 -2 -14.5 -4.33301 -21.5 -7s-13.167 -5.33398 -18.5 -8.00098
c-0.666992 -0.666992 -1.33398 -1.16699 -2.00098 -1.5s-1.33398 -0.833008 -2.00098 -1.5v0z" />
    <glyph glyph-name="E" unicode="E" horiz-adv-x="481" 
d="M229 320l135.004 0.000976562c5.33301 0 9.83301 -0.833008 13.5 -2.5s5.5 -4.83398 5.5 -9.50098c0 -2 -1.33301 -4.66699 -4 -8s-6 -7 -10 -11c-2 -1.33301 -4 -2.83301 -6 -4.5s-3.66699 -3.16699 -5 -4.5c-4.66699 -3.33301 -8.83398 -6.16602 -12.501 -8.49902
s-6.83398 -3.5 -9.50098 -3.5c-24.667 -2 -48 -3.33301 -70 -4s-42.333 -1.33398 -61 -2.00098h-10.5h-10.5c0 -78.667 15.667 -138.5 47 -179.5s81.333 -61.5 150 -61.5c14.667 0 24.5 -1.33301 29.5 -4s7.5 -8.33398 7.5 -17.001v-0.5v-1.5
c-1.33301 -5.33301 -7 -10.333 -17 -15s-27 -7 -51 -7c-86.667 0 -146 19.333 -178 58s-51.667 81.334 -59 128.001c-2 15.333 -3.33301 30.333 -4 45s-1 28.667 -1 42c0 133.333 22.333 225.5 67 276.5s95 76.5 151 76.5c27.333 0 46.166 -2.16699 56.499 -6.5
s15.5 -12.166 15.5 -23.499c0 -6.66699 -1.66699 -12 -5 -16s-8 -6 -14 -6h-59c-32 0 -61.167 -15.833 -87.5 -47.5s-42.5 -97.834 -48.5 -198.501c5.33301 4.66699 11.666 8.5 18.999 11.5s16 4.5 26 4.5v0z" />
    <glyph glyph-name="F" unicode="F" horiz-adv-x="537" 
d="M205 228l0.00390625 -209.001c0 -4.66699 -0.166992 -11.334 -0.5 -20.001s-1.16602 -17.667 -2.49902 -27c-2 -14 -4.66699 -26.667 -8 -38s-7.66602 -17 -12.999 -17c-2 0 -4.33301 0.333008 -7 1s-5.66699 1.66699 -9 3c-4.66699 2 -9 4.5 -13 7.5s-7 6.16699 -9 9.5
c-0.666992 0.666992 -1.16699 1.5 -1.5 2.5s-0.5 2.16699 -0.5 3.5v0.5v1.5c0 6.66699 0.333008 14 1 22s1.33398 19.667 2.00098 35c0.666992 16.667 1.33398 39.167 2.00098 67.5s1 65.833 1 112.5c0 10.667 -0.666992 19.5 -2 26.5s-3 13.167 -5 18.5
c-0.666992 1.33301 -1.16699 2.66602 -1.5 3.99902s-0.833008 2.66602 -1.5 3.99902c-0.666992 3.33301 -1.5 7 -2.5 11s-1.5 8.66699 -1.5 14c0 4 0.333008 8 1 12l2 12c0 0.666992 0.166992 1.5 0.5 2.5s0.5 2.16699 0.5 3.5c1.33301 4.66699 2.5 9.5 3.5 14.5
s1.5 10.5 1.5 16.5c0 4.66699 -0.5 14.834 -1.5 30.501s-2.16699 32.5 -3.5 50.5c-0.666992 2.66699 -1 5.5 -1 8.5s-0.333008 5.83301 -1 8.5l-2 25c-0.666992 8 -1.33398 15 -2.00098 21c-0.666992 1.33301 -1.5 2.5 -2.5 3.5s-1.83301 2.16699 -2.5 3.5
c-6.66699 10.667 -12.167 20.834 -16.5 30.501s-6.5 17.834 -6.5 24.501c0 2.66699 1.5 6.33398 4.5 11.001s6.5 9.33398 10.5 14.001c2.66699 3.33301 5.66699 6.33301 9 9l10 8c4.66699 4 9.16699 7.16699 13.5 9.5s8.16602 3.5 11.499 3.5c4 0 8.33301 -0.333008 13 -1
s10 -1 16 -1c5.33301 -0.666992 11.666 -1.33398 18.999 -2.00098s15.666 -1 24.999 -1c12 0 24.833 0.166992 38.5 0.5s27.5 0.833008 41.5 1.5c10 0 20 0.333008 30 1l30 2c22 0.666992 41.833 1.5 59.5 2.5s30.167 1.5 37.5 1.5h2
c0.666992 0 1.33398 -0.333008 2.00098 -1c2 0 3.66699 -0.833008 5 -2.5s2 -3.83398 2 -6.50098c0 -2 -0.5 -4.5 -1.5 -7.5s-2.5 -5.83301 -4.5 -8.5c-2 -4 -4.33301 -7.66699 -7 -11s-5.33398 -5.66602 -8.00098 -6.99902l-3 -1.5
c-0.666992 -0.333008 -1.33398 -0.5 -2.00098 -0.5c-14 -2.66699 -30.333 -5 -49 -7l-58 -6l-72.5 -7.5c-23 -2.33301 -40.833 -4.5 -53.5 -6.5c-2.66699 -0.666992 -5 -2.33398 -7 -5.00098s-3.66699 -9.66699 -5 -21c-2 -17.333 -3.16699 -37 -3.5 -59
s-0.5 -44.667 -0.5 -68v-8.5v-9.5v-12.5c0 -4.33301 0.333008 -8.5 1 -12.5v-13.5v-12.5h79c17.333 0 33.666 0.5 48.999 1.5s29.666 2.5 42.999 4.5c13.333 1.33301 25.5 2.5 36.5 3.5s20.5 1.5 28.5 1.5c6 0 10.667 -1.33301 14 -4s5 -7.33398 5 -14.001
c0 -10.667 -2.33301 -19 -7 -25s-10.334 -9 -17.001 -9c-11.333 0 -27.833 -0.833008 -49.5 -2.5s-44.167 -3.5 -67.5 -5.5c-11.333 -1.33301 -22.5 -2.5 -33.5 -3.5s-21.5 -2.16699 -31.5 -3.5c-11.333 -1.33301 -21.5 -2.66602 -30.5 -3.99902
s-16.5 -2.66602 -22.5 -3.99902v0z" />
    <glyph glyph-name="G" unicode="G" horiz-adv-x="630" 
d="M451 133l8.00488 60c1.33301 6 4.33301 10.333 9 13s14.334 4 29.001 4c8.66699 0 14.167 -4 16.5 -12s3.5 -33.333 3.5 -76c0 -22 0.5 -42 1.5 -60s2.16699 -34.333 3.5 -49c0.666992 -14 1.5 -26.833 2.5 -38.5s1.5 -22.167 1.5 -31.5s-1.83301 -16 -5.5 -20
s-11.5 -6 -23.5 -6c-4.66699 0 -8.83398 1.83301 -12.501 5.5s-7.16699 11.5 -10.5 23.5c-1.33301 6 -2.83301 13.167 -4.5 21.5s-3.5 18.5 -5.5 30.5c-1.33301 9.33301 -4.33301 16 -9 20s-11.667 6 -21 6c-2.66699 0 -7.5 -0.666992 -14.5 -2
s-15.167 -2.66602 -24.5 -3.99902l-16 -2l-16 -2c-4.66699 -0.666992 -9.33398 -1.16699 -14.001 -1.5s-9.33398 -0.5 -14.001 -0.5c-62 0 -109.5 15 -142.5 45s-56.5 63 -70.5 99c-6.66699 17.333 -11.334 34.333 -14.001 51s-4 31.667 -4 45v10v9
c4 79.333 32.333 151.833 85 217.5s134 98.5 244 98.5c37.333 0 66.166 -4.16699 86.499 -12.5s30.5 -21.5 30.5 -39.5c0 -6 -2.66699 -11.833 -8 -17.5s-11.333 -10.5 -18 -14.5c-4.66699 -2.66699 -9 -4.66699 -13 -6s-7.33301 -2 -10 -2h-1.5h-1.5
c-4 0.666992 -8.66699 3.16699 -14 7.5s-14.333 12.5 -27 24.5c-1.33301 1.33301 -2.83301 2.66602 -4.5 3.99902s-3.16699 2.33301 -4.5 3c-5.33301 2.66699 -10.333 4.5 -15 5.5s-10.334 1.5 -17.001 1.5c-51.333 0 -97.5 -22.667 -138.5 -68s-70.167 -95 -87.5 -149
c-4.66699 -15.333 -8.16699 -30.166 -10.5 -44.499s-3.5 -28.5 -3.5 -42.5c0 -72 14.667 -118.833 44 -140.5s64.333 -32.5 105 -32.5c30 0 55.667 5.66699 77 17s36 23.666 44 36.999c1.33301 2.66699 2.5 5.16699 3.5 7.5s1.5 4.83301 1.5 7.5v0z" />
    <glyph glyph-name="H" unicode="H" horiz-adv-x="704" 
d="M200 217l0.00585938 -170.005c0 -16.667 -3.83301 -28.667 -11.5 -36s-18.834 -11 -33.501 -11c-7.33301 0 -12.333 2.16699 -15 6.5s-4 10.5 -4 18.5c0 17.333 0.333008 35 1 53l2 56l2 57.5c0.666992 19.667 1 39.834 1 60.501v37.5c0 13 -0.333008 25.833 -1 38.5
c0 28 -0.333008 54.833 -1 80.5s-1.33398 46.834 -2.00098 63.501c0 8 -2.33301 14.667 -7 20s-9.33398 10.333 -14.001 15c-2.66699 2 -5 3.83301 -7 5.5s-3.66699 3.16699 -5 4.5c-2.66699 2.66699 -5 5.33398 -7 8.00098s-3 5.66699 -3 9c0 2 1.16699 5 3.5 9
s5.5 8 9.5 12c4.66699 6 10.667 11.333 18 16s15.333 7 24 7c4 0 8.83301 -0.666992 14.5 -2s11.167 -3 16.5 -5c6 -2 11.667 -4.16699 17 -6.5s10 -4.83301 14 -7.5s7.33301 -5.33398 10 -8.00098s4 -5 4 -7c0 -3.33301 -0.833008 -7.16602 -2.5 -11.499
s-3.5 -9.5 -5.5 -15.5c-2 -5.33301 -3.83301 -11.333 -5.5 -18s-2.5 -14 -2.5 -22v-40.5c0 -13.667 -0.333008 -27.5 -1 -41.5c0 -12 -0.166992 -23.667 -0.5 -35s-0.833008 -22.666 -1.5 -33.999h266c0.666992 12 1.16699 25.333 1.5 40s0.5 29.667 0.5 45v5v6
c0 11.333 -0.333008 22.5 -1 33.5s-1.33398 21.167 -2.00098 30.5s-1.33398 17.666 -2.00098 24.999s-1 13.333 -1 18c0 6 4.83301 11.333 14.5 16s20.167 8.33398 31.5 11.001c7.33301 2 14.333 3.5 21 4.5s12.334 1.5 17.001 1.5c6.66699 0 11.667 -1.33301 15 -4
s5 -6 5 -10v-2c0 -0.666992 -0.333008 -1.33398 -1 -2.00098c-0.666992 -3.33301 -2.16699 -6.66602 -4.5 -9.99902s-4.83301 -8 -7.5 -14c-1.33301 -4 -2.83301 -8.83301 -4.5 -14.5s-3.16699 -12.167 -4.5 -19.5c-2 -10.667 -3.5 -22.167 -4.5 -34.5
s-1.83301 -24.833 -2.5 -37.5c-1.33301 -16 -2.16602 -31.667 -2.49902 -47s-0.5 -28.666 -0.5 -39.999c5.33301 0.666992 10.833 1.16699 16.5 1.5s11.167 0.5 16.5 0.5s9.5 -0.833008 12.5 -2.5s4.5 -5.83398 4.5 -12.501c0 -2 -0.333008 -4.66699 -1 -8
s-1.66699 -6.66602 -3 -9.99902c-1.33301 -5.33301 -3.83301 -10.333 -7.5 -15s-7.83398 -7 -12.501 -7c-0.666992 0 -1.66699 0.166992 -3 0.5s-2.66602 0.5 -3.99902 0.5s-2.66602 0.166992 -3.99902 0.5s-3 0.5 -5 0.5c-4 0 -6.66699 -1 -8 -3s-2 -5 -2 -9l-2 -197
c0 -2.66699 -0.5 -6 -1.5 -10s-2.16699 -8.33301 -3.5 -13c-2.66699 -7.33301 -6.33398 -14 -11.001 -20s-9.66699 -9 -15 -9c-9.33301 0 -15.833 1.66699 -19.5 5s-5.83398 10.333 -6.50098 21l-10 233c-14.667 0 -32.667 -0.333008 -54 -1s-43.333 -1.66699 -66 -3
c-31.333 -1.33301 -60.833 -3.33301 -88.5 -6s-47.167 -5.33398 -58.5 -8.00098c-0.666992 -2.66699 -1.33398 -5.66699 -2.00098 -9s-1.33398 -6.33301 -2.00098 -9c-0.666992 -3.33301 -1 -6.66602 -1 -9.99902v-9v0z" />
    <glyph glyph-name="I" unicode="I" horiz-adv-x="333" 
d="M134 309c0 17.333 -0.166016 32.834 -0.499023 46.501s-0.5 25.834 -0.5 36.501c-0.666992 10.667 -1.16699 20.5 -1.5 29.5s-0.5 17.833 -0.5 26.5c0 9.33301 -0.333008 17.166 -1 23.499s-3 11.833 -7 16.5c-6.66699 7.33301 -11.167 14 -13.5 20s-3.5 11.333 -3.5 16
c0 3.33301 1.83301 7.5 5.5 12.5s8.5 10.167 14.5 15.5c2.66699 3.33301 5.83398 6.33301 9.50098 9l10.5 8c6.66699 5.33301 13.167 9.66602 19.5 12.999s11.166 5 14.499 5c2 0 4.16699 -0.333008 6.5 -1s4.83301 -1.33398 7.5 -2.00098
c3.33301 -1.33301 6.66602 -3 9.99902 -5s6.33301 -4 9 -6c2 -1.33301 3.5 -2.83301 4.5 -4.5s1.5 -3.16699 1.5 -4.5c0 -4 -0.5 -8.16699 -1.5 -12.5s-2.16699 -8.83301 -3.5 -13.5s-2.5 -9.16699 -3.5 -13.5s-1.5 -9.16602 -1.5 -14.499c0 -4.66699 -0.333008 -10 -1 -16
s-1 -12.667 -1 -20c-2 -34.667 -3.66699 -84 -5 -148s-2 -146.333 -2 -247c0 -40 -2.5 -66.5 -7.5 -79.5s-13.167 -19.5 -24.5 -19.5c-14.667 0 -24 15.333 -28 46s-6 125 -6 283v0z" />
    <glyph glyph-name="J" unicode="J" horiz-adv-x="333" 
d="M214 395l-0.000976562 -161.001c0 -85.333 -10.667 -152 -32 -200s-44.666 -84 -69.999 -108c-24 -22.667 -46.167 -37 -66.5 -43s-31.833 -9 -34.5 -9s-5.16699 0.833008 -7.5 2.5s-5.16602 3.5 -8.49902 5.5c-4 3.33301 -7.83301 7.33301 -11.5 12
s-6.83398 9.33398 -9.50098 14.001c-2.66699 4 -4.66699 8 -6 12s-2 7.66699 -2 11c0 4.66699 1.16699 8.33398 3.5 11.001s6.83301 4 13.5 4h0.5h1.5c2.66699 0 5.33398 -0.166992 8.00098 -0.5s5.33398 -0.5 8.00098 -0.5c4 0 8.66699 -0.166992 14 -0.5
s11.333 -0.5 18 -0.5c4 0 8 0.333008 12 1s8 2 12 4c22.667 8.66699 43.5 29.5 62.5 62.5s28.5 77.5 28.5 133.5c0 135.333 -1.33301 227.5 -4 276.5s-7.66699 85.167 -15 108.5c-1.33301 4.66699 -3.33301 8 -6 10s-5.66699 3.66699 -9 5l-1 0.5
c-0.666992 0.333008 -1.33398 0.5 -2.00098 0.5c-3.33301 1.33301 -6.33301 3.16602 -9 5.49902s-4 6.5 -4 12.5c0 3.33301 2.66699 7.83301 8 13.5s11.666 11.5 18.999 17.5c3.33301 2.66699 6.66602 5.16699 9.99902 7.5l11 7.5c8 5.33301 16 10 24 14s14 6 18 6h2
c0.666992 0 1.33398 -0.333008 2.00098 -1c5.33301 -1.33301 10 -4.5 14 -9.5s6 -10.833 6 -17.5c0 -10.667 0.166992 -23.334 0.5 -38.001s0.5 -31 0.5 -49s0.166992 -37.167 0.5 -57.5s0.5 -41.166 0.5 -62.499v0z" />
    <glyph glyph-name="K" unicode="K" horiz-adv-x="796" 
d="M191 367l24.9922 -8.99414l213 167c20 16 33.833 28.833 41.5 38.5s14.167 16.5 19.5 20.5c1.33301 1.33301 3 2.33301 5 3s4.33301 1 7 1c3.33301 0 7.5 -1.33301 12.5 -4s12.5 -6.33398 22.5 -11.001c0.666992 0 1.33398 -0.333008 2.00098 -1l2 -2
c2 -2 4 -4.66699 6 -8s4 -7 6 -11c1.33301 -3.33301 2.33301 -6.5 3 -9.5s1 -5.5 1 -7.5c0 -4 -1.33301 -7.16699 -4 -9.5s-7.66699 -4.16602 -15 -5.49902s-24.166 -10.166 -50.499 -26.499s-54.5 -34.833 -84.5 -55.5l-9 -6.5
c-3.33301 -2.33301 -6.66602 -4.5 -9.99902 -6.5l-65 -47.5c-20 -15 -34.667 -26.833 -44 -35.5l94 -60l159 -99l32 -19.5c10.667 -6.33301 21.667 -12.5 33 -18.5l63.5 -36l61.5 -32c4 -2 8.5 -3.66699 13.5 -5s10.167 -2.33301 15.5 -3
c2 -0.666992 4.16699 -1.16699 6.5 -1.5s4.5 -0.833008 6.5 -1.5c8.66699 -1.33301 16.167 -3 22.5 -5s9.5 -5.33301 9.5 -10c0 -2.66699 -2 -6.83398 -6 -12.501s-8.66699 -11.834 -14 -18.501c-2.66699 -2.66699 -5.5 -5.33398 -8.5 -8.00098
s-5.83301 -5.33398 -8.5 -8.00098c-6 -4.66699 -11.833 -8.66699 -17.5 -12s-10.167 -5 -13.5 -5h-3.5c-1 0 -2.16699 0.333008 -3.5 1c-5.33301 1.33301 -10.833 3.83301 -16.5 7.5l-24.5 16.5c-168 116.667 -287.667 195.5 -359 236.5s-113.333 61.5 -126 61.5
c0 -14.667 0.166992 -32.667 0.5 -54s0.5 -43 0.5 -65v-8c0 -2.66699 0.333008 -5.33398 1 -8.00098c0 -25.333 0.166992 -49 0.5 -71s0.5 -39 0.5 -51c0 -2.66699 -1 -6 -3 -10s-4.66699 -7.66699 -8 -11c-2.66699 -3.33301 -5.66699 -6.5 -9 -9.5
s-6.33301 -5.83301 -9 -8.5c-5.33301 -4 -10.166 -7.16699 -14.499 -9.5s-7.83301 -3.5 -10.5 -3.5c-4.66699 0 -8 2.66699 -10 8s-3 17.333 -3 36c0 7.33301 0.333008 18.833 1 34.5s1.33398 34.167 2.00098 55.5c0 21.333 0.333008 45 1 71s1 52.333 1 79
c0 20 -0.333008 40 -1 60l-2 61l-4 60l-4 60c-0.666992 6 -2.16699 11 -4.5 15s-5.16602 7.33301 -8.49902 10c-2 1.33301 -3.83301 2.66602 -5.5 3.99902s-3.16699 2.66602 -4.5 3.99902c-1.33301 0.666992 -2.16602 1.5 -2.49902 2.5s-0.5 1.83301 -0.5 2.5
c0 2.66699 0.333008 4.66699 1 6s1.33398 2.33301 2.00098 3l1.5 1.5l0.5 0.5c24.667 19.333 40.334 31.333 47.001 36s11.667 7 15 7v0v0c1.33301 0 4.16602 -1 8.49902 -3s8.5 -5 12.5 -9c3.33301 -2 6.5 -4.33301 9.5 -7s5.5 -5.33398 7.5 -8.00098
c2 -2 3.5 -4.16699 4.5 -6.5s1.5 -4.5 1.5 -6.5c0 -8.66699 -0.833008 -21 -2.5 -37s-3.16699 -33.667 -4.5 -53c-1.33301 -9.33301 -2.5 -19.166 -3.5 -29.499s-1.83301 -20.833 -2.5 -31.5c-0.666992 -10 -1.16699 -20 -1.5 -30s-0.5 -19.667 -0.5 -29v0z" />
    <glyph glyph-name="L" unicode="L" horiz-adv-x="519" 
d="M235 60l181.001 6.99414c1.33301 0 2.66602 0.166992 3.99902 0.5s2.66602 0.5 3.99902 0.5l10 4l10 4l13.5 6c4.33301 2 8.16602 3 11.499 3c5.33301 0 9.5 -0.833008 12.5 -2.5s4.5 -5.16699 4.5 -10.5c0 -1.33301 -0.833008 -5.66602 -2.5 -12.999
s-3.83398 -15 -6.50098 -23c-2.66699 -8.66699 -6 -16.834 -10 -24.501s-8 -11.5 -12 -11.5h-4.5c-1.66699 0 -3.16699 0.333008 -4.5 1c-4 0.666992 -8.16699 1.66699 -12.5 3s-10.166 3.33301 -17.499 6c-2.66699 1.33301 -10.667 2.33301 -24 3s-41.666 1 -84.999 1
c-44.667 0 -73.5 -0.5 -86.5 -1.5s-22.167 -2.83301 -27.5 -5.5c-3.33301 -1.33301 -7.16602 -2.66602 -11.499 -3.99902s-8.5 -2.33301 -12.5 -3h-3.5h-3.5c-2 0 -3.83301 0.5 -5.5 1.5s-3.5 2.16699 -5.5 3.5c-2.66699 2.66699 -5.5 5.83398 -8.5 9.50098
s-5.5 7.5 -7.5 11.5c-3.33301 5.33301 -6 10.333 -8 15s-3 8 -3 10c0 0.666992 0.166992 1.5 0.5 2.5s0.5 1.83301 0.5 2.5c0.666992 2 1.83398 4.16699 3.50098 6.5l5.5 7.5c2.66699 3.33301 5 7.33301 7 12s3 10.334 3 17.001c1.33301 21.333 2 52.5 2 93.5v140.5
c0 48.667 -1.66699 87.5 -5 116.5s-6.66602 51.833 -9.99902 68.5c-4 16 -7.66699 27.167 -11 33.5s-5 11.5 -5 15.5c0 2.66699 2.16699 6.5 6.5 11.5s9.83301 10.167 16.5 15.5c2 2 4.33301 4 7 6l8 6c8 5.33301 15.167 9.83301 21.5 13.5s11.166 5.5 14.499 5.5
c2 0 4.16699 -0.166992 6.5 -0.5s4.83301 -1.16602 7.5 -2.49902c5.33301 -2 10.166 -4.66699 14.499 -8s6.5 -7.66602 6.5 -12.999c0 -2.66699 -0.333008 -6 -1 -10s-1.66699 -8 -3 -12c-0.666992 -4 -1.5 -8.33301 -2.5 -13s-1.5 -9.33398 -1.5 -14.001
c0 -14.667 -0.333008 -29.5 -1 -44.5l-2 -44.5l-2 -43.5c-0.666992 -14.333 -1 -28.5 -1 -42.5v-19c0 -6 0.333008 -12 1 -18v-7.5v-7.5c0 -8.66699 0.166992 -17.667 0.5 -27s0.5 -19.666 0.5 -30.999v-17c0 -6 -0.333008 -11.667 -1 -17c0 -16 -0.5 -31.667 -1.5 -47
s-2.16699 -29.666 -3.5 -42.999c-1.33301 -18.667 -2.66602 -35 -3.99902 -49s-2 -24 -2 -30c0 -2.66699 1.16699 -4.66699 3.5 -6s5.16602 -2 8.49902 -2c2 0 3.83301 0.166992 5.5 0.5s3.5 0.833008 5.5 1.5s4 1.16699 6 1.5s4 0.5 6 0.5v0z" />
    <glyph glyph-name="M" unicode="M" horiz-adv-x="1167" 
d="M365 225l-100.999 106.999c-22 -76 -42.167 -142 -60.5 -198s-30.166 -97 -35.499 -123v-0.5v-1.5c-2.66699 -10 -6.5 -16.333 -11.5 -19s-16.833 -4 -35.5 -4c-2.66699 0 -5.33398 0.333008 -8.00098 1s-5.33398 1.66699 -8.00098 3c-3.33301 2 -7 4.33301 -11 7
s-7.33301 5.66699 -10 9c-2.66699 2.66699 -4.83398 5.33398 -6.50098 8.00098s-2.5 5 -2.5 7c0 4 1.33301 8.66699 4 14s8.66699 13.333 18 24c4 4.66699 8.16699 10.167 12.5 16.5s8.5 13.166 12.5 20.499c8.66699 15.333 17 32.5 25 51.5s15.333 38.167 22 57.5
c8.66699 25.333 15.667 49.666 21 72.999s8 42.666 8 57.999c0 34 -5.5 63.667 -16.5 89s-23.167 47.333 -36.5 66l-37.5 46.5c-11 13 -16.5 23.833 -16.5 32.5c0 4 3.5 7.16699 10.5 9.5s14.5 4.16602 22.5 5.49902c4.66699 0.666992 9 1.16699 13 1.5s7.66699 0.5 11 0.5
c9.33301 0 22.833 -10.167 40.5 -30.5s52.834 -68.833 105.501 -145.5c10.667 -15.333 23.834 -32.833 39.501 -52.5s32.5 -39.5 50.5 -59.5l41 -43c14 -14 28.333 -27.333 43 -40c27.333 -25.333 54.166 -46.166 80.499 -62.499s49.166 -24.5 68.499 -24.5
c20.667 0 44.667 5.16699 72 15.5s55 24.833 83 43.5c46 30 89.167 69.667 129.5 119s67.833 104.333 82.5 165c2 8 4 15 6 21s4 10.667 6 14c1.33301 3.33301 3 5.83301 5 7.5s4 2.5 6 2.5s5 -0.333008 9 -1s8 -2 12 -4c6 -2 11.5 -4.66699 16.5 -8s7.5 -7.33301 7.5 -12
c0 -5.33301 -1.33301 -15.166 -4 -29.499s-5.66699 -32.5 -9 -54.5c-4 -22 -7.33301 -47.833 -10 -77.5s-4 -63.167 -4 -100.5c0 -24 2.83301 -45.833 8.5 -65.5s12.167 -37.167 19.5 -52.5c6.66699 -15.333 12.834 -28.666 18.501 -39.999s8.5 -20.666 8.5 -27.999
c0 -2 -1 -4 -3 -6s-4.66699 -4.33301 -8 -7l-10.5 -6c-3.66699 -2 -7.16699 -3.66699 -10.5 -5c-5.33301 -2.66699 -10.333 -4.66699 -15 -6s-8.66699 -2 -12 -2c-8 0 -14.167 5.33301 -18.5 16s-7.5 25.334 -9.5 44.001c-1.33301 12 -3 25.167 -5 39.5l-6 44.5l-2 13.5
l-2 12.5c-2.66699 21.333 -5.5 40.666 -8.5 57.999l-6.5 38l-62 -56c-23.333 -20.667 -47.333 -39.667 -72 -57s-49.667 -32 -75 -44s-50.333 -21.333 -75 -28s-48.667 -10 -72 -10c-4.66699 0 -9.5 0.166992 -14.5 0.5s-10.167 0.833008 -15.5 1.5c-30 4 -61.333 16 -94 36
s-72 54.667 -118 104v0z" />
    <glyph glyph-name="N" unicode="N" horiz-adv-x="926" 
d="M182 307c0 31.333 -4.16406 57.9961 -12.4971 79.9961s-22.166 43.333 -41.499 64c-32.667 36 -53.5 59.667 -62.5 71s-13.5 20 -13.5 26c0 1.33301 0.333008 3 1 5s1.66699 4 3 6c3.33301 4.66699 8.66602 9.16699 15.999 13.5s15.666 6.5 24.999 6.5
c3.33301 0 9.83301 -3.5 19.5 -10.5s33.834 -29.167 72.501 -66.5l151.5 -138.5c45.667 -39.667 90.5 -75.5 134.5 -107.5c32 -24 64.667 -46.333 98 -67s68.333 -41 105 -61l29 -16l30 -16c2 17.333 3.5 32.333 4.5 45s1.83301 25 2.5 37c0 8 0.166992 16.333 0.5 25
s0.5 18 0.5 28c0 34.667 -0.333008 66.834 -1 96.501s-1.66699 59.167 -3 88.5c-0.666992 8 -1.16699 16 -1.5 24s-0.5 16 -0.5 24c-0.666992 13.333 -2.5 23.833 -5.5 31.5s-6.16699 14.167 -9.5 19.5c-2 2.66699 -4 5.16699 -6 7.5s-3.66699 4.5 -5 6.5
s-2.5 4.33301 -3.5 7s-1.5 5.33398 -1.5 8.00098c0 7.33301 4.33301 13.333 13 18s18.334 8 29.001 10c6 1.33301 11.667 2.33301 17 3s10 1 14 1h4.5h4.5c6 -1.33301 11.5 -3.33301 16.5 -6s7.5 -7.33398 7.5 -14.001c0 -5.33301 -0.833008 -12.666 -2.5 -21.999
s-3.5 -25.666 -5.5 -48.999c-2.66699 -24 -4.83398 -57.833 -6.50098 -101.5s-2.5 -102.834 -2.5 -177.501c0 -22.667 0.5 -42.5 1.5 -59.5s2.5 -31.833 4.5 -44.5l3.5 -35c1 -10 1.5 -19.667 1.5 -29c0 -10.667 -3.83301 -19.667 -11.5 -27s-15.834 -13 -24.501 -17
c-6 -2.66699 -11.667 -4.66699 -17 -6s-9.66602 -2 -12.999 -2c-2.66699 0 -4.83398 1 -6.50098 3s-3.5 4.66699 -5.5 8s-4.33301 7.83301 -7 13.5s-5.66699 11.5 -9 17.5s-7.5 12 -12.5 18s-11.167 11 -18.5 15c-131.333 75.333 -224 130.166 -278 164.499
s-96 64.5 -126 90.5l-11.5 9.5c-3.66699 3 -7.16699 6.16699 -10.5 9.5c-2.66699 2.66699 -5.5 5.33398 -8.5 8.00098s-5.83301 5.33398 -8.5 8.00098c-0.666992 -4.66699 -1.33398 -10.167 -2.00098 -16.5s-1 -13.166 -1 -20.499l-4.5 -67
c-1.66699 -25.333 -3.83398 -51.333 -6.50098 -78c-1.33301 -23.333 -3.33301 -46.333 -6 -69s-6 -43.334 -10 -62.001c-2.66699 -14 -7.33398 -24.667 -14.001 -32s-13.667 -11.666 -21 -12.999h-2h-2c-2 0 -4.5 0.333008 -7.5 1s-6.16699 1.66699 -9.5 3
c-6 2 -11.667 5.16699 -17 9.5s-8 9.16602 -8 14.499c0 6.66699 2.83301 16.834 8.5 30.501s11.834 32.167 18.501 55.5c6 22.667 11.833 50.5 17.5 83.5s8.5 71.833 8.5 116.5v0z" />
    <glyph glyph-name="O" unicode="O" horiz-adv-x="630" 
d="M88 273c0 10 0.333008 20 1 30s2 20 4 30c9.33301 56.667 34 108.834 74 156.501s99 71.5 177 71.5c53.333 0 99.666 -21.167 138.999 -63.5s59 -109.833 59 -202.5c0 -88.667 -25.167 -156.334 -75.5 -203.001s-106.166 -70 -167.499 -70
c-4 0 -7.83301 0.166992 -11.5 0.5s-7.5 0.5 -11.5 0.5c-47.333 6 -90.5 30 -129.5 72s-58.5 101.333 -58.5 178v0zM160 289c0 -10 1.50098 -23.498 4.50098 -40.498s8.5 -35.167 16.5 -54.5c10.667 -26.667 27.5 -51.334 50.5 -74.001s54.167 -34 93.5 -34
c8 0 16.833 0.833008 26.5 2.5s19.5 4.5 29.5 8.5c23.333 10 45 29.167 65 57.5s30 71.166 30 128.499c0 82 -15.5 139.167 -46.5 171.5s-65.833 48.5 -104.5 48.5c-52.667 0 -93.334 -21.333 -122.001 -64s-43 -92.667 -43 -150v0z" />
    <glyph glyph-name="P" unicode="P" horiz-adv-x="519" 
d="M137 69l0.00292969 148.996c0 64 -0.833008 120.333 -2.5 169s-4.16699 84.334 -7.5 107.001c-0.666992 4 -1.66699 7.66699 -3 11s-4 6 -8 8c-4.66699 2.66699 -8.33398 5.33398 -11.001 8.00098s-4 6 -4 10c0 10.667 8 21 24 31s33.667 18.333 53 25
c13.333 4.66699 25.833 8.33398 37.5 11.001s21.167 4 28.5 4c10 0 20.833 -0.666992 32.5 -2s23.5 -3.33301 35.5 -6c9.33301 -2 18.666 -4.5 27.999 -7.5s18.333 -6.16699 27 -9.5l4 -2l4 -2c10 -6 19.667 -14.667 29 -26s17 -23.333 23 -36
c4 -8 7.16699 -15.833 9.5 -23.5s3.5 -14.5 3.5 -20.5c0 -22.667 -1.5 -42.167 -4.5 -58.5s-7.16699 -28.833 -12.5 -37.5c-3.33301 -5.33301 -7.5 -11.166 -12.5 -17.499l-15.5 -19.5l-14 -15.5l-14 -14.5c-12 -11.333 -23.5 -21 -34.5 -29s-19.5 -12 -25.5 -12
c-4 0 -8.5 0.666992 -13.5 2s-9.83301 3 -14.5 5c-4 2 -8 3.83301 -12 5.5s-7.66699 3.5 -11 5.5c-4.66699 2.66699 -8.5 5.33398 -11.5 8.00098s-4.5 5 -4.5 7c0 3.33301 1.66699 6.16602 5 8.49902s9.66602 4.5 18.999 6.5c31.333 6.66699 56.5 20.667 75.5 42
s28.5 45 28.5 71c0 6.66699 -0.5 14.667 -1.5 24s-2.83301 19 -5.5 29c-5.33301 18 -13.666 34.667 -24.999 50s-27 23 -47 23c-10.667 0 -20.5 -1 -29.5 -3s-18.167 -5 -27.5 -9l-10.5 -6l-11.5 -6c-0.666992 -3.33301 -1.16699 -6.83301 -1.5 -10.5s-0.5 -7.5 -0.5 -11.5
c-1.33301 -11.333 -2.5 -23.666 -3.5 -36.999s-1.83301 -27 -2.5 -41l-2 -45c-0.666992 -14.667 -1 -28 -1 -40v-264c0 -36.667 -4.16699 -63.667 -12.5 -81s-22.833 -26 -43.5 -26c-5.33301 0 -9.5 1.16699 -12.5 3.5s-4.5 6.16602 -4.5 11.499v0v1
c0 2.66699 0.666992 5.5 2 8.5s2.66602 7.16699 3.99902 12.5c1.33301 6 2.5 13.833 3.5 23.5s1.5 22.5 1.5 38.5v0z" />
    <glyph glyph-name="Q" unicode="Q" horiz-adv-x="685" 
d="M581 396c0 -45.333 -8.83691 -85.499 -26.5039 -120.499s-37.167 -64.5 -58.5 -88.5c-20 -22 -38.5 -38.833 -55.5 -50.5s-26.833 -17.5 -29.5 -17.5c-1.33301 0 -4.16602 0.166992 -8.49902 0.5s-9.16602 1.16602 -14.499 2.49902s-10.5 3.16602 -15.5 5.49902
s-7.5 5.5 -7.5 9.5v1v1c0.666992 1.33301 2.5 3.16602 5.5 5.49902s8.16699 5.83301 15.5 10.5c31.333 20.667 55.5 43 72.5 67s28.833 48.333 35.5 73c4 14 6.83301 27.667 8.5 41s2.5 26.666 2.5 39.999c0 43.333 -11.833 81.166 -35.5 113.499s-58.167 48.5 -103.5 48.5
c-12 0 -25.5 -2 -40.5 -6s-30.5 -10 -46.5 -18c-31.333 -15.333 -60 -38.833 -86 -70.5s-39 -71.5 -39 -119.5c0 -22 9.83301 -54.5 29.5 -97.5s59.834 -88.167 120.501 -135.5c32.667 -26 72.667 -51.333 120 -76s103.333 -47.667 168 -69
c28 -9.33301 50.5 -16.166 67.5 -20.499s32.833 -7.5 47.5 -9.5c8 -0.666992 16.333 -1.16699 25 -1.5s18 -0.5 28 -0.5c25.333 0 45.333 1 60 3s25.667 4.33301 33 7c3.33301 0.666992 6.16602 1.33398 8.49902 2.00098s4.16602 1 5.49902 1c4 0 7 -0.833008 9 -2.5
s3.66699 -3.83398 5 -6.50098c0 -0.666992 0.166992 -1.5 0.5 -2.5s0.5 -1.83301 0.5 -2.5c0 -1.33301 -0.666992 -3.16602 -2 -5.49902l-5 -8.5c-1.33301 -2 -3 -3.83301 -5 -5.5s-4 -3.16699 -6 -4.5l-48 -31c-3.33301 -1.33301 -6.16602 -2.66602 -8.49902 -3.99902
s-4.5 -2.33301 -6.5 -3c-2 0 -4 -0.166992 -6 -0.5s-4 -0.5 -6 -0.5c-23.333 0 -58.666 6 -105.999 18s-97.333 26.667 -150 44c-24.667 8 -49 16.667 -73 26l-69 28c-17.333 7.33301 -33.666 14.666 -48.999 21.999s-29 14.333 -41 21
c-35.333 21.333 -66.333 44.666 -93 69.999s-49 51.333 -67 78c-17.333 25.333 -30.5 50.5 -39.5 75.5s-13.5 47.833 -13.5 68.5c0 8.66699 0.5 17.334 1.5 26.001s2.5 17.334 4.5 26.001c12.667 60.667 43.667 116.334 93 167.001s105.666 76 168.999 76
c56.667 0 100.667 -11.333 132 -34s54.333 -47.667 69 -75c8.66699 -17.333 14.834 -34.333 18.501 -51s5.5 -30 5.5 -40v0z" />
    <glyph glyph-name="R" unicode="R" horiz-adv-x="556" 
d="M303 617c41.333 0 72.166 -12.998 92.499 -38.998s30.5 -58 30.5 -96c0 -35.333 -6.33301 -64.333 -19 -87s-26.334 -39.667 -41.001 -51c-3.33301 -2.66699 -6.66602 -5 -9.99902 -7s-6.66602 -3.66699 -9.99902 -5l-71 -32v-2
c7.33301 -0.666992 13.666 -2.16699 18.999 -4.5s10 -6.16602 14 -11.499c55.333 -68.667 106 -122.5 152 -161.5s69 -61.5 69 -67.5c0 -2 -0.166992 -3.66699 -0.5 -5s-0.5 -2.66602 -0.5 -3.99902c-0.666992 -2.66699 -2 -5.33398 -4 -8.00098s-4.66699 -5.66699 -8 -9
l-10.5 -10.5c-2.33301 -2.33301 -4.83301 -4.16602 -7.5 -5.49902c-0.666992 0 -1.5 -0.166992 -2.5 -0.5s-1.83301 -0.5 -2.5 -0.5h-16c-2.66699 0 -5.16699 0.166992 -7.5 0.5s-4.5 1.16602 -6.5 2.49902c-2.66699 0.666992 -5.16699 2 -7.5 4s-4.83301 4.66699 -7.5 8
l-33.5 41c-13 16 -31.167 36.667 -54.5 62l-108 117c-6.66699 7.33301 -13.5 12.166 -20.5 14.499s-14.833 3.5 -23.5 3.5c-0.666992 -10.667 -1.16699 -22.334 -1.5 -35.001s-0.5 -27.334 -0.5 -44.001v-163c0 -5.33301 -1.33301 -10.166 -4 -14.499
s-7.66699 -6.5 -15 -6.5c-3.33301 0 -8.16602 0.666992 -14.499 2s-12.833 3 -19.5 5c-9.33301 3.33301 -18.166 7.5 -26.499 12.5s-12.5 10.5 -12.5 16.5c0 3.33301 1.83301 7.83301 5.5 13.5s8.16699 11.834 13.5 18.501c2.66699 3.33301 5 16.833 7 40.5
s3.33301 49.167 4 76.5c0.666992 21.333 1.16699 41.666 1.5 60.999s0.5 34 0.5 44v26.5v27.5l-2 79.5c-0.666992 25.667 -2 47.5 -4 65.5c-0.666992 4.66699 -2.16699 7.83398 -4.5 9.50098s-4.83301 3.16699 -7.5 4.5h-0.5c-0.333008 0 -0.5 0.333008 -0.5 1
c-4 1.33301 -7.33301 3.33301 -10 6s-4 7.66699 -4 15c0 5.33301 1 10.166 3 14.499s5.33301 8.16602 10 11.499l22 14c7.33301 4.66699 14.666 8.66699 21.999 12c27.333 14 53.5 24.167 78.5 30.5s43.167 9.5 54.5 9.5v0zM208 372.002l-0.00292969 -43.002
c1.33301 -2.66699 3.5 -4.66699 6.5 -6s6.83301 -2 11.5 -2c2 0 9.33301 3 22 9s26.667 14.667 42 26c16 12.667 30.667 28.334 44 47.001s20 40.334 20 65.001c0 33.333 -6.66699 56.833 -20 70.5s-29.333 20.5 -48 20.5c-3.33301 0 -6.66602 -0.166992 -9.99902 -0.5
s-6.66602 -1.16602 -9.99902 -2.49902c-8.66699 -2 -17.167 -5.5 -25.5 -10.5s-15.166 -11.167 -20.499 -18.5c-2.66699 -9.33301 -5 -24.333 -7 -45s-3.33301 -42.334 -4 -65.001c-0.666992 -8 -1 -15.667 -1 -23v-22v0z" />
    <glyph glyph-name="S" unicode="S" horiz-adv-x="389" 
d="M81 41c0 6 0.998047 10.5078 2.99805 13.5078s4.33301 4.83301 7 5.5c0.666992 0.666992 1.33398 1 2.00098 1h2c4.66699 0 9.83398 -1 15.501 -3l17.5 -6c6.66699 -2.66699 13.834 -5 21.501 -7s16.167 -3 25.5 -3c17.333 0 31.5 5.83301 42.5 17.5
s16.833 24.5 17.5 38.5v1.5v1.5c0 20 -6.66699 45 -20 75s-27.666 60.667 -42.999 92c-16 32 -30.667 62.833 -44 92.5s-20 54.5 -20 74.5c0 9.33301 3 22.166 9 38.499s14.333 33.166 25 50.499c15.333 25.333 34.333 48.666 57 69.999s46.667 32 72 32
c4 0 9.33301 -0.333008 16 -1s13.667 -1.66699 21 -3c10.667 -2.66699 20.5 -6 29.5 -10s13.5 -9 13.5 -15c0 -12.667 -2.5 -21.167 -7.5 -25.5s-16.833 -6.83301 -35.5 -7.5c-44 -0.666992 -75.667 -10.834 -95 -30.501s-29 -43.167 -29 -70.5
c0 -17.333 5.66699 -39.166 17 -65.499l38 -84.5l17 -41c6 -14 11.333 -27.667 16 -41c6 -18 11 -35.833 15 -53.5s6 -34.834 6 -51.501c0 -4.66699 -1.33301 -14.334 -4 -29.001s-7.66699 -30.334 -15 -47.001c-8.66699 -19.333 -20.834 -37 -36.501 -53
s-36.5 -24 -62.5 -24c-4.66699 0 -10.5 0.666992 -17.5 2s-14.167 3 -21.5 5l-21.5 8c-7 2.66699 -12.833 5.66699 -17.5 9c-2 1.33301 -3.83301 2.66602 -5.5 3.99902s-2.83398 2.66602 -3.50098 3.99902l-2 6l-2 6l-2 12c-0.666992 4 -1 8 -1 12v0z" />
    <glyph glyph-name="T" unicode="T" horiz-adv-x="500" 
d="M193 501l-114.001 0.00195312c-2.66699 0 -5.66699 -0.166992 -9 -0.5s-6.66602 -0.5 -9.99902 -0.5c-2.66699 0 -5.66699 -0.166992 -9 -0.5s-6.66602 -0.5 -9.99902 -0.5c-6.66699 0 -12 3.16699 -16 9.5s-6.33301 13.166 -7 20.499
c-0.666992 1.33301 -1 2.66602 -1 3.99902v4c0 2 0.5 4 1.5 6s2.16699 4 3.5 6c2 2.66699 4.16699 5.16699 6.5 7.5s4.83301 4.5 7.5 6.5c2 1.33301 4 2.33301 6 3s3.66699 1 5 1c7.33301 0 15.833 -0.333008 25.5 -1s21.834 -1.66699 36.501 -3
c14.667 -0.666992 32 -1.5 52 -2.5s44 -1.5 72 -1.5c18 0 36.167 0.5 54.5 1.5s36.833 1.83301 55.5 2.5c18.667 1.33301 37.167 2.33301 55.5 3s36.5 1 54.5 1c5.33301 0 9.16602 -1.16699 11.499 -3.5s3.5 -5.83301 3.5 -10.5c0 -2 -1 -4.83301 -3 -8.5
s-4.66699 -7.16699 -8 -10.5c-3.33301 -4 -6.83301 -7.5 -10.5 -10.5s-7.16699 -5.5 -10.5 -7.5l-7 -3.5c-2 -1 -4 -1.5 -6 -1.5c-9.33301 -0.666992 -20 -1.33398 -32 -2.00098l-36 -2c-14.667 -0.666992 -28.667 -1.16699 -42 -1.5s-25 -0.5 -35 -0.5
c-6.66699 -38.667 -11.667 -85.834 -15 -141.501s-5 -131.167 -5 -226.5v-5.5v-4.5c1.33301 -19.333 8.16602 -37.166 20.499 -53.499s34.5 -24.5 66.5 -24.5c2 0 4.33301 0.166992 7 0.5s5.33398 0.5 8.00098 0.5h1.5c0.333008 0 0.5 0.333008 0.5 1
c3.33301 0 6.33301 0.166992 9 0.5s5 0.5 7 0.5c3.33301 0 5.66602 -1.33301 6.99902 -4s2.33301 -6 3 -10v-3.5v-3.5c0 -4.66699 -0.666992 -9 -2 -13s-3.66602 -7.33301 -6.99902 -10c-4 -3.33301 -9.5 -6.5 -16.5 -9.5s-14.167 -5.83301 -21.5 -8.5
c-4.66699 -1.33301 -9.33398 -2.33301 -14.001 -3s-9 -1 -13 -1c-30 0 -55.5 8.33301 -76.5 25s-35.833 35 -44.5 55c-2.66699 6 -4.66699 12.167 -6 18.5s-2 12.166 -2 17.499c0 6.66699 0.833008 15.334 2.5 26.001s3.5 24.667 5.5 42
c1.33301 17.333 2.83301 38.666 4.5 63.999s2.5 55.666 2.5 90.999v44c0 14.667 -0.333008 29.334 -1 44.001s-1.5 29.334 -2.5 44.001s-2.16699 29.334 -3.5 44.001v0z" />
    <glyph glyph-name="U" unicode="U" horiz-adv-x="907" 
d="M21 525c0 6.66699 1.83301 12.332 5.5 16.999s9.5 8.66699 17.5 12c1.33301 0.666992 3.33301 1.5 6 2.5s5.33398 1.83301 8.00098 2.5l9.5 2.5c3.66699 1 7.16699 1.83301 10.5 2.5c6.66699 1.33301 13 2.5 19 3.5s10.667 1.5 14 1.5c5.33301 0 9.83301 -2 13.5 -6
s5.5 -10.333 5.5 -19c0 -4.66699 -0.333008 -10 -1 -16s-1 -12.333 -1 -19l-2 -22.5c-0.666992 -7.66699 -1 -15.5 -1 -23.5c0 -18 8 -42.333 24 -73s36.667 -62.334 62 -95.001c22.667 -29.333 48 -57.666 76 -84.999s56.667 -50.666 86 -69.999
c20 -12.667 39.833 -22.834 59.5 -30.501s38.5 -11.5 56.5 -11.5c59.333 0 108.5 20.833 147.5 62.5s69.5 87.5 91.5 137.5c16 37.333 27.833 72.833 35.5 106.5s11.5 58.834 11.5 75.501c0 22 1 39.167 3 51.5s9 18.5 21 18.5c4.66699 0 11.334 -1.66699 20.001 -5
s19.667 -8.33301 33 -15c0.666992 0 1.16699 -0.166992 1.5 -0.5l1.5 -1.5c4.66699 -2.66699 8.16699 -5.66699 10.5 -9s3.5 -8.33301 3.5 -15c0 -6 -8.33301 -33 -25 -81s-41.334 -100 -74.001 -156c-34.667 -60 -78.334 -114.833 -131.001 -164.5s-114 -74.5 -184 -74.5
c-23.333 0 -49.166 7.66699 -77.499 23s-56.833 35.666 -85.5 60.999s-56.834 53.833 -84.501 85.5s-53.5 64.167 -77.5 97.5c-32 45.333 -58.167 88.833 -78.5 130.5s-30.5 74.834 -30.5 99.501v0z" />
    <glyph glyph-name="V" unicode="V" horiz-adv-x="852" 
d="M2 543c0 3.33301 1.33203 6.83789 3.99902 10.5049s6 7.5 10 11.5c4 3.33301 8.5 6.66602 13.5 9.99902s10.167 6.33301 15.5 9c8.66699 5.33301 16.834 9.66602 24.501 12.999s12.834 5 15.501 5c5.33301 0 9.5 -1.83301 12.5 -5.5s4.5 -8.83398 4.5 -15.501
c0 -17.333 19.667 -50 59 -98s83.333 -99 132 -153c2.66699 -2.66699 5.16699 -5.5 7.5 -8.5s4.83301 -5.83301 7.5 -8.5l116 -128c36.667 -40 62.667 -70.667 78 -92c12.667 10 29.167 26.833 49.5 50.5s41.5 51.167 63.5 82.5c15.333 21.333 30.333 44.166 45 68.499
s28 48.833 40 73.5c13.333 26.667 24.5 53 33.5 79s14.5 50.667 16.5 74c1.33301 11.333 3.5 18.5 6.5 21.5s7.16699 4.5 12.5 4.5c4 0 9.16699 -1 15.5 -3s13.166 -4.33301 20.499 -7c6 -2.66699 11.833 -5.66699 17.5 -9s10.5 -6.66602 14.5 -9.99902
c3.33301 -2 5.83301 -4.33301 7.5 -7s2.5 -5 2.5 -7c0 -10.667 -15.167 -40.667 -45.5 -90s-65.5 -102.666 -105.5 -159.999l-14 -21l-14 -20c-40 -56 -77.167 -105.5 -111.5 -148.5s-55.833 -64.5 -64.5 -64.5c-2 0 -4.33301 0.5 -7 1.5l-9 3.5c-3.33301 2 -6.33301 4 -9 6
s-5 4 -7 6c-1.33301 1.33301 -2.33301 2.66602 -3 3.99902s-1 2.66602 -1 3.99902v0.5v1.5c-0.666992 5.33301 -4 12.333 -10 21s-18.667 25 -38 49c-153.333 188.667 -259 305.667 -317 351s-87.667 76.666 -89 93.999v0.5v0.5v0z" />
    <glyph glyph-name="W" unicode="W" horiz-adv-x="944" 
d="M15 550c0 2.66699 1.83301 6.00195 5.5 10.002s8.5 8.33301 14.5 13c2.66699 2 5.83398 4.16699 9.50098 6.5s7.16699 4.83301 10.5 7.5c7.33301 4 14.333 7.5 21 10.5s11.667 4.5 15 4.5c6.66699 0 11.334 -1.5 14.001 -4.5s4 -7.16699 4 -12.5
c0 -16 8.16699 -47.5 24.5 -94.5s35.166 -97.167 56.499 -150.5c2.66699 -7.33301 5.5 -14.666 8.5 -21.999l9.5 -23l49.5 -113.5c15.667 -35 27.834 -60.833 36.501 -77.5l36 54.5l53 80.5c2 2.66699 3.83301 5.33398 5.5 8.00098s3.5 5.33398 5.5 8.00098
c18 27.333 34.5 53.833 49.5 79.5s25.5 45.834 31.5 60.501c2.66699 7.33301 5.16699 13 7.5 17s4.83301 6.66699 7.5 8c1.33301 2 2.83301 3.16699 4.5 3.5s3.5 0.5 5.5 0.5s4.5 -0.333008 7.5 -1s6.16699 -1.33398 9.5 -2.00098c5.33301 -2 10 -4.16699 14 -6.5
s6 -4.83301 6 -7.5c0 -10.667 9.33301 -41.334 28 -92.001s49.334 -117.667 92.001 -201c8 19.333 21 46.833 39 82.5l58 112.5l70.5 139c21.667 43.333 32.5 70.333 32.5 81c0 12 1.66699 20 5 24s8 6 14 6c2.66699 0 6.83398 -1.16699 12.501 -3.5s11.5 -5.5 17.5 -9.5
l7 -4.5l7 -4.5c5.33301 -4 9.83301 -7.83301 13.5 -11.5s5.5 -6.5 5.5 -8.5c0 -8.66699 -7 -22.334 -21 -41.001s-38 -57.334 -72 -116.001c-4.66699 -7.33301 -9.16699 -14.833 -13.5 -22.5s-8.5 -15.5 -12.5 -23.5c-36.667 -65.333 -68.834 -126.666 -96.501 -183.999
s-42.5 -93 -44.5 -107c-0.666992 -6.66699 -2.5 -12.167 -5.5 -16.5s-6.5 -6.5 -10.5 -6.5c-2.66699 0 -6.33398 0.166992 -11.001 0.5s-9.66699 1.16602 -15 2.49902c-6 1.33301 -11.833 3.66602 -17.5 6.99902s-9.5 8 -11.5 14c-4 14 -9.66699 32.333 -17 55
s-15.666 46 -24.999 70c-7.33301 19.333 -15.333 38.333 -24 57s-17.334 35 -26.001 49c-4 7.33301 -8.16699 13.666 -12.5 18.999s-8.5 10 -12.5 14l-33 -40.5c-12 -15 -24 -30.833 -36 -47.5l-12 -16c-4 -5.33301 -7.66699 -11 -11 -17
c-22.667 -30.667 -42.334 -60 -59.001 -88s-26 -48.333 -28 -61c-0.666992 -4 -4.33398 -7.83301 -11.001 -11.5s-14 -6.5 -22 -8.5c-5.33301 -1.33301 -10.333 -2.5 -15 -3.5s-8.66699 -1.5 -12 -1.5c-6.66699 0 -11.5 1.66699 -14.5 5s-4.5 10.333 -4.5 21
c0 15.333 -10 54 -30 116s-68.333 173 -145 333c-11.333 24 -21.333 41.5 -30 52.5s-13 20.833 -13 29.5v0z" />
    <glyph glyph-name="X" unicode="X" horiz-adv-x="630" 
d="M91 18c0 2.66699 0.5 4.83105 1.5 6.49805s2.5 3.5 4.5 5.5c1.33301 1.33301 3 2.66602 5 3.99902s4.33301 2.66602 7 3.99902c23.333 12.667 51 34.834 83 66.501s67.333 69.167 106 112.5c-186 140 -298 230.667 -336 272s-57 68 -57 80
c0 6.66699 5.33301 12.5 16 17.5s22.334 8.83301 35.001 11.5c6 1.33301 12 2.33301 18 3s11.333 1 16 1c15.333 0 25.166 -2.33301 29.499 -7s6.5 -13.667 6.5 -27v-3.5v-2.5c2 -21.333 21.167 -49.833 57.5 -85.5s121.833 -106.834 256.5 -213.501
c9.33301 10 19.166 21.167 29.499 33.5l31.5 37.5l14 17.5c4.66699 5.66699 9 11.167 13 16.5c25.333 32 47.5 62.333 66.5 91s28.5 48.667 28.5 60c0 6.66699 5.66699 11.5 17 14.5s24 5.16699 38 6.5c10 0.666992 19.667 1.16699 29 1.5s16.333 0.5 21 0.5h2h2
c4.66699 -0.666992 8.83398 -2 12.501 -4s5.5 -5.66699 5.5 -11c0 -2.66699 -1.83301 -6.5 -5.5 -11.5s-8.5 -10.167 -14.5 -15.5c-1.33301 -1.33301 -2.83301 -2.66602 -4.5 -3.99902s-3.5 -2.66602 -5.5 -3.99902c-4 -2.66699 -19 -17.334 -45 -44.001l-84 -88
c-1.33301 -0.666992 -2.5 -1.66699 -3.5 -3s-2.16699 -2.33301 -3.5 -3l-63 -67.5c-20 -21.667 -35.333 -38.834 -46 -51.501l68 -52c53.333 -40.667 98.5 -71.5 135.5 -92.5s59.167 -32.167 66.5 -33.5c3.33301 -0.666992 6.16602 -1.16699 8.49902 -1.5
s4.16602 -0.5 5.49902 -0.5c4 -0.666992 6.83301 -1.5 8.5 -2.5s2.5 -2.83301 2.5 -5.5s-0.833008 -5.66699 -2.5 -9s-3.83398 -6.66602 -6.50098 -9.99902c-3.33301 -4 -7.16602 -8 -11.499 -12s-8.83301 -7.66699 -13.5 -11c-6 -3.33301 -11.5 -6.16602 -16.5 -8.49902
s-9.16699 -3.5 -12.5 -3.5c-6 0 -19.167 6.83301 -39.5 20.5s-44.166 30.834 -71.499 51.501l-162 124c-61.333 -69.333 -102.166 -119.666 -122.499 -150.999s-36.5 -48.333 -48.5 -51c-1.33301 -0.666992 -2.33301 -1 -3 -1h-2c-2.66699 0 -7 0.666992 -13 2
s-12.333 3.33301 -19 6c-8.66699 3.33301 -16.667 7 -24 11s-11 8.33301 -11 13v0z" />
    <glyph glyph-name="Y" unicode="Y" horiz-adv-x="852" 
d="M765 536c0 1.33301 -0.166016 2.66895 -0.499023 4.00195s-0.5 3 -0.5 5c0 1.33301 -0.166992 2.66602 -0.5 3.99902s-0.5 2.66602 -0.5 3.99902c0 4.66699 1.33301 7.83398 4 9.50098s5.66699 2.5 9 2.5s8 -0.666992 14 -2s12.333 -3 19 -5
c6.66699 -2.66699 13 -5.5 19 -8.5s10.667 -5.83301 14 -8.5c1.33301 -1.33301 2.5 -2.66602 3.5 -3.99902s1.5 -2.66602 1.5 -3.99902c0 -10 -13.5 -36.5 -40.5 -79.5l-89.5 -138.5c-0.666992 -0.666992 -1.16699 -1.5 -1.5 -2.5s-0.833008 -1.83301 -1.5 -2.5l-58 -87
c-18.667 -28 -34.334 -52.333 -47.001 -73c-8.66699 -14.667 -15.5 -32.167 -20.5 -52.5s-7.5 -53.166 -7.5 -98.499c0 -4 0.166992 -8.16699 0.5 -12.5s0.5 -8.5 0.5 -12.5c0 -4.66699 0.166992 -9.33398 0.5 -14.001s0.5 -9.33398 0.5 -14.001
c0 -5.33301 -4.16699 -9.83301 -12.5 -13.5s-17.5 -6.83398 -27.5 -9.50098c-9.33301 -2 -17.833 -3.5 -25.5 -4.5s-12.5 -1.5 -14.5 -1.5c-2.66699 0 -4.66699 1 -6 3s-2 4.66699 -2 8s0.333008 6.5 1 9.5s1.33398 5.83301 2.00098 8.5
c1.33301 3.33301 2.83301 6.83301 4.5 10.5s3.16699 7.5 4.5 11.5c3.33301 7.33301 6.16602 16.333 8.49902 27s3.5 24.667 3.5 42c0 4.66699 -0.166992 9.16699 -0.5 13.5s-0.833008 8.5 -1.5 12.5c-5.33301 33.333 -37.833 77.333 -97.5 132s-193.5 162 -401.5 322
c-6.66699 5.33301 -11.167 11 -13.5 17s-3.5 12.667 -3.5 20c0 2 1.5 5.16699 4.5 9.5s6.83301 8.5 11.5 12.5c5.33301 5.33301 11.666 10.166 18.999 14.499s14.666 7.5 21.999 9.5c2 0.666992 4.16699 1.16699 6.5 1.5s4.5 0.5 6.5 0.5
c2.66699 0 4.83398 -1.16699 6.50098 -3.5s3.5 -5.16602 5.5 -8.49902c0.666992 -3.33301 1.83398 -6.83301 3.50098 -10.5s3.5 -7.5 5.5 -11.5c1.33301 -2.66699 3 -5.16699 5 -7.5s4 -4.5 6 -6.5c114 -108.667 212.333 -194.834 295 -258.501s134 -113.5 154 -149.5
c12 25.333 29.167 56.5 51.5 93.5l70.5 114.5c0.666992 2 1.5 3.66699 2.5 5s1.83301 3 2.5 5l34.5 55.5l31.5 53.5c7.33301 12.667 12.5 24.5 15.5 35.5s4.5 20.167 4.5 27.5v0z" />
    <glyph glyph-name="Z" unicode="Z" horiz-adv-x="685" 
d="M29 100c0 9.33301 0.996094 17.6699 2.99609 25.0029s5.33301 14 10 20c3.33301 4.66699 7.5 9.5 12.5 14.5s10.833 10.5 17.5 16.5c14.667 12 37.167 32.5 67.5 61.5l96.5 93.5c2 2 3.83301 4 5.5 6s3.5 3.66699 5.5 5l93.5 94.5c29 29.667 49.833 51.834 62.5 66.501
c-14 0.666992 -28.167 1.5 -42.5 2.5s-29.166 1.83301 -44.499 2.5c-7.33301 0.666992 -14.666 1.16699 -21.999 1.5s-14.666 0.833008 -21.999 1.5l-72 5.5c-22.667 1.66699 -42 2.83398 -58 3.50098c-7.33301 0.666992 -12.833 3.33398 -16.5 8.00098s-6.16699 10 -7.5 16
v2.5v2.5c0 2.66699 0.333008 5.5 1 8.5s1.33398 6.16699 2.00098 9.5c2.66699 8.66699 7.16699 16.667 13.5 24s13.5 11 21.5 11c5.33301 0 11.333 -1.5 18 -4.5l21 -9.5l12 -6c4 -2 8.33301 -3.66699 13 -5c2 -0.666992 4.33301 -1.33398 7 -2.00098s5.33398 -1 8.00098 -1
c5.33301 -0.666992 10.5 -1.16699 15.5 -1.5s10.167 -0.5 15.5 -0.5c40.667 -3.33301 78.834 -6 114.501 -8s58.5 -3 68.5 -3c2.66699 0 5.33398 0.5 8.00098 1.5l9 3.5c2.66699 0.666992 5.5 1.5 8.5 2.5s5.83301 1.5 8.5 1.5c1.33301 0 2.5 -0.5 3.5 -1.5l3.5 -3.5
c2 -3.33301 4.16699 -7.5 6.5 -12.5s3.83301 -10.167 4.5 -15.5c0 -1.33301 0.166992 -3 0.5 -5s0.5 -3.66699 0.5 -5c0 -3.33301 -4 -9.66602 -12 -18.999s-27.333 -29.666 -58 -60.999l-289 -294c-10 -10 -17 -17.167 -21 -21.5s-6.33301 -8.16602 -7 -11.499v-1.5v-1.5
c0 -7.33301 10.5 -16.5 31.5 -27.5s47.5 -22.5 79.5 -34.5l68.5 -22.5c24.333 -7.66699 49.166 -14.834 74.499 -21.501c35.333 -8 70 -15 104 -21s63.333 -9 88 -9c14 0 26.167 1.16699 36.5 3.5s19.5 6.16602 27.5 11.499c2 1.33301 4.16699 2.5 6.5 3.5
s4.5 2.16699 6.5 3.5c4 2 7.5 3.5 10.5 4.5s5.83301 1.5 8.5 1.5c1.33301 0 2.66602 -0.166992 3.99902 -0.5s3 -0.833008 5 -1.5c2.66699 -1.33301 5.33398 -2.83301 8.00098 -4.5s4 -3.83398 4 -6.50098c0 -2 -2.5 -6.83301 -7.5 -14.5s-11.167 -15.834 -18.5 -24.501
c-2 -2.66699 -4.16699 -5.33398 -6.5 -8.00098s-4.5 -5.33398 -6.5 -8.00098c-6.66699 -6.66699 -12.834 -12.334 -18.501 -17.001s-10.5 -7 -14.5 -7c-6 0 -38.333 4.33301 -97 13s-122.334 21 -191.001 37c-72 16.667 -138.167 36.167 -198.5 58.5
s-90.5 47.166 -90.5 74.499v0z" />
    <glyph glyph-name="bracketleft" unicode="[" horiz-adv-x="333" 
d="M128 169l-0.000976562 201c0 7.33301 0.166992 14.5 0.5 21.5s0.5 14.167 0.5 21.5c0 8 0.166992 16.167 0.5 24.5s0.5 17.166 0.5 26.499c0 14.667 -0.333008 29.167 -1 43.5s-1 27.833 -1 40.5c-0.666992 12.667 -1.33398 24.667 -2.00098 36s-1 21.333 -1 30
c0 9.33301 1.33301 15.833 4 19.5s6.66699 5.5 12 5.5c8.66699 0 17.667 0.333008 27 1s18.666 1.66699 27.999 3c3.33301 0 6.66602 0.166992 9.99902 0.5s6.33301 0.833008 9 1.5l36.5 4c11.667 1.33301 22.167 2 31.5 2c1.33301 0 2.83301 -1.16699 4.5 -3.5
s2.83398 -4.83301 3.50098 -7.5c0.666992 -2 1.16699 -3.66699 1.5 -5s0.5 -2.66602 0.5 -3.99902c0 -2.66699 -0.5 -4.5 -1.5 -5.5s-2.83301 -1.83301 -5.5 -2.5c-7.33301 -1.33301 -15 -3.33301 -23 -6l-24 -8l-14.5 -6l-14.5 -6
c-3.33301 -1.33301 -5.66602 -3.33301 -6.99902 -6s-2.33301 -7.33398 -3 -14.001c-2 -24 -3.83301 -48.167 -5.5 -72.5s-3.16699 -48.833 -4.5 -73.5s-2.33301 -49.167 -3 -73.5s-1 -48.5 -1 -72.5c0 -12 0.166992 -24.167 0.5 -36.5s0.833008 -24.833 1.5 -37.5
c0 -6.66699 0.166992 -13 0.5 -19s0.5 -12.333 0.5 -19l2 -54.5c0.666992 -17.667 1 -34.167 1 -49.5c0 -9.33301 -0.166992 -18 -0.5 -26s-0.5 -15.667 -0.5 -23c0 -6.66699 -0.166992 -12.834 -0.5 -18.501s-0.5 -10.5 -0.5 -14.5c0 -2 -0.333008 -3.5 -1 -4.5
s-1.66699 -2.16699 -3 -3.5l-0.5 -0.5l-0.5 -0.5c-1.33301 -0.666992 -2.16602 -1.5 -2.49902 -2.5s-0.5 -1.83301 -0.5 -2.5c0 -2.66699 0.5 -4.33398 1.5 -5.00098s2.83301 -1.33398 5.5 -2.00098l61 -7c16 -0.666992 26 -2.5 30 -5.5s6 -8.16699 6 -15.5
c0 -9.33301 -1.33301 -15.166 -4 -17.499s-7 -3.5 -13 -3.5c-3.33301 0 -11.833 0.333008 -25.5 1s-28.5 1.66699 -44.5 3c-2.66699 0 -5.16699 0.166992 -7.5 0.5s-4.83301 0.5 -7.5 0.5c-12.667 0.666992 -24.167 1.33398 -34.5 2.00098s-17.166 1.33398 -20.499 2.00098
s-6 1.66699 -8 3s-3.33301 3 -4 5v0.5v1.5v1.5v1.5c0.666992 0.666992 1.16699 1.5 1.5 2.5s0.5 2.16699 0.5 3.5c0.666992 1.33301 1.16699 3 1.5 5s0.5 4.33301 0.5 7c0 14 0.166992 28 0.5 42s0.833008 28.333 1.5 43c0.666992 3.33301 1 6.83301 1 10.5v11.5
c1.33301 18 2.33301 35.833 3 53.5s1 34.834 1 51.501v0z" />
    <glyph glyph-name="backslash" unicode="\" horiz-adv-x="500" 
 />
    <glyph glyph-name="bracketright" unicode="]" horiz-adv-x="333" 
d="M205 398l0.000976562 -200.998c0 -6.66699 -0.166992 -13.667 -0.5 -21s-0.5 -14.666 -0.5 -21.999c0 -8 -0.166992 -16.167 -0.5 -24.5s-0.5 -17.166 -0.5 -26.499c0 -14.667 0.333008 -29.167 1 -43.5s1.33398 -27.833 2.00098 -40.5c0 -12.667 0.333008 -24.5 1 -35.5
s1 -20.833 1 -29.5c0 -9.33301 -1.33301 -15.833 -4 -19.5s-6.66699 -5.5 -12 -5.5c-8.66699 0 -17.667 -0.333008 -27 -1s-18.666 -1.66699 -27.999 -3c-3.33301 0 -6.66602 -0.166992 -9.99902 -0.5s-6.33301 -0.833008 -9 -1.5l-36.5 -4
c-11.667 -1.33301 -22.167 -2 -31.5 -2c-1.33301 0 -2.83301 1.16699 -4.5 3.5s-2.83398 4.83301 -3.50098 7.5c-0.666992 2 -1.16699 3.66699 -1.5 5s-0.5 2.66602 -0.5 3.99902c0 2.66699 0.5 4.5 1.5 5.5s2.83301 1.83301 5.5 2.5c7.33301 1.33301 15 3.33301 23 6l24 8
l14.5 6l14.5 6c3.33301 1.33301 5.66602 3.33301 6.99902 6s2.33301 7.33398 3 14.001c2 23.333 3.83301 47.166 5.5 71.499s3.16699 48.833 4.5 73.5s2.33301 49.167 3 73.5s1 48.5 1 72.5c0 12 -0.166992 24.167 -0.5 36.5s-0.833008 24.833 -1.5 37.5
c0 6.66699 -0.166992 13 -0.5 19s-0.5 12.333 -0.5 19l-2 54.5c-0.666992 17.667 -1 34.167 -1 49.5c0 9.33301 0.166992 18.166 0.5 26.499s0.5 15.833 0.5 22.5c0 7.33301 0.166992 13.833 0.5 19.5s0.5 10.5 0.5 14.5c0 2 0.5 3.5 1.5 4.5s1.83301 2.16699 2.5 3.5
l0.5 0.5l0.5 0.5c1.33301 0.666992 2.16602 1.5 2.49902 2.5s0.5 1.83301 0.5 2.5c0 2.66699 -0.5 4.33398 -1.5 5.00098s-2.83301 1.33398 -5.5 2.00098l-61 6c-16 1.33301 -26 3.5 -30 6.5s-6 8.16699 -6 15.5c0 9.33301 1.33301 15.166 4 17.499s7 3.5 13 3.5
c3.33301 0 11.833 -0.333008 25.5 -1s28.5 -1.66699 44.5 -3c2.66699 0 5.16699 -0.166992 7.5 -0.5s4.83301 -0.5 7.5 -0.5c12.667 -0.666992 24.167 -1.33398 34.5 -2.00098s17.166 -1.33398 20.499 -2.00098s6 -1.66699 8 -3s3.33301 -3 4 -5v-0.5v-1.5v-1.5v-1.5
c-0.666992 -0.666992 -1 -1.5 -1 -2.5s-0.333008 -2.16699 -1 -3.5s-1.16699 -3 -1.5 -5s-0.5 -4.33301 -0.5 -7c0 -14 -0.166992 -28.167 -0.5 -42.5s-0.833008 -28.833 -1.5 -43.5c-0.666992 -3.33301 -1 -6.83301 -1 -10.5v-11.5c-1.33301 -18 -2.33301 -35.833 -3 -53.5
s-1 -34.834 -1 -51.501v0z" />
    <glyph glyph-name="asciicircum" unicode="^" horiz-adv-x="500" 
 />
    <glyph glyph-name="underscore" unicode="_" horiz-adv-x="500" 
d="M500 -125h-500v50h500v-50v0z" />
    <glyph glyph-name="grave" unicode="`" 
d="M67 713c0 2 0.499023 4.16602 1.49902 6.49902s2.5 4.83301 4.5 7.5c1.33301 2.66699 3.16602 5.33398 5.49902 8.00098s4.83301 5 7.5 7s5 3.5 7 4.5s4 1.5 6 1.5c8.66699 0 15.667 -1 21 -3s9 -6 11 -12c5.33301 -14.667 11.166 -27.667 17.499 -39
s13.833 -21.666 22.5 -30.999l32 -35.5c5.33301 -5.66699 8 -9.5 8 -11.5s-1.5 -3.66699 -4.5 -5s-6.16699 -2.33301 -9.5 -3s-6.16602 -1.16699 -8.49902 -1.5s-4.16602 -0.5 -5.49902 -0.5c-5.33301 0 -13 3.16699 -23 9.5s-20.667 14.166 -32 23.499l-14.5 12.5
c-5 4.33301 -9.5 8.5 -13.5 12.5c-9.33301 9.33301 -17.166 18.5 -23.499 27.5s-9.5 16.167 -9.5 21.5v0z" />
    <glyph glyph-name="a" unicode="a" horiz-adv-x="741" 
d="M503 160h-264.997c-25.333 0 -44.333 -3.16699 -57 -9.5s-23.667 -17.833 -33 -34.5l-50 -87l-2 -4c-0.666992 -1.33301 -1 -3 -1 -5c-0.666992 -0.666992 -1 -1.33398 -1 -2.00098v-2c-1.33301 -4 -2.83301 -7.66699 -4.5 -11s-5.83398 -5 -12.501 -5
c-18.667 0 -33.667 2.16699 -45 6.5s-17 9.83301 -17 16.5c0 6 3.33301 12.5 10 19.5s14.334 15.833 23.001 26.5l36 49.5c13.333 19 26.666 39.167 39.999 60.5c4.66699 6.66699 9.16699 13.5 13.5 20.5l13.5 21.5c26 42 48.667 81.5 68 118.5s29 60.833 29 71.5
c0 7.33301 -2.83301 15.333 -8.5 24s-14.167 18.667 -25.5 30l-82 83c-6.66699 6.66699 -12.667 12 -18 16s-9.33301 7.33301 -12 10c-1.33301 1.33301 -2.33301 2.66602 -3 3.99902s-1 3 -1 5s1.33301 4.33301 4 7s6.33398 5.33398 11.001 8.00098
c2.66699 2 5.83398 3.83301 9.50098 5.5s7.16699 3.5 10.5 5.5c5.33301 2 10.5 3.83301 15.5 5.5s9.16699 2.5 12.5 2.5c14.667 0 25 -1 31 -3s11.333 -7.66699 16 -17c0.666992 -2 1.5 -4.16699 2.5 -6.5l3.5 -8.5c1.33301 -3.33301 4.16602 -8.33301 8.49902 -15
s9.5 -13.667 15.5 -21c1.33301 -1.33301 2.5 -2.66602 3.5 -3.99902s2.16699 -2.66602 3.5 -3.99902c0.666992 -0.666992 1.16699 -1.33398 1.5 -2.00098s0.833008 -1.33398 1.5 -2.00098c75.333 -90.667 136.833 -162.167 184.5 -214.5s92.5 -98.833 134.5 -139.5l18 -16.5
l18 -16.5l40.5 -36.5l42.5 -38.5c6 -5.33301 12 -9.16602 18 -11.499s11.333 -4.16602 16 -5.49902s8.33398 -3 11.001 -5s4 -6.33301 4 -13c0 -2 -1.33301 -5 -4 -9s-6 -8 -10 -12c-2 -2.66699 -4.16699 -5 -6.5 -7s-4.83301 -4 -7.5 -6c-4 -2.66699 -7.83301 -5 -11.5 -7
s-6.83398 -3 -9.50098 -3l-30 -1c-4 0.666992 -7 2.16699 -9 4.5s-3.66699 5.16602 -5 8.49902h-0.5c-0.333008 0 -0.5 0.333008 -0.5 1c-0.666992 1.33301 -1.33398 2.5 -2.00098 3.5s-1.33398 2.16699 -2.00098 3.5c-10.667 15.333 -27.334 35 -50.001 59l-84 88v0z
M453.003 214l-156.999 159.999l-66 -114c-8.66699 -14.667 -14.334 -24.5 -17.001 -29.5s-4 -9.16699 -4 -12.5c0 -5.33301 5 -8.66602 15 -9.99902s38.667 -2 86 -2c52.667 0 88.5 0.833008 107.5 2.5s30.833 3.5 35.5 5.5v0z" />
    <glyph glyph-name="b" unicode="b" horiz-adv-x="537" 
d="M145 313c0 76.667 -1.33496 123.668 -4.00195 141.001s-8.66699 29 -18 35h-0.5h-0.5c-4 2 -7.5 3.83301 -10.5 5.5s-5.83301 3.5 -8.5 5.5c-3.33301 2 -5.83301 4.16699 -7.5 6.5s-2.5 5.16602 -2.5 8.49902v0.5v0.5c0.666992 5.33301 7.83398 12.333 21.501 21
s50.834 28.334 111.501 59.001c0.666992 0 1.16699 0.166992 1.5 0.5l0.5 0.5c4 2 8.33301 3.33301 13 4s12 1 22 1c48 0 85.833 -7 113.5 -21s41.5 -39 41.5 -75c0 -20 -1.83301 -37 -5.5 -51s-11.5 -27.333 -23.5 -40c-8.66699 -9.33301 -20.667 -19.333 -36 -30
s-35 -22.667 -59 -36c8.66699 -2.66699 18.334 -6.83398 29.001 -12.501s21.667 -12.5 33 -20.5c21.333 -15.333 41.166 -33.666 59.499 -54.999s28.833 -43 31.5 -65c0.666992 -2 1 -3.83301 1 -5.5v-5.5c0 -31.333 -14 -59 -42 -83s-59 -43.667 -93 -59
c-30.667 -14 -59.167 -24.667 -85.5 -32s-42.166 -11 -47.499 -11c-30.667 0 -51 1.5 -61 4.5s-15 8.16699 -15 15.5c0 2.66699 1.16699 5.66699 3.5 9s5.16602 6.66602 8.49902 9.99902c2 3.33301 4.16699 6.66602 6.5 9.99902s3.83301 7 4.5 11
c0.666992 5.33301 1.66699 11.833 3 19.5s2.33301 16.167 3 25.5c2.66699 20.667 5 44.834 7 72.501s3.33301 56.167 4 85.5c0.666992 8.66699 1 17.167 1 25.5v24.5v0zM196.998 151.001c0 -38 1.00098 -60.999 3.00098 -68.999s7 -12 15 -12c8.66699 0 19.167 1 31.5 3
s24.833 5 37.5 9c23.333 7.33301 44.5 18.166 63.5 32.499s28.5 33.166 28.5 56.499c0 6.66699 -1.5 13.667 -4.5 21s-6.83301 14.666 -11.5 21.999c-9.33301 12.667 -20.833 25 -34.5 37s-27.834 22.667 -42.501 32c-7.33301 4.66699 -14.5 8.83398 -21.5 12.501
s-13.833 6.83398 -20.5 9.50098c-1.33301 -0.666992 -2.5 -1.16699 -3.5 -1.5s-2.16699 -0.833008 -3.5 -1.5c-5.33301 -2 -10.166 -4.33301 -14.499 -7s-7.83301 -5.33398 -10.5 -8.00098c-4.66699 -4.66699 -7.83398 -16.667 -9.50098 -36s-2.5 -52.666 -2.5 -99.999v0z
M206.999 524.002l-0.00195312 -156.996l2.5 -2.5l2.5 -2.5c2 -2 4.33301 -3.83301 7 -5.5s5.33398 -2.83398 8.00098 -3.50098c0.666992 0 1.5 -0.166992 2.5 -0.5s1.83301 -0.5 2.5 -0.5c5.33301 0 12.833 3.16699 22.5 9.5s19.834 14.166 30.501 23.499
c8 8 15.833 16.5 23.5 25.5s14.5 18.5 20.5 28.5c5.33301 8 9.5 16.167 12.5 24.5s4.5 16.166 4.5 23.499c0 2 -0.166992 4 -0.5 6s-0.5 4 -0.5 6c-4 15.333 -14.167 29.666 -30.5 42.999s-38.166 20 -65.499 20c-10.667 0 -20.334 -2.66699 -29.001 -8s-13 -15.333 -13 -30
v0z" />
    <glyph glyph-name="c" unicode="c" horiz-adv-x="593" 
d="M104 240c0 98.667 20.6709 172.667 62.0039 222s87 83.333 137 102c23.333 8.66699 46.333 14.667 69 18s43 5 61 5c21.333 0 39.333 -3.5 54 -10.5s24.667 -14.833 30 -23.5c1.33301 -2 2.33301 -4.16699 3 -6.5s1 -4.5 1 -6.5c0 -2.66699 -1 -5.83398 -3 -9.50098
s-4.66699 -7.5 -8 -11.5c-2.66699 -3.33301 -5.83398 -6.66602 -9.50098 -9.99902s-7.16699 -6.33301 -10.5 -9c-4.66699 -2.66699 -9 -5 -13 -7s-7.33301 -3 -10 -3c-0.666992 0 -1.5 0.166992 -2.5 0.5s-1.83301 0.5 -2.5 0.5c-2.66699 2 -5.5 5 -8.5 9
s-6.5 8.33301 -10.5 13c-5.33301 5.33301 -11.5 10.333 -18.5 15s-16.167 7 -27.5 7c-56 0 -99.667 -15.333 -131 -46s-54.333 -64.334 -69 -101.001c-10.667 -26 -17.834 -51.167 -21.501 -75.5s-5.5 -42.833 -5.5 -55.5c0 -11.333 1.5 -23.5 4.5 -36.5
s7.16699 -26.167 12.5 -39.5c13.333 -33.333 33.666 -63.833 60.999 -91.5s59.666 -41.5 96.999 -41.5c24.667 0 46.667 4.16699 66 12.5s36.666 17.833 51.999 28.5c14.667 10 27.334 19.167 38.001 27.5s19 12.5 25 12.5c6.66699 0 11.834 -2 15.501 -6s5.5 -9 5.5 -15
c0 -3.33301 -3.5 -9.5 -10.5 -18.5s-15.833 -18.833 -26.5 -29.5c-6.66699 -6 -13.834 -11.833 -21.501 -17.5s-15.5 -10.834 -23.5 -15.501c-0.666992 -0.666992 -1.5 -1.16699 -2.5 -1.5s-1.83301 -0.833008 -2.5 -1.5c-10.667 -4.66699 -25.167 -9.5 -43.5 -14.5
s-37.5 -8.16699 -57.5 -9.5c-7.33301 -1.33301 -14.5 -2.16602 -21.5 -2.49902s-13.833 -0.5 -20.5 -0.5c-12 0 -25.167 1.33301 -39.5 4s-28.833 7.66699 -43.5 15c-32.667 15.333 -62.5 40.833 -89.5 76.5s-40.5 84.834 -40.5 147.501v0z" />
    <glyph glyph-name="d" unicode="d" horiz-adv-x="648" 
d="M237 -12c-1.33301 0.666992 -2.66309 1.00293 -3.99609 1.00293h-4c-2.66699 0.666992 -5.33398 1.16699 -8.00098 1.5s-5 0.5 -7 0.5c-2.66699 0.666992 -5.16699 1.16699 -7.5 1.5s-4.5 0.5 -6.5 0.5l-56 7c-11.333 1.33301 -19.5 3.16602 -24.5 5.49902
s-7.5 6.16602 -7.5 11.499c0 3.33301 0.5 6 1.5 8s2.5 4 4.5 6c1.33301 2 2.83301 3.83301 4.5 5.5l5.5 5.5c3.33301 4 6.5 9.5 9.5 16.5s4.83301 16.833 5.5 29.5l2 45l2 46l2 77c0.666992 25.333 1 49.333 1 72c0 10 -0.333008 20.833 -1 32.5l-2 34.5
c-1.33301 19.333 -3 37.833 -5 55.5s-4.33301 32.834 -7 45.501c0 2 -0.166992 4 -0.5 6s-0.833008 4 -1.5 6c-1.33301 5.33301 -3.83301 8.66602 -7.5 9.99902s-7.5 2.33301 -11.5 3h-0.5h-0.5c-4.66699 0.666992 -9 1.83398 -13 3.50098s-6 6.16699 -6 13.5
c0 6.66699 1.16699 11.834 3.5 15.501s7.16602 6.83398 14.499 9.50098c2.66699 1.33301 6 2.66602 10 3.99902s8.33301 2.66602 13 3.99902l70 20c14.667 4 26.5 6.83301 35.5 8.5s15.833 2.5 20.5 2.5c2.66699 0 17.5 -1.83301 44.5 -5.5s56.5 -12.834 88.5 -27.501
c33.333 -16 64 -40.333 92 -73s42 -78.334 42 -137.001c0 -68 -4.33301 -121 -13 -159s-24 -73 -46 -105c-0.666992 -0.666992 -1.33398 -1.5 -2.00098 -2.5s-1.33398 -1.83301 -2.00098 -2.5c-10 -13.333 -25.167 -26 -45.5 -38s-41.833 -22.333 -64.5 -31
c-26.667 -10 -51.5 -17.833 -74.5 -23.5s-37.5 -8.5 -43.5 -8.5v-1zM212.003 529.003l0.00195312 -282.998v-6.5v-7.5v-30.5v-29.5c-0.666992 -12 -1 -23.833 -1 -35.5v-32.5c0 -25.333 2.66699 -41.333 8 -48s14 -10 26 -10c62 0 112.667 18.667 152 56s59 113.333 59 228
c0 48 -9.66699 87.167 -29 117.5s-40.333 53.5 -63 69.5c-16.667 12 -32.667 20.5 -48 25.5s-27 7.5 -35 7.5c-4 0 -8 -0.333008 -12 -1s-8.33301 -1.33398 -13 -2.00098c-7.33301 -2 -14.5 -4.33301 -21.5 -7s-13.167 -5.33398 -18.5 -8.00098
c-0.666992 -0.666992 -1.33398 -1.16699 -2.00098 -1.5s-1.33398 -0.833008 -2.00098 -1.5v0z" />
    <glyph glyph-name="e" unicode="e" horiz-adv-x="481" 
d="M229 320l135.004 0.000976562c5.33301 0 9.83301 -0.833008 13.5 -2.5s5.5 -4.83398 5.5 -9.50098c0 -2 -1.33301 -4.66699 -4 -8s-6 -7 -10 -11c-2 -1.33301 -4 -2.83301 -6 -4.5s-3.66699 -3.16699 -5 -4.5c-4.66699 -3.33301 -8.83398 -6.16602 -12.501 -8.49902
s-6.83398 -3.5 -9.50098 -3.5c-24.667 -2 -48 -3.33301 -70 -4s-42.333 -1.33398 -61 -2.00098h-10.5h-10.5c0 -78.667 15.667 -138.5 47 -179.5s81.333 -61.5 150 -61.5c14.667 0 24.5 -1.33301 29.5 -4s7.5 -8.33398 7.5 -17.001v-0.5v-1.5
c-1.33301 -5.33301 -7 -10.333 -17 -15s-27 -7 -51 -7c-86.667 0 -146 19.333 -178 58s-51.667 81.334 -59 128.001c-2 15.333 -3.33301 30.333 -4 45s-1 28.667 -1 42c0 133.333 22.333 225.5 67 276.5s95 76.5 151 76.5c27.333 0 46.166 -2.16699 56.499 -6.5
s15.5 -12.166 15.5 -23.499c0 -6.66699 -1.66699 -12 -5 -16s-8 -6 -14 -6h-59c-32 0 -61.167 -15.833 -87.5 -47.5s-42.5 -97.834 -48.5 -198.501c5.33301 4.66699 11.666 8.5 18.999 11.5s16 4.5 26 4.5v0z" />
    <glyph glyph-name="f" unicode="f" horiz-adv-x="537" 
d="M205 228l0.00390625 -209.001c0 -4.66699 -0.166992 -11.334 -0.5 -20.001s-1.16602 -17.667 -2.49902 -27c-2 -14 -4.66699 -26.667 -8 -38s-7.66602 -17 -12.999 -17c-2 0 -4.33301 0.333008 -7 1s-5.66699 1.66699 -9 3c-4.66699 2 -9 4.5 -13 7.5s-7 6.16699 -9 9.5
c-0.666992 0.666992 -1.16699 1.5 -1.5 2.5s-0.5 2.16699 -0.5 3.5v0.5v1.5c0 6.66699 0.333008 14 1 22s1.33398 19.667 2.00098 35c0.666992 16.667 1.33398 39.167 2.00098 67.5s1 65.833 1 112.5c0 10.667 -0.666992 19.5 -2 26.5s-3 13.167 -5 18.5
c-0.666992 1.33301 -1.16699 2.66602 -1.5 3.99902s-0.833008 2.66602 -1.5 3.99902c-0.666992 3.33301 -1.5 7 -2.5 11s-1.5 8.66699 -1.5 14c0 4 0.333008 8 1 12l2 12c0 0.666992 0.166992 1.5 0.5 2.5s0.5 2.16699 0.5 3.5c1.33301 4.66699 2.5 9.5 3.5 14.5
s1.5 10.5 1.5 16.5c0 4.66699 -0.5 14.834 -1.5 30.501s-2.16699 32.5 -3.5 50.5c-0.666992 2.66699 -1 5.5 -1 8.5s-0.333008 5.83301 -1 8.5l-2 25c-0.666992 8 -1.33398 15 -2.00098 21c-0.666992 1.33301 -1.5 2.5 -2.5 3.5s-1.83301 2.16699 -2.5 3.5
c-6.66699 10.667 -12.167 20.834 -16.5 30.501s-6.5 17.834 -6.5 24.501c0 2.66699 1.5 6.33398 4.5 11.001s6.5 9.33398 10.5 14.001c2.66699 3.33301 5.66699 6.33301 9 9l10 8c4.66699 4 9.16699 7.16699 13.5 9.5s8.16602 3.5 11.499 3.5c4 0 8.33301 -0.333008 13 -1
s10 -1 16 -1c5.33301 -0.666992 11.666 -1.33398 18.999 -2.00098s15.666 -1 24.999 -1c12 0 24.833 0.166992 38.5 0.5s27.5 0.833008 41.5 1.5c10 0 20 0.333008 30 1l30 2c22 0.666992 41.833 1.5 59.5 2.5s30.167 1.5 37.5 1.5h2
c0.666992 0 1.33398 -0.333008 2.00098 -1c2 0 3.66699 -0.833008 5 -2.5s2 -3.83398 2 -6.50098c0 -2 -0.5 -4.5 -1.5 -7.5s-2.5 -5.83301 -4.5 -8.5c-2 -4 -4.33301 -7.66699 -7 -11s-5.33398 -5.66602 -8.00098 -6.99902l-3 -1.5
c-0.666992 -0.333008 -1.33398 -0.5 -2.00098 -0.5c-14 -2.66699 -30.333 -5 -49 -7l-58 -6l-72.5 -7.5c-23 -2.33301 -40.833 -4.5 -53.5 -6.5c-2.66699 -0.666992 -5 -2.33398 -7 -5.00098s-3.66699 -9.66699 -5 -21c-2 -17.333 -3.16699 -37 -3.5 -59
s-0.5 -44.667 -0.5 -68v-8.5v-9.5v-12.5c0 -4.33301 0.333008 -8.5 1 -12.5v-13.5v-12.5h79c17.333 0 33.666 0.5 48.999 1.5s29.666 2.5 42.999 4.5c13.333 1.33301 25.5 2.5 36.5 3.5s20.5 1.5 28.5 1.5c6 0 10.667 -1.33301 14 -4s5 -7.33398 5 -14.001
c0 -10.667 -2.33301 -19 -7 -25s-10.334 -9 -17.001 -9c-11.333 0 -27.833 -0.833008 -49.5 -2.5s-44.167 -3.5 -67.5 -5.5c-11.333 -1.33301 -22.5 -2.5 -33.5 -3.5s-21.5 -2.16699 -31.5 -3.5c-11.333 -1.33301 -21.5 -2.66602 -30.5 -3.99902
s-16.5 -2.66602 -22.5 -3.99902v0z" />
    <glyph glyph-name="g" unicode="g" horiz-adv-x="630" 
d="M451 133l8.00488 60c1.33301 6 4.33301 10.333 9 13s14.334 4 29.001 4c8.66699 0 14.167 -4 16.5 -12s3.5 -33.333 3.5 -76c0 -22 0.5 -42 1.5 -60s2.16699 -34.333 3.5 -49c0.666992 -14 1.5 -26.833 2.5 -38.5s1.5 -22.167 1.5 -31.5s-1.83301 -16 -5.5 -20
s-11.5 -6 -23.5 -6c-4.66699 0 -8.83398 1.83301 -12.501 5.5s-7.16699 11.5 -10.5 23.5c-1.33301 6 -2.83301 13.167 -4.5 21.5s-3.5 18.5 -5.5 30.5c-1.33301 9.33301 -4.33301 16 -9 20s-11.667 6 -21 6c-2.66699 0 -7.5 -0.666992 -14.5 -2
s-15.167 -2.66602 -24.5 -3.99902l-16 -2l-16 -2c-4.66699 -0.666992 -9.33398 -1.16699 -14.001 -1.5s-9.33398 -0.5 -14.001 -0.5c-62 0 -109.5 15 -142.5 45s-56.5 63 -70.5 99c-6.66699 17.333 -11.334 34.333 -14.001 51s-4 31.667 -4 45v10v9
c4 79.333 32.333 151.833 85 217.5s134 98.5 244 98.5c37.333 0 66.166 -4.16699 86.499 -12.5s30.5 -21.5 30.5 -39.5c0 -6 -2.66699 -11.833 -8 -17.5s-11.333 -10.5 -18 -14.5c-4.66699 -2.66699 -9 -4.66699 -13 -6s-7.33301 -2 -10 -2h-1.5h-1.5
c-4 0.666992 -8.66699 3.16699 -14 7.5s-14.333 12.5 -27 24.5c-1.33301 1.33301 -2.83301 2.66602 -4.5 3.99902s-3.16699 2.33301 -4.5 3c-5.33301 2.66699 -10.333 4.5 -15 5.5s-10.334 1.5 -17.001 1.5c-51.333 0 -97.5 -22.667 -138.5 -68s-70.167 -95 -87.5 -149
c-4.66699 -15.333 -8.16699 -30.166 -10.5 -44.499s-3.5 -28.5 -3.5 -42.5c0 -72 14.667 -118.833 44 -140.5s64.333 -32.5 105 -32.5c30 0 55.667 5.66699 77 17s36 23.666 44 36.999c1.33301 2.66699 2.5 5.16699 3.5 7.5s1.5 4.83301 1.5 7.5v0z" />
    <glyph glyph-name="h" unicode="h" horiz-adv-x="704" 
d="M200 217l0.00585938 -170.005c0 -16.667 -3.83301 -28.667 -11.5 -36s-18.834 -11 -33.501 -11c-7.33301 0 -12.333 2.16699 -15 6.5s-4 10.5 -4 18.5c0 17.333 0.333008 35 1 53l2 56l2 57.5c0.666992 19.667 1 39.834 1 60.501v37.5c0 13 -0.333008 25.833 -1 38.5
c0 28 -0.333008 54.833 -1 80.5s-1.33398 46.834 -2.00098 63.501c0 8 -2.33301 14.667 -7 20s-9.33398 10.333 -14.001 15c-2.66699 2 -5 3.83301 -7 5.5s-3.66699 3.16699 -5 4.5c-2.66699 2.66699 -5 5.33398 -7 8.00098s-3 5.66699 -3 9c0 2 1.16699 5 3.5 9
s5.5 8 9.5 12c4.66699 6 10.667 11.333 18 16s15.333 7 24 7c4 0 8.83301 -0.666992 14.5 -2s11.167 -3 16.5 -5c6 -2 11.667 -4.16699 17 -6.5s10 -4.83301 14 -7.5s7.33301 -5.33398 10 -8.00098s4 -5 4 -7c0 -3.33301 -0.833008 -7.16602 -2.5 -11.499
s-3.5 -9.5 -5.5 -15.5c-2 -5.33301 -3.83301 -11.333 -5.5 -18s-2.5 -14 -2.5 -22v-40.5c0 -13.667 -0.333008 -27.5 -1 -41.5c0 -12 -0.166992 -23.667 -0.5 -35s-0.833008 -22.666 -1.5 -33.999h266c0.666992 12 1.16699 25.333 1.5 40s0.5 29.667 0.5 45v5v6
c0 11.333 -0.333008 22.5 -1 33.5s-1.33398 21.167 -2.00098 30.5s-1.33398 17.666 -2.00098 24.999s-1 13.333 -1 18c0 6 4.83301 11.333 14.5 16s20.167 8.33398 31.5 11.001c7.33301 2 14.333 3.5 21 4.5s12.334 1.5 17.001 1.5c6.66699 0 11.667 -1.33301 15 -4
s5 -6 5 -10v-2c0 -0.666992 -0.333008 -1.33398 -1 -2.00098c-0.666992 -3.33301 -2.16699 -6.66602 -4.5 -9.99902s-4.83301 -8 -7.5 -14c-1.33301 -4 -2.83301 -8.83301 -4.5 -14.5s-3.16699 -12.167 -4.5 -19.5c-2 -10.667 -3.5 -22.167 -4.5 -34.5
s-1.83301 -24.833 -2.5 -37.5c-1.33301 -16 -2.16602 -31.667 -2.49902 -47s-0.5 -28.666 -0.5 -39.999c5.33301 0.666992 10.833 1.16699 16.5 1.5s11.167 0.5 16.5 0.5s9.5 -0.833008 12.5 -2.5s4.5 -5.83398 4.5 -12.501c0 -2 -0.333008 -4.66699 -1 -8
s-1.66699 -6.66602 -3 -9.99902c-1.33301 -5.33301 -3.83301 -10.333 -7.5 -15s-7.83398 -7 -12.501 -7c-0.666992 0 -1.66699 0.166992 -3 0.5s-2.66602 0.5 -3.99902 0.5s-2.66602 0.166992 -3.99902 0.5s-3 0.5 -5 0.5c-4 0 -6.66699 -1 -8 -3s-2 -5 -2 -9l-2 -197
c0 -2.66699 -0.5 -6 -1.5 -10s-2.16699 -8.33301 -3.5 -13c-2.66699 -7.33301 -6.33398 -14 -11.001 -20s-9.66699 -9 -15 -9c-9.33301 0 -15.833 1.66699 -19.5 5s-5.83398 10.333 -6.50098 21l-10 233c-14.667 0 -32.667 -0.333008 -54 -1s-43.333 -1.66699 -66 -3
c-31.333 -1.33301 -60.833 -3.33301 -88.5 -6s-47.167 -5.33398 -58.5 -8.00098c-0.666992 -2.66699 -1.33398 -5.66699 -2.00098 -9s-1.33398 -6.33301 -2.00098 -9c-0.666992 -3.33301 -1 -6.66602 -1 -9.99902v-9v0z" />
    <glyph glyph-name="i" unicode="i" horiz-adv-x="333" 
d="M134 309c0 17.333 -0.166016 32.834 -0.499023 46.501s-0.5 25.834 -0.5 36.501c-0.666992 10.667 -1.16699 20.5 -1.5 29.5s-0.5 17.833 -0.5 26.5c0 9.33301 -0.333008 17.166 -1 23.499s-3 11.833 -7 16.5c-6.66699 7.33301 -11.167 14 -13.5 20s-3.5 11.333 -3.5 16
c0 3.33301 1.83301 7.5 5.5 12.5s8.5 10.167 14.5 15.5c2.66699 3.33301 5.83398 6.33301 9.50098 9l10.5 8c6.66699 5.33301 13.167 9.66602 19.5 12.999s11.166 5 14.499 5c2 0 4.16699 -0.333008 6.5 -1s4.83301 -1.33398 7.5 -2.00098
c3.33301 -1.33301 6.66602 -3 9.99902 -5s6.33301 -4 9 -6c2 -1.33301 3.5 -2.83301 4.5 -4.5s1.5 -3.16699 1.5 -4.5c0 -4 -0.5 -8.16699 -1.5 -12.5s-2.16699 -8.83301 -3.5 -13.5s-2.5 -9.16699 -3.5 -13.5s-1.5 -9.16602 -1.5 -14.499c0 -4.66699 -0.333008 -10 -1 -16
s-1 -12.667 -1 -20c-2 -34.667 -3.66699 -84 -5 -148s-2 -146.333 -2 -247c0 -40 -2.5 -66.5 -7.5 -79.5s-13.167 -19.5 -24.5 -19.5c-14.667 0 -24 15.333 -28 46s-6 125 -6 283v0z" />
    <glyph glyph-name="j" unicode="j" horiz-adv-x="333" 
d="M214 395l-0.000976562 -161.001c0 -85.333 -10.667 -152 -32 -200s-44.666 -84 -69.999 -108c-24 -22.667 -46.167 -37 -66.5 -43s-31.833 -9 -34.5 -9s-5.16699 0.833008 -7.5 2.5s-5.16602 3.5 -8.49902 5.5c-4 3.33301 -7.83301 7.33301 -11.5 12
s-6.83398 9.33398 -9.50098 14.001c-2.66699 4 -4.66699 8 -6 12s-2 7.66699 -2 11c0 4.66699 1.16699 8.33398 3.5 11.001s6.83301 4 13.5 4h0.5h1.5c2.66699 0 5.33398 -0.166992 8.00098 -0.5s5.33398 -0.5 8.00098 -0.5c4 0 8.66699 -0.166992 14 -0.5
s11.333 -0.5 18 -0.5c4 0 8 0.333008 12 1s8 2 12 4c22.667 8.66699 43.5 29.5 62.5 62.5s28.5 77.5 28.5 133.5c0 135.333 -1.33301 227.5 -4 276.5s-7.66699 85.167 -15 108.5c-1.33301 4.66699 -3.33301 8 -6 10s-5.66699 3.66699 -9 5l-1 0.5
c-0.666992 0.333008 -1.33398 0.5 -2.00098 0.5c-3.33301 1.33301 -6.33301 3.16602 -9 5.49902s-4 6.5 -4 12.5c0 3.33301 2.66699 7.83301 8 13.5s11.666 11.5 18.999 17.5c3.33301 2.66699 6.66602 5.16699 9.99902 7.5l11 7.5c8 5.33301 16 10 24 14s14 6 18 6h2
c0.666992 0 1.33398 -0.333008 2.00098 -1c5.33301 -1.33301 10 -4.5 14 -9.5s6 -10.833 6 -17.5c0 -10.667 0.166992 -23.334 0.5 -38.001s0.5 -31 0.5 -49s0.166992 -37.167 0.5 -57.5s0.5 -41.166 0.5 -62.499v0z" />
    <glyph glyph-name="k" unicode="k" horiz-adv-x="611" 
d="M190 93v-72.9971c0 -4.66699 -2.16699 -8.83398 -6.5 -12.501s-9.16602 -6.5 -14.499 -8.5c-4 -2 -7.83301 -3.5 -11.5 -4.5s-6.5 -1.5 -8.5 -1.5c-1.33301 0 -3 0.333008 -5 1s-4 1.66699 -6 3c-3.33301 2 -6.5 4.66699 -9.5 8s-4.5 7.33301 -4.5 12
c0 8.66699 0.5 21.334 1.5 38.001s1.83301 35.667 2.5 57c0.666992 14.667 1.33398 30.167 2.00098 46.5s1 32.5 1 48.5c0.666992 7.33301 1 14.666 1 21.999v22v34.5c0 11.667 -0.333008 23.5 -1 35.5c0 14.667 -0.333008 29.167 -1 43.5s-1 28.833 -1 43.5
c-0.666992 8 -1.16699 16.333 -1.5 25s-0.5 17 -0.5 25c-0.666992 15.333 -2 28 -4 38s-4 18 -6 24s-4 10.667 -6 14s-3.33301 6.66602 -4 9.99902v1.5v1.5c0 2.66699 1.5 6.33398 4.5 11.001s6.83301 9.66699 11.5 15c1.33301 2 3 4.16699 5 6.5s4 4.16602 6 5.49902
c4.66699 4.66699 9.16699 8.66699 13.5 12s7.83301 5 10.5 5c2 0 4.16699 -0.333008 6.5 -1s5.16602 -1.66699 8.49902 -3c1.33301 -0.666992 2.5 -1.33398 3.5 -2.00098s2.16699 -1.33398 3.5 -2.00098c2.66699 -1.33301 4.83398 -2.5 6.50098 -3.5
s2.83398 -1.83301 3.50098 -2.5c1.33301 -1.33301 3.16602 -4 5.49902 -8s4.5 -8.33301 6.5 -13c0.666992 -1.33301 1.33398 -2.5 2.00098 -3.5s1 -2.16699 1 -3.5c3.33301 -6 6 -11.667 8 -17s3 -9 3 -11c0 -2.66699 -0.666992 -5.5 -2 -8.5s-3 -6.5 -5 -10.5l-4.5 -11.5
c-1.66699 -4.33301 -2.5 -9.16602 -2.5 -14.499c0 -8.66699 -0.333008 -17 -1 -25s-1 -15.333 -1 -22c-2 -35.333 -3.66699 -63 -5 -83s-2 -37 -2 -51c0 -6.66699 0.5 -11.834 1.5 -15.501s3.5 -5.5 7.5 -5.5c5.33301 0 22.666 15 51.999 45l96 99l95 98.5
c29.333 29.667 46.666 44.5 51.999 44.5c3.33301 0 7.5 -1.5 12.5 -4.5s10.167 -6.5 15.5 -10.5c2.66699 -2 5 -4 7 -6s4.33301 -4 7 -6c5.33301 -5.33301 10 -10.333 14 -15s6 -8 6 -10c0 -2.66699 -1.83301 -5.16699 -5.5 -7.5s-8.16699 -4.5 -13.5 -6.5
c-2.66699 -0.666992 -5.5 -1.5 -8.5 -2.5s-5.83301 -2.16699 -8.5 -3.5c-4.66699 -1.33301 -9.16699 -3 -13.5 -5s-8.16602 -4.33301 -11.499 -7c-14 -11.333 -29 -24.5 -45 -39.5l-49 -47.5c-1.33301 -0.666992 -2.5 -1.5 -3.5 -2.5l-2.5 -2.5l-76 -73
c-24 -22.667 -43 -38.334 -57 -47.001v-2c15.333 -2 35.166 -13.667 59.499 -35l77.5 -70l19.5 -17.5l18.5 -16.5c20.667 -18 41 -33.667 61 -47s38.667 -21.333 56 -24c9.33301 -1.33301 15.5 -3.66602 18.5 -6.99902s4.5 -8.33301 4.5 -15c0 -2 -1.66699 -4.5 -5 -7.5
s-7.66602 -6.16699 -12.999 -9.5l-12.5 -6.5c-4.33301 -2.33301 -8.5 -4.16602 -12.5 -5.49902c-8.66699 -4 -16.834 -7.16699 -24.501 -9.5s-13.167 -3.5 -16.5 -3.5c-7.33301 0 -20.833 10.167 -40.5 30.5s-42.834 42.833 -69.501 67.5c-65.333 62 -107.5 101 -126.5 117
s-32.833 24 -41.5 24c-4 0 -7.66699 -0.166992 -11 -0.5s-6.33301 -0.833008 -9 -1.5c-1.33301 0 -2.5 -0.166992 -3.5 -0.5s-1.83301 -0.5 -2.5 -0.5c-0.666992 -24 -1.16699 -48 -1.5 -72s-0.5 -47.667 -0.5 -71v0z" />
    <glyph glyph-name="l" unicode="l" horiz-adv-x="519" 
d="M235 60l181.001 6.99414c1.33301 0 2.66602 0.166992 3.99902 0.5s2.66602 0.5 3.99902 0.5l10 4l10 4l13.5 6c4.33301 2 8.16602 3 11.499 3c5.33301 0 9.5 -0.833008 12.5 -2.5s4.5 -5.16699 4.5 -10.5c0 -1.33301 -0.833008 -5.66602 -2.5 -12.999
s-3.83398 -15 -6.50098 -23c-2.66699 -8.66699 -6 -16.834 -10 -24.501s-8 -11.5 -12 -11.5h-4.5c-1.66699 0 -3.16699 0.333008 -4.5 1c-4 0.666992 -8.16699 1.66699 -12.5 3s-10.166 3.33301 -17.499 6c-2.66699 1.33301 -10.667 2.33301 -24 3s-41.666 1 -84.999 1
c-44.667 0 -73.5 -0.5 -86.5 -1.5s-22.167 -2.83301 -27.5 -5.5c-3.33301 -1.33301 -7.16602 -2.66602 -11.499 -3.99902s-8.5 -2.33301 -12.5 -3h-3.5h-3.5c-2 0 -3.83301 0.5 -5.5 1.5s-3.5 2.16699 -5.5 3.5c-2.66699 2.66699 -5.5 5.83398 -8.5 9.50098
s-5.5 7.5 -7.5 11.5c-3.33301 5.33301 -6 10.333 -8 15s-3 8 -3 10c0 0.666992 0.166992 1.5 0.5 2.5s0.5 1.83301 0.5 2.5c0.666992 2 1.83398 4.16699 3.50098 6.5l5.5 7.5c2.66699 3.33301 5 7.33301 7 12s3 10.334 3 17.001c1.33301 21.333 2 52.5 2 93.5v140.5
c0 48.667 -1.66699 87.5 -5 116.5s-6.66602 51.833 -9.99902 68.5c-4 16 -7.66699 27.167 -11 33.5s-5 11.5 -5 15.5c0 2.66699 2.16699 6.5 6.5 11.5s9.83301 10.167 16.5 15.5c2 2 4.33301 4 7 6l8 6c8 5.33301 15.167 9.83301 21.5 13.5s11.166 5.5 14.499 5.5
c2 0 4.16699 -0.166992 6.5 -0.5s4.83301 -1.16602 7.5 -2.49902c5.33301 -2 10.166 -4.66699 14.499 -8s6.5 -7.66602 6.5 -12.999c0 -2.66699 -0.333008 -6 -1 -10s-1.66699 -8 -3 -12c-0.666992 -4 -1.5 -8.33301 -2.5 -13s-1.5 -9.33398 -1.5 -14.001
c0 -14.667 -0.333008 -29.5 -1 -44.5l-2 -44.5l-2 -43.5c-0.666992 -14.333 -1 -28.5 -1 -42.5v-19c0 -6 0.333008 -12 1 -18v-7.5v-7.5c0 -8.66699 0.166992 -17.667 0.5 -27s0.5 -19.666 0.5 -30.999v-17c0 -6 -0.333008 -11.667 -1 -17c0 -16 -0.5 -31.667 -1.5 -47
s-2.16699 -29.666 -3.5 -42.999c-1.33301 -18.667 -2.66602 -35 -3.99902 -49s-2 -24 -2 -30c0 -2.66699 1.16699 -4.66699 3.5 -6s5.16602 -2 8.49902 -2c2 0 3.83301 0.166992 5.5 0.5s3.5 0.833008 5.5 1.5s4 1.16699 6 1.5s4 0.5 6 0.5v0z" />
    <glyph glyph-name="m" unicode="m" horiz-adv-x="963" 
d="M480 231l57.002 91.0039c68.667 112 112.167 184 130.5 216s31.5 49.333 39.5 52c0.666992 0.666992 1.5 1 2.5 1h2.5c3.33301 0 7.66602 -0.5 12.999 -1.5s10.666 -2.5 15.999 -4.5c4.66699 -1.33301 9.33398 -2.83301 14.001 -4.5s8.66699 -3.16699 12 -4.5
c2 -1.33301 3.83301 -2.66602 5.5 -3.99902s2.5 -2.66602 2.5 -3.99902c0 -4 -0.166992 -7.66699 -0.5 -11s-0.5 -6.66602 -0.5 -9.99902c-0.666992 -2.66699 -1.16699 -5.5 -1.5 -8.5s-0.5 -5.5 -0.5 -7.5c0 -26 3.5 -60.167 10.5 -102.5s15.167 -86.166 24.5 -131.499
l6 -30c2 -10 4.33301 -20 7 -30c11.333 -54 22 -102 32 -144s15 -66 15 -72c0 -4 -3 -7.83301 -9 -11.5s-12.667 -6.83398 -20 -9.50098c-6.66699 -2 -12.834 -3.66699 -18.501 -5s-9.16699 -2 -10.5 -2c-6 0 -10.167 1.5 -12.5 4.5s-4.16602 8.83301 -5.49902 17.5
c-4.66699 44 -10.667 87.5 -18 130.5l-22 125.5l-23.5 120.5c-7.66699 38.333 -13.834 74.5 -18.501 108.5c-87.333 -134.667 -142.166 -221.834 -164.499 -261.501s-34.166 -68.167 -35.499 -85.5c-0.666992 -11.333 -3.33398 -18.833 -8.00098 -22.5
s-11.667 -5.5 -21 -5.5c-6.66699 0 -12 1.16699 -16 3.5s-7.66699 6.5 -11 12.5c-1.33301 2 -2.5 4.33301 -3.5 7l-3.5 9c-4 10 -15.667 30.5 -35 61.5l-64 98.5c-0.666992 1.33301 -1.5 2.5 -2.5 3.5s-1.83301 2.16699 -2.5 3.5l-54 81.5l-40 59.5
c-2.66699 -11.333 -7.66699 -35.666 -15 -72.999l-24 -122c-0.666992 -3.33301 -1.33398 -6.33301 -2.00098 -9s-1 -5.33398 -1 -8.00098c-10 -51.333 -18.833 -98.833 -26.5 -142.5s-11.5 -68.5 -11.5 -74.5c0 -2.66699 0.166992 -5.33398 0.5 -8.00098
s0.833008 -5.33398 1.5 -8.00098s1.16699 -5.33398 1.5 -8.00098s0.5 -5.33398 0.5 -8.00098s-1.5 -5.16699 -4.5 -7.5s-7.83301 -3.5 -14.5 -3.5c-16 0 -30.5 1.83301 -43.5 5.5s-19.5 10.834 -19.5 21.501c0 5.33301 1.66699 12.833 5 22.5l14 41.5
c4.66699 13.333 10.834 35.833 18.501 67.5l24.5 105.5c2 8 3.83301 16 5.5 24s3.5 16.333 5.5 25c10 48 18.833 93.167 26.5 135.5s11.5 71.166 11.5 86.499c0 6 -0.5 10.667 -1.5 14s-2.16699 6.66602 -3.5 9.99902c0 0.666992 -0.166992 1.16699 -0.5 1.5l-1.5 1.5
c-0.666992 2 -1.33398 4.16699 -2.00098 6.5s-1 5.16602 -1 8.49902c0 7.33301 5 12.166 15 14.499s22.333 3.5 37 3.5c11.333 0 18.833 -1.16699 22.5 -3.5s6.16699 -7.16602 7.5 -14.499c2.66699 -14.667 13.167 -37.667 31.5 -69l60.5 -99
c2.66699 -3.33301 5.16699 -6.83301 7.5 -10.5l6.5 -10.5l60.5 -90l40.5 -60v0z" />
    <glyph glyph-name="n" unicode="n" horiz-adv-x="741" 
d="M141 121l11.9961 247.002c0.666992 12.667 1.16699 25.167 1.5 37.5s0.5 24.833 0.5 37.5c0 23.333 -4.5 39.833 -13.5 49.5s-18.833 16.834 -29.5 21.501c-3.33301 1.33301 -6.66602 2.5 -9.99902 3.5s-6.66602 2.16699 -9.99902 3.5
c-6.66699 2.66699 -12.334 5.5 -17.001 8.5s-7 7.5 -7 13.5c0 0.666992 0.166992 1.5 0.5 2.5s0.5 1.83301 0.5 2.5c0.666992 1.33301 1.83398 2.83301 3.50098 4.5s3.83398 3.5 6.50098 5.5l36 29c5.33301 4.66699 10 7.66699 14 9s7.33301 2 10 2
c1.33301 0 2.5 -0.166992 3.5 -0.5s2.16699 -0.5 3.5 -0.5c2.66699 -1.33301 5.33398 -3.16602 8.00098 -5.49902s6 -5.83301 10 -10.5l20.5 -24l20.5 -24l19.5 -22l19.5 -22l187 -208.5c58 -62.333 94.333 -99.833 109 -112.5c3.33301 20 6 39.667 8 59
s3.66699 38.333 5 57c0.666992 12.667 1.16699 25.5 1.5 38.5s0.5 25.833 0.5 38.5c0 26 -1 48.667 -3 68s-4 35.666 -6 48.999s-4 24 -6 32s-3 14.333 -3 19c0.666992 8.66699 5.66699 15 15 19s19.333 6.66699 30 8c4.66699 0 9.33398 0.166992 14.001 0.5s9 0.5 13 0.5
c9.33301 0 15.666 -2.83301 18.999 -8.5s5 -12.167 5 -19.5c0 -6.66699 -1.66699 -17.5 -5 -32.5s-7 -35.5 -11 -61.5c-4 -26.667 -7.66699 -59.334 -11 -98.001s-5 -85.667 -5 -141c0 -8 0.166992 -16.5 0.5 -25.5s0.5 -18.5 0.5 -28.5c0 -9.33301 0.166992 -19 0.5 -29
s0.5 -20.333 0.5 -31c0 -3.33301 -0.666992 -6.5 -2 -9.5s-3 -6.16699 -5 -9.5c-3.33301 -4.66699 -7.5 -9.33398 -12.5 -14.001l-14.5 -13c-7.33301 -5.33301 -14.166 -9.83301 -20.499 -13.5s-10.5 -5.5 -12.5 -5.5s-3.66699 1 -5 3s-2.33301 4.66699 -3 8
c-3.33301 8 -7.33301 20.167 -12 36.5s-12.667 33.166 -24 50.499c-2 4 -4.33301 7.66699 -7 11l-8 10l-30 34.5l-31 34.5l-125 132c-39.333 40 -67 69.333 -83 88c-0.666992 -14 -1.5 -28.167 -2.5 -42.5s-1.83301 -28.833 -2.5 -43.5c-2 -44 -3.16699 -86.5 -3.5 -127.5
s-0.5 -74.167 -0.5 -99.5v-9.5v-9.5c0 -4.66699 0.166992 -9 0.5 -13s0.5 -8 0.5 -12c0 -7.33301 0.166992 -14 0.5 -20s0.5 -11 0.5 -15v-3v-3c-0.666992 -4.66699 -2.33398 -9.16699 -5.00098 -13.5s-7 -7.16602 -13 -8.49902c-14.667 -3.33301 -26 -6 -34 -8
s-15.333 -3.33301 -22 -4h-2h-2c-6 0 -10.667 1 -14 3s-5 5.66699 -5 11c0 1.33301 0.166992 2.5 0.5 3.5s0.5 2.16699 0.5 3.5c1.33301 4 3.66602 8.33301 6.99902 13s7 10.667 11 18s7.83301 17.166 11.5 29.499s5.83398 27.833 6.50098 46.5v0z" />
    <glyph glyph-name="o" unicode="o" horiz-adv-x="630" 
d="M88 273c0 10 0.333008 20 1 30s2 20 4 30c9.33301 56.667 34 108.834 74 156.501s99 71.5 177 71.5c53.333 0 99.666 -21.167 138.999 -63.5s59 -109.833 59 -202.5c0 -88.667 -25.167 -156.334 -75.5 -203.001s-106.166 -70 -167.499 -70
c-4 0 -7.83301 0.166992 -11.5 0.5s-7.5 0.5 -11.5 0.5c-47.333 6 -90.5 30 -129.5 72s-58.5 101.333 -58.5 178v0zM160 289c0 -10 1.50098 -23.498 4.50098 -40.498s8.5 -35.167 16.5 -54.5c10.667 -26.667 27.5 -51.334 50.5 -74.001s54.167 -34 93.5 -34
c8 0 16.833 0.833008 26.5 2.5s19.5 4.5 29.5 8.5c23.333 10 45 29.167 65 57.5s30 71.166 30 128.499c0 82 -15.5 139.167 -46.5 171.5s-65.833 48.5 -104.5 48.5c-52.667 0 -93.334 -21.333 -122.001 -64s-43 -92.667 -43 -150v0z" />
    <glyph glyph-name="p" unicode="p" horiz-adv-x="519" 
d="M137 69l0.00292969 148.996c0 64 -0.833008 120.333 -2.5 169s-4.16699 84.334 -7.5 107.001c-0.666992 4 -1.66699 7.66699 -3 11s-4 6 -8 8c-4.66699 2.66699 -8.33398 5.33398 -11.001 8.00098s-4 6 -4 10c0 10.667 8 21 24 31s33.667 18.333 53 25
c13.333 4.66699 25.833 8.33398 37.5 11.001s21.167 4 28.5 4c10 0 20.833 -0.666992 32.5 -2s23.5 -3.33301 35.5 -6c9.33301 -2 18.666 -4.5 27.999 -7.5s18.333 -6.16699 27 -9.5l4 -2l4 -2c10 -6 19.667 -14.667 29 -26s17 -23.333 23 -36
c4 -8 7.16699 -15.833 9.5 -23.5s3.5 -14.5 3.5 -20.5c0 -22.667 -1.5 -42.167 -4.5 -58.5s-7.16699 -28.833 -12.5 -37.5c-3.33301 -5.33301 -7.5 -11.166 -12.5 -17.499l-15.5 -19.5l-14 -15.5l-14 -14.5c-12 -11.333 -23.5 -21 -34.5 -29s-19.5 -12 -25.5 -12
c-4 0 -8.5 0.666992 -13.5 2s-9.83301 3 -14.5 5c-4 2 -8 3.83301 -12 5.5s-7.66699 3.5 -11 5.5c-4.66699 2.66699 -8.5 5.33398 -11.5 8.00098s-4.5 5 -4.5 7c0 3.33301 1.66699 6.16602 5 8.49902s9.66602 4.5 18.999 6.5c31.333 6.66699 56.5 20.667 75.5 42
s28.5 45 28.5 71c0 6.66699 -0.5 14.667 -1.5 24s-2.83301 19 -5.5 29c-5.33301 18 -13.666 34.667 -24.999 50s-27 23 -47 23c-10.667 0 -20.5 -1 -29.5 -3s-18.167 -5 -27.5 -9l-10.5 -6l-11.5 -6c-0.666992 -3.33301 -1.16699 -6.83301 -1.5 -10.5s-0.5 -7.5 -0.5 -11.5
c-1.33301 -11.333 -2.5 -23.666 -3.5 -36.999s-1.83301 -27 -2.5 -41l-2 -45c-0.666992 -14.667 -1 -28 -1 -40v-264c0 -36.667 -4.16699 -63.667 -12.5 -81s-22.833 -26 -43.5 -26c-5.33301 0 -9.5 1.16699 -12.5 3.5s-4.5 6.16602 -4.5 11.499v0v1
c0 2.66699 0.666992 5.5 2 8.5s2.66602 7.16699 3.99902 12.5c1.33301 6 2.5 13.833 3.5 23.5s1.5 22.5 1.5 38.5v0z" />
    <glyph glyph-name="q" unicode="q" horiz-adv-x="685" 
d="M581 396c0 -45.333 -8.83691 -85.499 -26.5039 -120.499s-37.167 -64.5 -58.5 -88.5c-20 -22 -38.5 -38.833 -55.5 -50.5s-26.833 -17.5 -29.5 -17.5c-1.33301 0 -4.16602 0.166992 -8.49902 0.5s-9.16602 1.16602 -14.499 2.49902s-10.5 3.16602 -15.5 5.49902
s-7.5 5.5 -7.5 9.5v1v1c0.666992 1.33301 2.5 3.16602 5.5 5.49902s8.16699 5.83301 15.5 10.5c31.333 20.667 55.5 43 72.5 67s28.833 48.333 35.5 73c4 14 6.83301 27.667 8.5 41s2.5 26.666 2.5 39.999c0 43.333 -11.833 81.166 -35.5 113.499s-58.167 48.5 -103.5 48.5
c-12 0 -25.5 -2 -40.5 -6s-30.5 -10 -46.5 -18c-31.333 -15.333 -60 -38.833 -86 -70.5s-39 -71.5 -39 -119.5c0 -22 9.83301 -54.5 29.5 -97.5s59.834 -88.167 120.501 -135.5c32.667 -26 72.667 -51.333 120 -76s103.333 -47.667 168 -69
c28 -9.33301 50.5 -16.166 67.5 -20.499s32.833 -7.5 47.5 -9.5c8 -0.666992 16.333 -1.16699 25 -1.5s18 -0.5 28 -0.5c25.333 0 45.333 1 60 3s25.667 4.33301 33 7c3.33301 0.666992 6.16602 1.33398 8.49902 2.00098s4.16602 1 5.49902 1c4 0 7 -0.833008 9 -2.5
s3.66699 -3.83398 5 -6.50098c0 -0.666992 0.166992 -1.5 0.5 -2.5s0.5 -1.83301 0.5 -2.5c0 -1.33301 -0.666992 -3.16602 -2 -5.49902l-5 -8.5c-1.33301 -2 -3 -3.83301 -5 -5.5s-4 -3.16699 -6 -4.5l-48 -31c-3.33301 -1.33301 -6.16602 -2.66602 -8.49902 -3.99902
s-4.5 -2.33301 -6.5 -3c-2 0 -4 -0.166992 -6 -0.5s-4 -0.5 -6 -0.5c-23.333 0 -58.666 6 -105.999 18s-97.333 26.667 -150 44c-24.667 8 -49 16.667 -73 26l-69 28c-17.333 7.33301 -33.666 14.666 -48.999 21.999s-29 14.333 -41 21
c-35.333 21.333 -66.333 44.666 -93 69.999s-49 51.333 -67 78c-17.333 25.333 -30.5 50.5 -39.5 75.5s-13.5 47.833 -13.5 68.5c0 8.66699 0.5 17.334 1.5 26.001s2.5 17.334 4.5 26.001c12.667 60.667 43.667 116.334 93 167.001s105.666 76 168.999 76
c56.667 0 100.667 -11.333 132 -34s54.333 -47.667 69 -75c8.66699 -17.333 14.834 -34.333 18.501 -51s5.5 -30 5.5 -40v0z" />
    <glyph glyph-name="r" unicode="r" horiz-adv-x="796" 
d="M132 589l87.0029 23.0039c0.666992 0 1.5 0.166992 2.5 0.5s1.83301 0.5 2.5 0.5c5.33301 1.33301 10.833 2.33301 16.5 3s12.834 1 21.501 1c47.333 0 87.833 -12 121.5 -36s52.5 -50.333 56.5 -79c0.666992 -2 1 -3.83301 1 -5.5v-5.5c0 -36 -8.5 -64.167 -25.5 -84.5
s-35.5 -35.833 -55.5 -46.5c-6.66699 -4 -13.5 -7.33301 -20.5 -10s-13.5 -5 -19.5 -7c-12 -4 -20.333 -7 -25 -9s-7.33398 -3.66699 -8.00098 -5c-0.666992 0 -1 -0.166992 -1 -0.5v-1.5c0 -1.33301 0.833008 -2.5 2.5 -3.5s3.5 -2.16699 5.5 -3.5
c9.33301 -4.66699 35 -20.667 77 -48l135 -88l108.5 -69c34.333 -22 61.166 -38.667 80.499 -50c13.333 -7.33301 26.833 -13 40.5 -17s27.5 -6 41.5 -6h1.5h0.5c2 -0.666992 4 -2.33398 6 -5.00098s3 -6 3 -10c0 -2.66699 -2.16699 -6.66699 -6.5 -12
s-9.5 -10.666 -15.5 -15.999c-2.66699 -2.66699 -5.16699 -5 -7.5 -7s-4.83301 -4 -7.5 -6c-6 -5.33301 -12 -9.83301 -18 -13.5s-10.667 -5.5 -14 -5.5c-12 0 -40.833 16.5 -86.5 49.5l-152.5 109.5l-17 12.5l-18 12.5c-46 32.667 -90.333 62 -133 88s-77 41.333 -103 46
c-0.666992 -8 -1.33398 -17 -2.00098 -27s-1 -20.333 -1 -31c-0.666992 -11.333 -1 -22.333 -1 -33v-29c0 -26.667 0.5 -48.834 1.5 -66.501s2.16699 -32.167 3.5 -43.5c0.666992 -10.667 1.5 -19.334 2.5 -26.001s1.5 -12.667 1.5 -18
c0 -6.66699 -1.83301 -11.334 -5.5 -14.001s-10.167 -4 -19.5 -4c-4 0 -8.66699 0.5 -14 1.5s-11 2.16699 -17 3.5c-10 2 -19 5.33301 -27 10s-12 9.33398 -12 14.001c0 3.33301 1 6.83301 3 10.5s4.33301 8.83398 7 15.501c2 5.33301 4 12.166 6 20.499
s3.33301 18.5 4 30.5c0 5.33301 0.333008 16.666 1 33.999s1.33398 37.666 2.00098 60.999c0.666992 14 1.16699 28.333 1.5 43s0.833008 29.667 1.5 45c0 17.333 0.166992 34.166 0.5 50.499s0.5 31.833 0.5 46.5c0 8.66699 -0.166992 19.5 -0.5 32.5s-0.5 26.5 -0.5 40.5
c-1.33301 21.333 -2.83301 41 -4.5 59s-4.16699 28 -7.5 30c-6.66699 4 -11.834 8.33301 -15.501 13s-5.5 10.334 -5.5 17.001c0 1.33301 0.166992 2.5 0.5 3.5s1.16602 2.16699 2.49902 3.5c1.33301 2 3.5 4.16699 6.5 6.5s6.5 3.83301 10.5 4.5v0zM208.003 361.004
c0 -4 1 -6.83398 3 -8.50098s4 -2.83398 6 -3.50098h0.5h1.5c4 0 12.5 3 25.5 9s35.833 17.333 68.5 34c16 8.66699 27.667 23.5 35 44.5s11 43.167 11 66.5c0 9.33301 -1.5 17 -4.5 23s-6.5 11.667 -10.5 17c-0.666992 1.33301 -1.66699 2.5 -3 3.5s-3 2.16699 -5 3.5
c-2.66699 1.33301 -5.66699 2.66602 -9 3.99902l-10 4c-5.33301 2 -10.333 3.66699 -15 5s-8 2 -10 2c-2.66699 0 -7.16699 -0.333008 -13.5 -1s-12.833 -2 -19.5 -4c-8 -1.33301 -15.667 -3.5 -23 -6.5s-11.333 -6.5 -12 -10.5c-2 -10 -3.83301 -20.667 -5.5 -32
s-3.16699 -22.666 -4.5 -33.999c-2 -23.333 -3.5 -45.666 -4.5 -66.999s-1.5 -37.666 -1.5 -48.999v0z" />
    <glyph glyph-name="s" unicode="s" horiz-adv-x="389" 
d="M81 41c0 6 0.998047 10.5078 2.99805 13.5078s4.33301 4.83301 7 5.5c0.666992 0.666992 1.33398 1 2.00098 1h2c4.66699 0 9.83398 -1 15.501 -3l17.5 -6c6.66699 -2.66699 13.834 -5 21.501 -7s16.167 -3 25.5 -3c17.333 0 31.5 5.83301 42.5 17.5
s16.833 24.5 17.5 38.5v1.5v1.5c0 20 -6.66699 45 -20 75s-27.666 60.667 -42.999 92c-16 32 -30.667 62.833 -44 92.5s-20 54.5 -20 74.5c0 9.33301 3 22.166 9 38.499s14.333 33.166 25 50.499c15.333 25.333 34.333 48.666 57 69.999s46.667 32 72 32
c4 0 9.33301 -0.333008 16 -1s13.667 -1.66699 21 -3c10.667 -2.66699 20.5 -6 29.5 -10s13.5 -9 13.5 -15c0 -12.667 -2.5 -21.167 -7.5 -25.5s-16.833 -6.83301 -35.5 -7.5c-44 -0.666992 -75.667 -10.834 -95 -30.501s-29 -43.167 -29 -70.5
c0 -17.333 5.66699 -39.166 17 -65.499l38 -84.5l17 -41c6 -14 11.333 -27.667 16 -41c6 -18 11 -35.833 15 -53.5s6 -34.834 6 -51.501c0 -4.66699 -1.33301 -14.334 -4 -29.001s-7.66699 -30.334 -15 -47.001c-8.66699 -19.333 -20.834 -37 -36.501 -53
s-36.5 -24 -62.5 -24c-4.66699 0 -10.5 0.666992 -17.5 2s-14.167 3 -21.5 5l-21.5 8c-7 2.66699 -12.833 5.66699 -17.5 9c-2 1.33301 -3.83301 2.66602 -5.5 3.99902s-2.83398 2.66602 -3.50098 3.99902l-2 6l-2 6l-2 12c-0.666992 4 -1 8 -1 12v0z" />
    <glyph glyph-name="t" unicode="t" horiz-adv-x="500" 
d="M193 501l-114.001 0.00195312c-2.66699 0 -5.66699 -0.166992 -9 -0.5s-6.66602 -0.5 -9.99902 -0.5c-2.66699 0 -5.66699 -0.166992 -9 -0.5s-6.66602 -0.5 -9.99902 -0.5c-6.66699 0 -12 3.16699 -16 9.5s-6.33301 13.166 -7 20.499
c-0.666992 1.33301 -1 2.66602 -1 3.99902v4c0 2 0.5 4 1.5 6s2.16699 4 3.5 6c2 2.66699 4.16699 5.16699 6.5 7.5s4.83301 4.5 7.5 6.5c2 1.33301 4 2.33301 6 3s3.66699 1 5 1c7.33301 0 15.833 -0.333008 25.5 -1s21.834 -1.66699 36.501 -3
c14.667 -0.666992 32 -1.5 52 -2.5s44 -1.5 72 -1.5c18 0 36.167 0.5 54.5 1.5s36.833 1.83301 55.5 2.5c18.667 1.33301 37.167 2.33301 55.5 3s36.5 1 54.5 1c5.33301 0 9.16602 -1.16699 11.499 -3.5s3.5 -5.83301 3.5 -10.5c0 -2 -1 -4.83301 -3 -8.5
s-4.66699 -7.16699 -8 -10.5c-3.33301 -4 -6.83301 -7.5 -10.5 -10.5s-7.16699 -5.5 -10.5 -7.5l-7 -3.5c-2 -1 -4 -1.5 -6 -1.5c-9.33301 -0.666992 -20 -1.33398 -32 -2.00098l-36 -2c-14.667 -0.666992 -28.667 -1.16699 -42 -1.5s-25 -0.5 -35 -0.5
c-6.66699 -38.667 -11.667 -85.834 -15 -141.501s-5 -131.167 -5 -226.5v-5.5v-4.5c1.33301 -19.333 8.16602 -37.166 20.499 -53.499s34.5 -24.5 66.5 -24.5c2 0 4.33301 0.166992 7 0.5s5.33398 0.5 8.00098 0.5h1.5c0.333008 0 0.5 0.333008 0.5 1
c3.33301 0 6.33301 0.166992 9 0.5s5 0.5 7 0.5c3.33301 0 5.66602 -1.33301 6.99902 -4s2.33301 -6 3 -10v-3.5v-3.5c0 -4.66699 -0.666992 -9 -2 -13s-3.66602 -7.33301 -6.99902 -10c-4 -3.33301 -9.5 -6.5 -16.5 -9.5s-14.167 -5.83301 -21.5 -8.5
c-4.66699 -1.33301 -9.33398 -2.33301 -14.001 -3s-9 -1 -13 -1c-30 0 -55.5 8.33301 -76.5 25s-35.833 35 -44.5 55c-2.66699 6 -4.66699 12.167 -6 18.5s-2 12.166 -2 17.499c0 6.66699 0.833008 15.334 2.5 26.001s3.5 24.667 5.5 42
c1.33301 17.333 2.83301 38.666 4.5 63.999s2.5 55.666 2.5 90.999v44c0 14.667 -0.333008 29.334 -1 44.001s-1.5 29.334 -2.5 44.001s-2.16699 29.334 -3.5 44.001v0z" />
    <glyph glyph-name="u" unicode="u" horiz-adv-x="704" 
d="M125 555c0 15.333 1.49512 26.335 4.49512 33.002s9.5 10 19.5 10c4 0 9.5 -1.33301 16.5 -4s14.5 -6.33398 22.5 -11.001c4.66699 -2.66699 9.5 -5.66699 14.5 -9s9.5 -7 13.5 -11c4.66699 -3.33301 8.33398 -6.83301 11.001 -10.5s4 -7.16699 4 -10.5v-2.5
c0 -1 -0.333008 -1.83301 -1 -2.5c-0.666992 -4.66699 -2.66699 -9.66699 -6 -15s-6.66602 -13.333 -9.99902 -24c-4 -12.667 -7.83301 -30.5 -11.5 -53.5s-5.5 -55.167 -5.5 -96.5c0 -42.667 1.33301 -79.834 4 -111.501s9.33398 -59.834 20.001 -84.501
c6.66699 -14.667 18.5 -28.667 35.5 -42s35.167 -23.666 54.5 -30.999c9.33301 -4 18.666 -7.16699 27.999 -9.5s18 -3.5 26 -3.5c50 0 86.167 20.667 108.5 62s37.166 87 44.499 137c4 26.667 6.5 52.834 7.5 78.501s1.5 48.167 1.5 67.5c0 24 -0.666992 44 -2 60
s-2.66602 29 -3.99902 39s-2.66602 17.667 -3.99902 23s-2 9.66602 -2 12.999c0 8.66699 3.66699 14.667 11 18s16.333 5 27 5c12.667 0 24.167 -2.83301 34.5 -8.5s15.5 -14.167 15.5 -25.5c0 -12.667 -2 -37.334 -6 -74.001s-9.33301 -75.667 -16 -117l-10 -61.5
c-3.33301 -20.333 -6.66602 -39.166 -9.99902 -56.499c-3.33301 -14.667 -6.5 -27.667 -9.5 -39s-5.83301 -20.666 -8.5 -27.999c-12 -31.333 -28.833 -57.5 -50.5 -78.5s-44.167 -37.833 -67.5 -50.5c-6 -3.33301 -12 -6.33301 -18 -9s-12 -5 -18 -7
c-6.66699 -2.66699 -13.5 -4.33398 -20.5 -5.00098s-13.833 -1 -20.5 -1c-10.667 0 -22.667 1.33301 -36 4s-26.666 6.33398 -39.999 11.001c-21.333 7.33301 -41.5 17.333 -60.5 30s-32.833 27.667 -41.5 45c-16 31.333 -27.5 89.666 -34.5 174.999
s-10.5 179.333 -10.5 282v0z" />
    <glyph glyph-name="v" unicode="v" horiz-adv-x="630" 
d="M5 564c0 8.66699 6.00391 16.5039 18.0039 23.5039s34 10.5 66 10.5c13.333 0 22.5 -1 27.5 -3s8.5 -6.66699 10.5 -14c6.66699 -24 15 -49.333 25 -76l31 -80l18 -41.5l17 -40.5l62 -136c19.333 -41.333 33.333 -73.333 42 -96l23.5 39l23.5 41
c6 9.33301 11.667 18.833 17 28.5l16 28.5c34 62 64 120 90 174s39 89 39 105c0 15.333 1.66699 25.666 5 30.999s9.66602 8 18.999 8c6 0 13.167 -0.666992 21.5 -2s16.833 -3 25.5 -5c1.33301 0 2.66602 -0.166992 3.99902 -0.5s2.66602 -0.833008 3.99902 -1.5
c6 -1.33301 10 -3 12 -5s3 -4.66699 3 -8c0 -5.33301 -12 -30 -36 -74l-81 -144c-2 -2.66699 -3.66699 -5.33398 -5 -8.00098s-3 -5.33398 -5 -8.00098l-34.5 -59l-32.5 -54c-34 -55.333 -55.333 -99 -64 -131s-14.667 -53.333 -18 -64
c-1.33301 -2.66699 -2.5 -4.83398 -3.5 -6.50098s-2.5 -2.5 -4.5 -2.5c-15.333 0 -28 2 -38 6s-16 8.66699 -18 14c-25.333 68.667 -52.833 136.5 -82.5 203.5s-59.834 130.167 -90.501 189.5l-32 61.5l-32 56.5c-2 4 -4.83301 7.16699 -8.5 9.5l-11.5 7.5
c-0.666992 0.666992 -1.5 1.16699 -2.5 1.5s-2.16699 0.833008 -3.5 1.5c-4.66699 2.66699 -8.66699 5.5 -12 8.5s-5 6.83301 -5 11.5v0z" />
    <glyph glyph-name="w" unicode="w" horiz-adv-x="944" 
d="M15 550c0 2.66699 1.83301 6.00195 5.5 10.002s8.5 8.33301 14.5 13c2.66699 2 5.83398 4.16699 9.50098 6.5s7.16699 4.83301 10.5 7.5c7.33301 4 14.333 7.5 21 10.5s11.667 4.5 15 4.5c6.66699 0 11.334 -1.5 14.001 -4.5s4 -7.16699 4 -12.5
c0 -16 8.16699 -47.5 24.5 -94.5s35.166 -97.167 56.499 -150.5c2.66699 -7.33301 5.5 -14.666 8.5 -21.999l9.5 -23l49.5 -113.5c15.667 -35 27.834 -60.833 36.501 -77.5l36 54.5l53 80.5c2 2.66699 3.83301 5.33398 5.5 8.00098s3.5 5.33398 5.5 8.00098
c18 27.333 34.5 53.833 49.5 79.5s25.5 45.834 31.5 60.501c2.66699 7.33301 5.16699 13 7.5 17s4.83301 6.66699 7.5 8c1.33301 2 2.83301 3.16699 4.5 3.5s3.5 0.5 5.5 0.5s4.5 -0.333008 7.5 -1s6.16699 -1.33398 9.5 -2.00098c5.33301 -2 10 -4.16699 14 -6.5
s6 -4.83301 6 -7.5c0 -10.667 9.33301 -41.334 28 -92.001s49.334 -117.667 92.001 -201c8 19.333 21 46.833 39 82.5l58 112.5l70.5 139c21.667 43.333 32.5 70.333 32.5 81c0 12 1.66699 20 5 24s8 6 14 6c2.66699 0 6.83398 -1.16699 12.501 -3.5s11.5 -5.5 17.5 -9.5
l7 -4.5l7 -4.5c5.33301 -4 9.83301 -7.83301 13.5 -11.5s5.5 -6.5 5.5 -8.5c0 -8.66699 -7 -22.334 -21 -41.001s-38 -57.334 -72 -116.001c-4.66699 -7.33301 -9.16699 -14.833 -13.5 -22.5s-8.5 -15.5 -12.5 -23.5c-36.667 -65.333 -68.834 -126.666 -96.501 -183.999
s-42.5 -93 -44.5 -107c-0.666992 -6.66699 -2.5 -12.167 -5.5 -16.5s-6.5 -6.5 -10.5 -6.5c-2.66699 0 -6.33398 0.166992 -11.001 0.5s-9.66699 1.16602 -15 2.49902c-6 1.33301 -11.833 3.66602 -17.5 6.99902s-9.5 8 -11.5 14c-4 14 -9.66699 32.333 -17 55
s-15.666 46 -24.999 70c-7.33301 19.333 -15.333 38.333 -24 57s-17.334 35 -26.001 49c-4 7.33301 -8.16699 13.666 -12.5 18.999s-8.5 10 -12.5 14l-33 -40.5c-12 -15 -24 -30.833 -36 -47.5l-12 -16c-4 -5.33301 -7.66699 -11 -11 -17
c-22.667 -30.667 -42.334 -60 -59.001 -88s-26 -48.333 -28 -61c-0.666992 -4 -4.33398 -7.83301 -11.001 -11.5s-14 -6.5 -22 -8.5c-5.33301 -1.33301 -10.333 -2.5 -15 -3.5s-8.66699 -1.5 -12 -1.5c-6.66699 0 -11.5 1.66699 -14.5 5s-4.5 10.333 -4.5 21
c0 15.333 -10 54 -30 116s-68.333 173 -145 333c-11.333 24 -21.333 41.5 -30 52.5s-13 20.833 -13 29.5v0z" />
    <glyph glyph-name="x" unicode="x" horiz-adv-x="630" 
d="M289 302l-94.999 104.997c-50 55.333 -83.333 93.5 -100 114.5s-25 34.167 -25 39.5c0 3.33301 1.33301 6 4 8s5.66699 4 9 6l38 22c0.666992 0 1.33398 0.166992 2.00098 0.5s1.33398 0.833008 2.00098 1.5c2 0.666992 4.16699 1.33398 6.5 2.00098s4.83301 1 7.5 1
c2 0 3.66699 -0.5 5 -1.5s2.66602 -2.83301 3.99902 -5.5c3.33301 -6 8.16602 -16.667 14.499 -32s19.5 -35 39.5 -59l128 -159l103.5 139.5c28.333 39 42.833 61.167 43.5 66.5c1.33301 7.33301 3.66602 12.5 6.99902 15.5s9.66602 4.5 18.999 4.5
c20 0 35.833 -0.833008 47.5 -2.5s17.5 -4.83398 17.5 -9.50098c0 -1.33301 -0.166992 -2.66602 -0.5 -3.99902s-0.5 -2.66602 -0.5 -3.99902c-1.33301 -3.33301 -3.5 -6.66602 -6.5 -9.99902s-7.5 -8 -13.5 -14c-10 -9.33301 -22.5 -22.5 -37.5 -39.5l-46.5 -54.5
c-2 -2.66699 -4 -5.16699 -6 -7.5s-4.33301 -4.83301 -7 -7.5l-52 -66.5c-16 -21 -27.333 -36.5 -34 -46.5c7.33301 -10.667 19.5 -26 36.5 -46l54.5 -62c0.666992 -1.33301 1.5 -2.5 2.5 -3.5l2.5 -2.5l43.5 -49.5l36.5 -40.5c8.66699 -10 16.167 -17 22.5 -21
s11.166 -7.66699 14.499 -11c2 -1.33301 3.33301 -2.83301 4 -4.5s1 -3.5 1 -5.5s-0.333008 -4.33301 -1 -7s-1.66699 -5.66699 -3 -9l-19 -36c-0.666992 -0.666992 -1.16699 -1.5 -1.5 -2.5s-0.833008 -1.83301 -1.5 -2.5c-3.33301 -5.33301 -7 -9.33301 -11 -12
s-9 -4 -15 -4c-1.33301 0 -2.66602 0.333008 -3.99902 1s-2.66602 2 -3.99902 4c-4 5.33301 -9.5 15.5 -16.5 30.5s-19.833 34.5 -38.5 58.5l-42.5 56c-21.667 28.667 -55.167 70.334 -100.5 125.001c-4 -4 -7.83301 -8.16699 -11.5 -12.5s-7.5 -8.5 -11.5 -12.5l-27.5 -33
l-26.5 -35c-25.333 -33.333 -47.5 -64.833 -66.5 -94.5s-30.5 -49.167 -34.5 -58.5c-2 -4.66699 -4.83301 -8.66699 -8.5 -12s-7.16699 -6 -10.5 -8c-2 -0.666992 -3.83301 -1.16699 -5.5 -1.5s-3.16699 -0.5 -4.5 -0.5c-2 0 -6 0.333008 -12 1s-12.333 1.66699 -19 3
c-8 1.33301 -15.333 3.16602 -22 5.49902s-10 5.83301 -10 10.5c0 4 3.16699 10.333 9.5 19s19.833 24 40.5 46c2.66699 3.33301 5.5 6.5 8.5 9.5l8.5 8.5l31.5 36l30.5 36l57.5 71l49.5 63v0z" />
    <glyph glyph-name="y" unicode="y" horiz-adv-x="556" 
d="M217 -84c-4 0.666992 -8.66699 2.16309 -14 4.49609s-11 5.16602 -17 8.49902c-4 2 -7.83301 4.33301 -11.5 7s-6.83398 5.33398 -9.50098 8.00098c-6 4.66699 -10.833 9 -14.5 13s-5.5 7.33301 -5.5 10c0 4 1.16699 7.5 3.5 10.5s8.5 5.5 18.5 7.5
c4.66699 1.33301 9.33398 3.5 14.001 6.5s9.33398 6.83301 14.001 11.5c14 13.333 26.833 32.333 38.5 57s18.834 50.667 21.501 78c0.666992 2.66699 1 5.5 1 8.5v8.5v2.5v3.5c-0.666992 14.667 -8.5 34.5 -23.5 59.5s-49.833 75.167 -104.5 150.5
c-38 53.333 -67.5 91.166 -88.5 113.499s-31.5 39.833 -31.5 52.5c0 3.33301 1.5 7.33301 4.5 12s6.83301 9.33398 11.5 14.001l12.5 10.5c4.33301 3.66699 8.83301 6.83398 13.5 9.50098c6 4.66699 12 8.33398 18 11.001s11 4 15 4c6 0 9.83301 -2.5 11.5 -7.5
s3.16699 -11.167 4.5 -18.5l2 -14c0.666992 -4.66699 1.66699 -9.66699 3 -15c0.666992 -0.666992 1.16699 -1.5 1.5 -2.5s0.5 -1.83301 0.5 -2.5c7.33301 -19.333 20.333 -43.166 39 -71.499l59 -88.5l58.5 -87.5c18.333 -28.333 31.5 -52.166 39.5 -71.499l16 30l16 31
l6 10.5l6 11.5l75.5 144.5c23 45 34.5 77.833 34.5 98.5c0 13.333 1.5 21.833 4.5 25.5s8.16699 5.5 15.5 5.5c3.33301 0 8.16602 -0.666992 14.499 -2s12.833 -3.33301 19.5 -6c10 -4 19.167 -8.66699 27.5 -14s12.5 -11 12.5 -17v-2
c0 -0.666992 -0.333008 -1.33398 -1 -2.00098c-1.33301 -4.66699 -5.83301 -10.5 -13.5 -17.5s-17.167 -20.5 -28.5 -40.5l-172 -305c-5.33301 -9.33301 -12.333 -25.666 -21 -48.999l-27 -75l-8 -20l-8 -20c-10 -24 -19.833 -44.833 -29.5 -62.5
s-17.834 -26.5 -24.501 -26.5v-1z" />
    <glyph glyph-name="z" unicode="z" horiz-adv-x="630" 
d="M428 23l-140.997 0.00292969c-48.667 0 -87 -0.833008 -115 -2.5s-49.667 -3.5 -65 -5.5c-14.667 -2.66699 -24.667 -4.83398 -30 -6.50098s-9.66602 -2.5 -12.999 -2.5c-1.33301 0 -3.66602 1.33301 -6.99902 4s-7 6.33398 -11 11.001c-2 2 -4 4.33301 -6 7
s-3.66699 5.33398 -5 8.00098c-2.66699 3.33301 -4.66699 6.83301 -6 10.5s-2 6.83398 -2 9.50098c0 10.667 36.833 54.167 110.5 130.5s154.5 164.833 242.5 265.5l30 34.5l30 35.5l-138 -6c-16.667 -0.666992 -30.834 -1.33398 -42.501 -2.00098s-22.834 -1 -33.501 -1
c-8.66699 -0.666992 -17.334 -1 -26.001 -1h-30c-34.667 0 -57 1.16699 -67 3.5s-15 8.16602 -15 17.499c0 3.33301 0.666992 7.66602 2 12.999s3 10.666 5 15.999c2.66699 8 6.33398 15.667 11.001 23s9.33398 11.666 14.001 12.999h1.5h1.5c2 0 3.66699 -0.166992 5 -0.5
s3 -1.16602 5 -2.49902c2 -0.666992 4.16699 -2 6.5 -4s5.16602 -4 8.49902 -6c4.66699 -2.66699 10.334 -5.33398 17.001 -8.00098s15.334 -4 26.001 -4c6 0 17.333 -0.166992 34 -0.5s34.334 -0.833008 53.001 -1.5h29.5h26.5h26h28c18 0.666992 34.833 1.16699 50.5 1.5
s27.167 0.5 34.5 0.5c3.33301 0 6.5 0.333008 9.5 1s5.5 1.33398 7.5 2.00098c1.33301 0.666992 2.5 1.16699 3.5 1.5s2.16699 0.833008 3.5 1.5c1.33301 0 2.66602 0.166992 3.99902 0.5s2.66602 0.5 3.99902 0.5c2 0 5.16699 -0.666992 9.5 -2s8.83301 -3.33301 13.5 -6
c5.33301 -2.66699 10.166 -5.83398 14.499 -9.50098s7.5 -7.5 9.5 -11.5c0 -0.666992 0.166992 -1.5 0.5 -2.5s0.5 -1.83301 0.5 -2.5c0 -7.33301 -21.667 -33.166 -65 -77.499l-142 -148.5c-5.33301 -4.66699 -10.333 -9.66699 -15 -15s-9.33398 -10.333 -14.001 -15
c-39.333 -42 -75.166 -82.167 -107.499 -120.5s-53.833 -69.833 -64.5 -94.5h94c43.333 0 83.666 1 120.999 3s68.666 4.33301 93.999 7c14.667 1.33301 26.834 2.66602 36.501 3.99902s16.5 2.33301 20.5 3c4.66699 1.33301 9.5 3.16602 14.5 5.49902l14.5 6.5l19.5 9.5
c6.33301 3 11.833 4.5 16.5 4.5c3.33301 0 6 -1.16699 8 -3.5s3.66699 -4.83301 5 -7.5c0 -1.33301 0.166992 -2.5 0.5 -3.5s0.5 -2.16699 0.5 -3.5s-0.833008 -6.16602 -2.5 -14.499s-3.83398 -17.5 -6.50098 -27.5c-2.66699 -10.667 -6.16699 -20.334 -10.5 -29.001
s-8.83301 -13 -13.5 -13c-4 0 -9.83301 0.333008 -17.5 1s-16.834 1.66699 -27.501 3c-11.333 0.666992 -24 1.33398 -38 2.00098s-29.333 1 -46 1v0z" />
    <glyph glyph-name="braceleft" unicode="{" horiz-adv-x="333" 
d="M75 263v39.9951c26.667 0 45.667 11.833 57 35.5s17 50.834 17 81.501v132c0 30.667 8.66699 54.834 26 72.501s39.666 26.5 66.999 26.5h55v-40h-48c-14.667 0 -25.334 -7.66699 -32.001 -23s-10 -33 -10 -53v-131c0 -24 -4 -44 -12 -60s-17 -28.667 -27 -38
c-7.33301 -6.66699 -14.166 -11.667 -20.499 -15s-11.166 -5.66602 -14.499 -6.99902v-2c3.33301 -1.33301 8.16602 -3.66602 14.499 -6.99902s13.166 -8.66602 20.499 -15.999c10 -9.33301 19 -22 27 -38s12 -36.333 12 -61v-128c0 -19.333 3.33301 -36.666 10 -51.999
s17.334 -23 32.001 -23l48 -1v-40h-55c-27.333 0.666992 -49.666 9.66699 -66.999 27s-26 41 -26 71v131c0 31.333 -5.66699 58.666 -17 81.999s-30.333 35.333 -57 36v0z" />
    <glyph glyph-name="bar" unicode="|" horiz-adv-x="500" 
 />
    <glyph glyph-name="braceright" unicode="}" horiz-adv-x="333" 
d="M36 -84v40.0059h48c14.667 0.666992 25.334 8.5 32.001 23.5s10 32.5 10 52.5v131c0 24 4 44 12 60s17 28.667 27 38c7.33301 6.66699 14.166 11.667 20.499 15s11.166 5.66602 14.499 6.99902v2c-3.33301 1.33301 -8.16602 3.66602 -14.499 6.99902
s-13.166 8.66602 -20.499 15.999c-10 9.33301 -19 22 -27 38s-12 36.333 -12 61v128c0 19.333 -3.33301 36.833 -10 52.5s-17.334 23.5 -32.001 23.5h-48v40h55c27.333 0 49.666 -8.66699 66.999 -26s26 -41.333 26 -72v-131c0 -30.667 5.66699 -57.834 17 -81.501
s30.333 -35.834 57 -36.501v-40c-26.667 0 -45.667 -11.833 -57 -35.5s-17 -50.834 -17 -81.501v-132c0 -30 -8.66699 -53.833 -26 -71.5s-39.666 -26.5 -66.999 -26.5l-55 -1v0z" />
    <glyph glyph-name="asciitilde" unicode="~" horiz-adv-x="500" 
 />
    <glyph glyph-name="exclamdown" unicode="&#xa1;" horiz-adv-x="315" 
d="M112 -47c0 10.667 1.16602 21.9961 3.49902 33.9961s4.83301 29.667 7.5 53c2 22.667 4.16699 52.5 6.5 89.5s3.5 84.833 3.5 143.5v8.5v9.5c-0.666992 2.66699 -1 5.83398 -1 9.50098v10.5c0 4.66699 1.33301 7.83398 4 9.50098s5.33398 2.5 8.00098 2.5
s5.83398 -1 9.50098 -3s7.83398 -4.66699 12.501 -8c2 -1.33301 4 -2.83301 6 -4.5s4 -3.5 6 -5.5c4 -3.33301 7.16699 -6.66602 9.5 -9.99902s3.5 -6 3.5 -8c0 -14 0.166992 -28.167 0.5 -42.5s0.833008 -28.833 1.5 -43.5s1.16699 -29.167 1.5 -43.5s0.5 -28.5 0.5 -42.5
v-18v-18c-0.666992 -6 -1 -12 -1 -18v-18c0 -10 1.16699 -19.167 3.5 -27.5s4.83301 -15.5 7.5 -21.5c2.66699 -6.66699 5.16699 -12.334 7.5 -17.001s3.5 -8.66699 3.5 -12c0 -1.33301 -0.5 -2.83301 -1.5 -4.5s-2.16699 -3.5 -3.5 -5.5s-2.83301 -3.66699 -4.5 -5
s-3.16699 -2.66602 -4.5 -3.99902c-0.666992 -0.666992 -1.33398 -1.16699 -2.00098 -1.5s-1.33398 -0.833008 -2.00098 -1.5l-28 -19c-0.666992 0.666992 -1.16699 0.833984 -1.5 0.500977l-1.5 -1.5l-6 -2c-2 -0.666992 -4 -1 -6 -1c-1.33301 0 -4 1.16699 -8 3.5
s-8.33301 5.16602 -13 8.49902c-2 1.33301 -4 2.83301 -6 4.5s-4 3.5 -6 5.5c-2.66699 2.66699 -5 5.33398 -7 8.00098s-3 5 -3 7v-1zM98.999 453.996c0 3.33301 0.666016 6.82812 1.99902 10.4951s3 7.16699 5 10.5c4.66699 8.66699 11.334 16.667 20.001 24
s18.334 11 29.001 11c2.66699 0 5.16699 -0.333008 7.5 -1s4.83301 -1.33398 7.5 -2.00098c4.66699 -2 9.33398 -4.66699 14.001 -8s8.66699 -6.66602 12 -9.99902c4 -3.33301 7.16699 -6.66602 9.5 -9.99902s3.5 -6 3.5 -8c0 -3.33301 -0.5 -6.5 -1.5 -9.5
s-2.5 -6.16699 -4.5 -9.5c-2.66699 -5.33301 -6 -10.333 -10 -15s-8 -9 -12 -13c-5.33301 -5.33301 -10.5 -9.66602 -15.5 -12.999s-8.5 -5 -10.5 -5c-3.33301 0 -7 0.833008 -11 2.5s-8.33301 3.83398 -13 6.50098c-4.66699 3.33301 -9.33398 7 -14.001 11
s-8.33398 8 -11.001 12c-2 2.66699 -3.66699 5.33398 -5 8.00098s-2 5.33398 -2 8.00098v0z" />
    <glyph glyph-name="cent" unicode="&#xa2;" horiz-adv-x="500" 
d="M282 204l-31.9951 -150.007c4 -0.666992 7.83301 -1.5 11.5 -2.5s7.5 -1.83301 11.5 -2.5c4 -1.33301 7.83301 -2.16602 11.5 -2.49902s7.5 -0.5 11.5 -0.5c12 0 23.833 2.16699 35.5 6.5s22.5 8.83301 32.5 13.5c10.667 5.33301 20.667 10 30 14s17.666 6 24.999 6
c2.66699 0 5 -0.5 7 -1.5s3 -2.83301 3 -5.5c0 -2 -0.666992 -5 -2 -9s-3 -8.33301 -5 -13l-6 -10.5c-2 -3.66699 -4.33301 -6.5 -7 -8.5c-0.666992 -1.33301 -1.33398 -2.16602 -2.00098 -2.49902s-1.33398 -0.833008 -2.00098 -1.5c-7.33301 -4 -17.166 -8 -29.499 -12
s-25.166 -7.33301 -38.499 -10c-14.667 -4 -28.834 -7 -42.501 -9s-23.5 -3 -29.5 -3c-4.66699 0 -9.5 0.333008 -14.5 1l-14.5 2c-1.33301 -4.66699 -2.83301 -10.667 -4.5 -18s-3.16699 -15.666 -4.5 -24.999c-1.33301 -5.33301 -2.5 -11.166 -3.5 -17.499
s-2.16699 -12.5 -3.5 -18.5c-0.666992 -4 -1.16699 -7.66699 -1.5 -11s-0.833008 -6.66602 -1.5 -9.99902c-0.666992 -7.33301 -2.5 -13.833 -5.5 -19.5s-6.16699 -8.5 -9.5 -8.5c-0.666992 0 -1.83398 0.833008 -3.50098 2.5s-3.16699 3.5 -4.5 5.5s-2.5 4.16699 -3.5 6.5
s-1.83301 4.5 -2.5 6.5c-1.33301 2.66699 -2.33301 5.33398 -3 8.00098s-1 5 -1 7c0 6.66699 2.5 18 7.5 34s10.5 36.333 16.5 61l-30 17c-9.33301 5.33301 -18 11 -26 17c-33.333 23.333 -55.166 49.166 -65.499 77.499s-15.5 67.166 -15.5 116.499
c0 5.33301 0.333008 10.5 1 15.5s1.66699 10.167 3 15.5c5.33301 18.667 13.666 37 24.999 55s23.666 34.333 36.999 49l15.5 15.5c5 5 9.83301 9.5 14.5 13.5c0.666992 0.666992 1.33398 1.16699 2.00098 1.5s1.33398 0.833008 2.00098 1.5c8 6 19.167 11.667 33.5 17
s29.166 10 44.499 14c9.33301 2 18.5 3.66699 27.5 5s17.5 2 25.5 2c1.33301 5.33301 2.66602 11 3.99902 17l4 18c0.666992 3.33301 1.5 6.5 2.5 9.5s1.83301 6.16699 2.5 9.5c2.66699 10 5.33398 19.167 8.00098 27.5s4.66699 13.833 6 16.5
c0.666992 1.33301 1.5 2.66602 2.5 3.99902s2.16699 2.66602 3.5 3.99902c2.66699 2 5.5 4 8.5 6s5.83301 3.66699 8.5 5c4.66699 2.66699 9.16699 4.83398 13.5 6.50098s7.5 2.5 9.5 2.5c3.33301 0 6.16602 -0.666992 8.49902 -2s3.5 -4.66602 3.5 -9.99902
c0 -3.33301 -2.16699 -8.33301 -6.5 -15s-9.16602 -18 -14.499 -34l-21 -61c33.333 -1.33301 55.666 -3.66602 66.999 -6.99902s17 -8.66602 17 -15.999c0 -2.66699 -0.833008 -6.66699 -2.5 -12s-3.83398 -10.666 -6.50098 -15.999
c-1.33301 -3.33301 -2.83301 -6.5 -4.5 -9.5s-3.16699 -5.83301 -4.5 -8.5c-2.66699 -4 -5.16699 -7.33301 -7.5 -10s-4.5 -4 -6.5 -4c-2.66699 0 -7 1.83301 -13 5.5s-14 7.5 -24 11.5c-4 2 -8.5 4 -13.5 6s-10.5 3.66699 -16.5 5c-2.66699 -8 -5.16699 -16 -7.5 -24
s-4.5 -16 -6.5 -24c-2.66699 -8 -5 -16 -7 -24l-6 -24l-21 -88v0zM220.005 61.9932l70.999 330.998c-4.66699 0 -9.66699 -0.5 -15 -1.5s-11 -2.16699 -17 -3.5c-9.33301 -3.33301 -18.666 -7.5 -27.999 -12.5s-17 -10.833 -23 -17.5c-10 -11.333 -19 -25.5 -27 -42.5
s-14.667 -34.167 -20 -51.5c-6 -18.667 -10.5 -36.5 -13.5 -53.5s-4.5 -31.167 -4.5 -42.5c0 -5.33301 0.5 -11.166 1.5 -17.499s2.83301 -12.5 5.5 -18.5c5.33301 -14.667 13.833 -28.667 25.5 -42s26.5 -22.666 44.5 -27.999v0z" />
    <glyph glyph-name="sterling" unicode="&#xa3;" horiz-adv-x="537" 
d="M279 411l-24.0029 -77.998h132c6.66699 0 11.5 -1 14.5 -3s4.5 -6 4.5 -12c0 -6.66699 -4.5 -12.667 -13.5 -18s-18.833 -9 -29.5 -11c-2.66699 -0.666992 -5.16699 -1.16699 -7.5 -1.5s-4.83301 -0.5 -7.5 -0.5l-105 -2l-36 -104l-12 -35c-2.66699 -8 -4 -15.333 -4 -22
v-0.5v-1.5c0 -14.667 1.66699 -25.5 5 -32.5s7 -12.167 11 -15.5c2.66699 -1.33301 5.16699 -2.33301 7.5 -3s4.16602 -1 5.49902 -1c8 0 15 0.833008 21 2.5s11.333 3.5 16 5.5c2 0.666992 3.83301 1.5 5.5 2.5s3.5 1.83301 5.5 2.5l8 2
c2.66699 0.666992 5.33398 1 8.00098 1c8 0 17.667 -0.833008 29 -2.5s22.666 -3.83398 33.999 -6.50098c3.33301 -0.666992 6.33301 -1.33398 9 -2.00098l8 -2l39.5 -9c11.667 -2.66699 19.834 -4 24.501 -4c6 0 11.167 0.5 15.5 1.5s8.16602 2.5 11.499 4.5l8.5 3.5
c2.33301 1 4.5 1.5 6.5 1.5h1.5h0.5c2 -1.33301 4 -3 6 -5s3.66699 -4.33301 5 -7c0.666992 -1.33301 1.16699 -2.66602 1.5 -3.99902s0.5 -2.66602 0.5 -3.99902c0 -2 -2.66699 -5.33301 -8 -10s-11.666 -9.33398 -18.999 -14.001l-13.5 -8
c-4.33301 -2.66699 -8.83301 -5 -13.5 -7c-7.33301 -3.33301 -14.333 -6.16602 -21 -8.49902s-12.667 -3.5 -18 -3.5c-14.667 0 -28.667 1.83301 -42 5.5s-26.333 7.83398 -39 12.501l-23 8c-7.33301 2.66699 -14.666 4.66699 -21.999 6
c-5.33301 1.33301 -10.333 2.33301 -15 3s-9.66699 1 -15 1c-2.66699 0 -5 -0.166992 -7 -0.5s-4.33301 -0.833008 -7 -1.5c-5.33301 -1.33301 -11 -3.5 -17 -6.5s-12.667 -6.16699 -20 -9.5c-10 -4.66699 -22.167 -8.83398 -36.5 -12.501s-32.5 -5.5 -54.5 -5.5
c-1.33301 0 -2.5 0.166992 -3.5 0.5s-2.16699 0.833008 -3.5 1.5c-2.66699 2 -5.66699 5 -9 9s-6.33301 8.33301 -9 13l-5.5 13c-1.66699 4 -2.5 7 -2.5 9c0 3.33301 3.66699 7.5 11 12.5s22.333 13.833 45 26.5c0.666992 0.666992 1.33398 1.16699 2.00098 1.5
s1.33398 0.833008 2.00098 1.5c4.66699 2.66699 7.83398 5.66699 9.50098 9s3.16699 8 4.5 14l9 38.5c3.33301 14.333 7 28.833 11 43.5c0.666992 4.66699 1.66699 9.16699 3 13.5s2.33301 8.5 3 12.5l11 38c3.33301 12 6.33301 22.333 9 31c-18.667 0 -33.5 -1 -44.5 -3
s-20.167 -5.66699 -27.5 -11c-2 -1.33301 -4.33301 -2.5 -7 -3.5s-5.66699 -1.5 -9 -1.5c-0.666992 0 -1.33398 0.166992 -2.00098 0.5s-1.33398 0.5 -2.00098 0.5c-3.33301 2 -6.33301 5.5 -9 10.5s-5 10.167 -7 15.5c-1.33301 3.33301 -2.33301 6.5 -3 9.5
s-1 5.83301 -1 8.5c0 7.33301 4.66699 12.666 14 15.999s27 5 53 5h9.5h9.5h5h5c4.66699 -0.666992 9.33398 -1 14.001 -1h14c14.667 56.667 26.167 99.5 34.5 128.5s16.166 49.833 23.499 62.5c2 4 4.16699 7.33301 6.5 10s4.83301 5 7.5 7
c25.333 19.333 44.666 33.166 57.999 41.499s25 13.5 35 15.5c4.66699 1.33301 9.5 2.16602 14.5 2.49902s10.5 0.5 16.5 0.5c4.66699 0 9.66699 -0.5 15 -1.5s10.666 -2.5 15.999 -4.5c8 -2.66699 15.833 -5.83398 23.5 -9.50098s14.834 -7.5 21.501 -11.5
c8 -5.33301 14.667 -10.333 20 -15s8 -8 8 -10v-2.5c0 -1 -0.333008 -2.16699 -1 -3.5c-0.666992 -3.33301 -2 -6.66602 -4 -9.99902s-4.33301 -5 -7 -5c-4 0 -8.5 0.833008 -13.5 2.5s-11.167 3.5 -18.5 5.5c-7.33301 1.33301 -16.166 2.83301 -26.499 4.5
s-23.166 2.5 -38.499 2.5c-7.33301 0 -13.333 -0.333008 -18 -1s-9.33398 -2.33398 -14.001 -5.00098c-6 -3.33301 -12 -8.5 -18 -15.5l-24 -28.5c-2.66699 -3.33301 -6.16699 -10.666 -10.5 -21.999s-11.166 -31.666 -20.499 -60.999v0z" />
    <glyph glyph-name="currency" unicode="&#xa4;" horiz-adv-x="500" 
 />
    <glyph glyph-name="yen" unicode="&#xa5;" horiz-adv-x="519" 
d="M40 577l41.002 18.999c4 2 8 3.5 12 4.5s7.66699 1.5 11 1.5c2 0 3.83301 -0.5 5.5 -1.5s3.16699 -2.16699 4.5 -3.5c0.666992 -0.666992 1.16699 -1.5 1.5 -2.5s0.833008 -1.83301 1.5 -2.5l42.5 -76.5c18.333 -33.667 37.166 -70.167 56.499 -109.5
c4.66699 -8.66699 9 -17.334 13 -26.001s8.33301 -17.334 13 -26.001l6.5 -14.5l7.5 -15.5l21.5 34l25.5 41c0.666992 1.33301 1.5 2.66602 2.5 3.99902s1.83301 2.66602 2.5 3.99902l32.5 55c10.333 17.333 17.833 31 22.5 41c8 17.333 14 32.166 18 44.499l10 30.5
c2 4.66699 3.83301 8.33398 5.5 11.001s4.16699 4.33398 7.5 5.00098l70 19c3.33301 1.33301 6.5 2.33301 9.5 3s6.16699 1 9.5 1c7.33301 0 12.666 -1.33301 15.999 -4s5 -6.66699 5 -12c0 -2.66699 -1 -6.66699 -3 -12s-5.66699 -10.666 -11 -15.999
c-8.66699 -8.66699 -22.167 -24.334 -40.5 -47.001l-57.5 -73c-1.33301 -2 -2.66602 -3.83301 -3.99902 -5.5s-2.66602 -3.16699 -3.99902 -4.5l-44.5 -60l-35.5 -49h10h11c3.33301 -0.666992 7 -1 11 -1h13h7h7h6.5c2.33301 0 4.5 0.333008 6.5 1h11.5h9.5
c7.33301 0 12.666 -1.5 15.999 -4.5s5 -6.5 5 -10.5c0 -9.33301 -10 -16.666 -30 -21.999s-41.667 -8.66602 -65 -9.99902h-7.5h-7.5h-18.5c-5.66699 0 -10.834 0.333008 -15.501 1v-13.5c0 -4.33301 0.333008 -8.83301 1 -13.5v-6v-6v-7v-6h47.5
c16.333 0 33.833 -0.333008 52.5 -1c19.333 -0.666992 31.333 -2 36 -4s7 -5 7 -9c0 -2 -1.33301 -4.66699 -4 -8s-11.334 -9.33301 -26.001 -18c-3.33301 -2 -7.33301 -3.5 -12 -4.5s-10.667 -1.5 -18 -1.5h-45.5c-13 0 -25.167 -0.333008 -36.5 -1v-18v-19
c0 -18 -0.166992 -35.333 -0.5 -52s-0.833008 -29.334 -1.5 -38.001c-0.666992 -26.667 -2.66699 -46.667 -6 -60s-11.666 -20 -24.999 -20c-7.33301 0 -13.666 3.16699 -18.999 9.5s-8.33301 13.833 -9 22.5c-0.666992 20.667 -1.5 40.834 -2.5 60.501
s-1.5 39.167 -1.5 58.5c-0.666992 9.33301 -1 18.833 -1 28.5v29.5c-5.33301 0.666992 -10.833 1 -16.5 1h-16.5c-9.33301 0 -18.166 -0.833008 -26.499 -2.5s-15.166 -4.16699 -20.499 -7.5c-4.66699 -2.66699 -8.83398 -4.5 -12.501 -5.5s-7.16699 -1.5 -10.5 -1.5
c-4 0 -7.33301 2.33301 -10 7s-5 9.66699 -7 15c-2 4.66699 -3.33301 9 -4 13s-1 6.66699 -1 8v1.5c0 0.333008 0.333008 0.833008 1 1.5c1.33301 2 3.83301 4.16699 7.5 6.5s7.5 4.16602 11.5 5.49902c1.33301 0 2.66602 0.166992 3.99902 0.5s2.66602 0.5 3.99902 0.5
c10 1.33301 22.667 2 38 2h59c0 4 -0.166992 8 -0.5 12s-0.5 8.33301 -0.5 13c0 4 -0.166992 8.33301 -0.5 13s-0.5 9.33398 -0.5 14.001c-4.66699 0.666992 -9.16699 1.16699 -13.5 1.5s-9.16602 0.5 -14.499 0.5c-8.66699 0 -16.834 -1 -24.501 -3
s-14.834 -4.33301 -21.501 -7c-6 -2.66699 -11.667 -5 -17 -7s-10 -3 -14 -3s-7.66699 2.83301 -11 8.5s-5.66602 11.834 -6.99902 18.501c-0.666992 3.33301 -1.16699 6.33301 -1.5 9s-0.5 5.33398 -0.5 8.00098c0 6.66699 4.16699 11.834 12.5 15.501s26.833 5.5 55.5 5.5
h9h8c2.66699 -0.666992 5 -1 7 -1h6c-8 8.66699 -19.167 23.334 -33.5 44.001l-45.5 65c-0.666992 1.33301 -1.5 2.66602 -2.5 3.99902s-1.83301 2.66602 -2.5 3.99902l-38 56.5l-30 45.5c-1.33301 2 -2.66602 3.83301 -3.99902 5.5s-2.33301 3.16699 -3 4.5
c0 0.666992 -0.166992 1.5 -0.5 2.5s-0.5 1.83301 -0.5 2.5c0 1.33301 0.666992 2.83301 2 4.5s3.66602 3.16699 6.99902 4.5v0z" />
    <glyph glyph-name="brokenbar" unicode="&#xa6;" horiz-adv-x="500" 
 />
    <glyph glyph-name="section" unicode="&#xa7;" horiz-adv-x="444" 
d="M151 315c0 -10 4.83203 -24.5098 14.499 -43.5098s21.167 -39.167 34.5 -60.5l10 -14.5l10 -14.5c10.667 -16 21 -30.667 31 -44s18.333 -23.666 25 -30.999c19.333 -21.333 32.833 -40.666 40.5 -57.999s11.5 -32 11.5 -44c0 -4.66699 -0.833008 -10.167 -2.5 -16.5
s-4.5 -12.833 -8.5 -19.5c-2.66699 -6 -6.33398 -12 -11.001 -18s-10 -11.333 -16 -16c-7.33301 -6 -17.833 -11.667 -31.5 -17s-27.834 -10 -42.501 -14c-14 -4 -27.333 -7 -40 -9s-22.667 -3 -30 -3c-24.667 0 -39.667 2.5 -45 7.5s-8 18.167 -8 39.5
c0 12 1.66699 20.667 5 26s9 8 17 8c3.33301 0 6.33301 -0.833008 9 -2.5s5 -3.5 7 -5.5l3.5 -3.5l3.5 -3.5c3.33301 -3.33301 7.66602 -6.5 12.999 -9.5s12.666 -4.5 21.999 -4.5c23.333 0 43 5.5 59 16.5s24 24.5 24 40.5c0 10.667 -2.16699 22 -6.5 34
s-12.5 25.667 -24.5 41l-120 156c-5.33301 6.66699 -9.66602 12.667 -12.999 18s-6 10.666 -8 15.999c-2 4 -3.33301 8.16699 -4 12.5s-1 8.83301 -1 13.5v2.5v3.5c0.666992 4.66699 2.5 10.5 5.5 17.5l15.5 34.5c2 4.66699 4.33301 8.33398 7 11.001
s5.66699 5.33398 9 8.00098c6.66699 4.66699 12.667 8.5 18 11.5s10.333 5.16699 15 6.5c2.66699 1.33301 5.33398 2.33301 8.00098 3s5.66699 1.33398 9 2.00098c-7.33301 4 -14 8.16699 -20 12.5s-11.333 8.5 -16 12.5c-12.667 10.667 -21.834 21.667 -27.501 33
s-8.5 24 -8.5 38s7.33301 30 22 48s44.667 37.333 90 58c5.33301 2.66699 11.666 4.66699 18.999 6s16.333 2 27 2c4.66699 0 12.334 -0.666992 23.001 -2s22 -3.66602 34 -6.99902c6 -2 11.833 -4.16699 17.5 -6.5s11.167 -4.83301 16.5 -7.5
c3.33301 -2 5.66602 -4.66699 6.99902 -8s2 -9.66602 2 -18.999c0 -1.33301 -0.5 -2.83301 -1.5 -4.5s-2.16699 -3.5 -3.5 -5.5c-2 -2 -4 -3.83301 -6 -5.5s-4 -3.16699 -6 -4.5c-2.66699 -1.33301 -5 -2.33301 -7 -3s-3.66699 -1 -5 -1h-4
c-1.33301 0 -2.66602 0.333008 -3.99902 1c-2 0 -4.16699 0.666992 -6.5 2s-5.16602 3.33301 -8.49902 6c-6 4 -11 7 -15 9s-7.66699 3.33301 -11 4h-4.5h-4.5c-23.333 0 -41.166 -3.16699 -53.499 -9.5s-21.166 -13.5 -26.499 -21.5
c-3.33301 -5.33301 -5.66602 -10.5 -6.99902 -15.5s-2 -8.83301 -2 -11.5c0 -4 0.5 -8.5 1.5 -13.5s2.83301 -9.83301 5.5 -14.5c1.33301 -2 2.5 -3.83301 3.5 -5.5s2.16699 -3.16699 3.5 -4.5l10 -11.5c3.33301 -3.66699 7 -7.16699 11 -10.5
c13.333 -13.333 29.333 -27.666 48 -42.999s43.667 -34.666 75 -57.999c13.333 -10 24 -21.167 32 -33.5s12 -25.833 12 -40.5c0 -16 -5 -31.667 -15 -47s-21.333 -29 -34 -41c-10 -9.33301 -19.667 -17 -29 -23s-15.333 -9 -18 -9h-1.5h-1.5
c-4.66699 0 -9.16699 0.833008 -13.5 2.5s-6.5 3.5 -6.5 5.5c0 2.66699 2.5 6.33398 7.5 11.001s10.5 10.334 16.5 17.001c5.33301 6.66699 10.5 14 15.5 22s7.5 16.333 7.5 25c0 6 -0.333008 11.5 -1 16.5s-2 9.83301 -4 14.5c-5.33301 15.333 -17 32.333 -35 51
s-47 45 -87 79c-4.66699 -4.66699 -9 -10.5 -13 -17.5s-7.33301 -14.5 -10 -22.5c-1.33301 -4.66699 -2.5 -9.16699 -3.5 -13.5s-1.5 -8.5 -1.5 -12.5v0z" />
    <glyph glyph-name="dieresis" unicode="&#xa8;" 
d="M-6 666c0.666992 3.33301 1.83301 7.49707 3.5 12.4971s3.16699 10.167 4.5 15.5c4 7.33301 8.5 14.333 13.5 21s10.167 11.667 15.5 15c1.33301 0.666992 2.83301 1.16699 4.5 1.5s3.16699 0.5 4.5 0.5c2.66699 0 5.83398 -1.16699 9.50098 -3.5
s7.83398 -5.5 12.501 -9.5c2.66699 -2 5.16699 -4.5 7.5 -7.5s4.83301 -5.83301 7.5 -8.5c3.33301 -4 6 -8 8 -12s3 -7.33301 3 -10c0 -4.66699 -2.16699 -10.167 -6.5 -16.5s-15.5 -15.5 -33.5 -27.5c-0.666992 -0.666992 -1.33398 -1.16699 -2.00098 -1.5
s-1.33398 -0.5 -2.00098 -0.5c-2.66699 -1.33301 -5 -2.16602 -7 -2.49902s-4.66699 -0.5 -8 -0.5c-2 0 -4.33301 0.833008 -7 2.5s-5.66699 3.83398 -9 6.50098c-2 1.33301 -3.83301 2.83301 -5.5 4.5l-5.5 5.5c-1.33301 2.66699 -2.83301 5.33398 -4.5 8.00098
s-2.5 5 -2.5 7h-1zM183.999 688.997c0 2 1.33398 4.50391 4.00098 7.50391s6.33398 6.16699 11.001 9.5c1.33301 1.33301 3.16602 2.66602 5.49902 3.99902s4.5 2.66602 6.5 3.99902c5.33301 3.33301 10.333 6.16602 15 8.49902s8 3.5 10 3.5c2.66699 0 6 -1.33301 10 -4
s8 -6 12 -10c2 -2 4.16699 -4 6.5 -6s4.16602 -4 5.49902 -6c4 -4.66699 7.33301 -9 10 -13s4 -7.33301 4 -10c0 -2 -0.833008 -5 -2.5 -9s-3.5 -8 -5.5 -12c-1.33301 -2.66699 -2.83301 -5.16699 -4.5 -7.5l-5.5 -7.5c-2 -2.66699 -4 -4.83398 -6 -6.50098s-4 -2.5 -6 -2.5
c-12 0 -23.5 3.5 -34.5 10.5s-19.5 14.833 -25.5 23.5c-3.33301 4 -5.83301 8 -7.5 12s-2.5 7.66699 -2.5 11v0z" />
    <glyph glyph-name="copyright" unicode="&#xa9;" horiz-adv-x="800" 
d="M84 301c0 87.333 30.833 161.833 92.5 223.5s136.167 92.5 223.5 92.5s161.833 -30.833 223.5 -92.5s92.5 -136.167 92.5 -223.5s-30.833 -161.666 -92.5 -222.999s-136.167 -92 -223.5 -92s-161.833 30.667 -223.5 92s-92.5 135.666 -92.5 222.999v0zM142 301
c0 -76.667 24.5 -139.834 73.5 -189.501s110.5 -74.5 184.5 -74.5s135.5 24.833 184.5 74.5s73.5 112.834 73.5 189.501c0 77.333 -24.5 140.666 -73.5 189.999s-110.5 74 -184.5 74s-135.5 -24.667 -184.5 -74s-73.5 -112.666 -73.5 -189.999v0zM516 237h52
c-8.66699 -40.667 -27.334 -73.167 -56.001 -97.5s-62.667 -36.5 -102 -36.5c-57.333 0 -103.333 19 -138 57s-52 85 -52 141c0 57.333 16.5 104.5 49.5 141.5s78.833 55.5 137.5 55.5c41.333 0 77 -11.333 107 -34s48 -55 54 -97h-52
c-4.66699 22.667 -16.667 42.5 -36 59.5s-43.333 25.5 -72 25.5c-40.667 0 -73.5 -15.5 -98.5 -46.5s-37.5 -65.5 -37.5 -103.5v-4v-4c2 -36.667 15.833 -70 41.5 -100s57.834 -45 96.501 -45c28 0 51.5 9 70.5 27s30.833 38.333 35.5 61v0z" />
    <glyph glyph-name="ordfeminine" unicode="&#xaa;" horiz-adv-x="445" 
d="M185 320c-19.333 0 -31.9971 -1.1748 -37.9971 -3.50781s-10.667 -8.16602 -14 -17.499c-1.33301 -4.66699 -3.83301 -10.834 -7.5 -18.501s-7.16699 -15.5 -10.5 -23.5l-13 -28c-4 -8.66699 -6.33301 -15 -7 -19c-1.33301 -6.66699 -2.83301 -11.167 -4.5 -13.5
s-3.83398 -3.83301 -6.50098 -4.5c-3.33301 -0.666992 -7.16602 -1.16699 -11.499 -1.5s-8.5 -0.833008 -12.5 -1.5c-6.66699 -0.666992 -13 -1.16699 -19 -1.5s-10.333 -0.5 -13 -0.5c-3.33301 0 -5.66602 0.666992 -6.99902 2s-2.33301 3 -3 5v1.5v1.5v3v4
c0.666992 2 1.16699 3.83301 1.5 5.5s1.16602 2.5 2.49902 2.5c7.33301 2.66699 14.333 6.33398 21 11.001s11.667 12.667 15 24c1.33301 4.66699 8.16602 18.5 20.499 41.5s25.5 49.5 39.5 79.5l6.5 13l6.5 13c12.667 27.333 23.667 53.333 33 78s14 43.334 14 56.001
c0 1.33301 -0.333008 3.33301 -1 6s-1.66699 5.33398 -3 8.00098c-0.666992 2.66699 -1.5 5.33398 -2.5 8.00098s-1.5 4.66699 -1.5 6s0.333008 2.5 1 3.5s1.66699 2.16699 3 3.5c2.66699 2.66699 6.66699 5.33398 12 8.00098s11 4.66699 17 6c1.33301 0 3 0.166992 5 0.5
s3.66699 0.5 5 0.5c2 0 4 -0.333008 6 -1s4 -1.66699 6 -3c3.33301 -2.66699 6.83301 -6 10.5 -10s6.5 -8.33301 8.5 -13l6.5 -14.5l7.5 -15.5l37.5 -86.5c13 -31 29.167 -64.833 48.5 -101.5c29.333 -54.667 49.5 -88.5 60.5 -101.5s16.5 -21.167 16.5 -24.5
c0 -4.66699 -1.66699 -7.83398 -5 -9.50098s-7.66602 -2.5 -12.999 -2.5c-2.66699 0 -6.16699 0.166992 -10.5 0.5s-8.5 0.833008 -12.5 1.5c-2 0.666992 -4 1.16699 -6 1.5s-3.66699 0.5 -5 0.5c-4 0.666992 -7.66699 1.33398 -11 2.00098
s-5.66602 1.33398 -6.99902 2.00098c-2.66699 0.666992 -5 2.33398 -7 5.00098s-3.66699 5.33398 -5 8.00098c-0.666992 1.33301 -1.33398 2.5 -2.00098 3.5s-1 2.16699 -1 3.5l-6.5 17c-3 8 -6.5 16 -10.5 24c-0.666992 2 -1.33398 3.66699 -2.00098 5l-2 4l-11.5 24
c-3.66699 7.33301 -6.5 11.333 -8.5 12c-4.66699 2.66699 -12.334 4.66699 -23.001 6s-22.334 2.33301 -35.001 3c-10 0.666992 -19.667 1.16699 -29 1.5s-17 0.5 -23 0.5v0zM171.003 353.992h108.001l-47 101c-2.66699 6 -4.83398 11.167 -6.50098 15.5
s-3.16699 7.83301 -4.5 10.5c-0.666992 1.33301 -1.33398 2.5 -2.00098 3.5s-1.66699 1.5 -3 1.5s-2.66602 -1.66699 -3.99902 -5s-2.66602 -7 -3.99902 -11v-1h-1c0 -2 -0.333008 -4 -1 -6s-1.33398 -3.66699 -2.00098 -5l-31 -69c-4.66699 -9.33301 -8 -16.333 -10 -21
s-3 -7.66699 -3 -9c0 -2 1.16699 -3.33301 3.5 -4s4.83301 -1 7.5 -1v0z" />
    <glyph glyph-name="guillemotleft" unicode="&#xab;" horiz-adv-x="481" 
d="M48 292c0 5.33301 2.83301 12.666 8.5 21.999s12.5 19 20.5 29c2 2.66699 4.16699 5.33398 6.5 8.00098s4.83301 5.33398 7.5 8.00098c4 5.33301 8.16699 10.333 12.5 15l11.5 12l2 2l2 2c20 19.333 38.667 36 56 50s29 21 35 21c5.33301 0 9.83301 -1.66699 13.5 -5
s5.5 -7.66602 5.5 -12.999c0 -1.33301 -0.166992 -2.66602 -0.5 -3.99902s-0.5 -2.66602 -0.5 -3.99902l-2 -4c-0.666992 -1.33301 -1.66699 -2.66602 -3 -3.99902l-70 -99c-2 -2.66699 -3.66699 -5.33398 -5 -8.00098s-2.33301 -5 -3 -7
c-1.33301 -2.66699 -2.16602 -5.33398 -2.49902 -8.00098s-0.5 -5.33398 -0.5 -8.00098c0 -20 2.5 -35.333 7.5 -46s10.833 -18.334 17.5 -23.001c30 -20.667 53.667 -39.334 71 -56.001s26 -27.334 26 -32.001c0 -3.33301 -1.83301 -6 -5.5 -8
s-7.83398 -3.66699 -12.501 -5c-2.66699 -1.33301 -5.33398 -2.16602 -8.00098 -2.49902s-5 -0.5 -7 -0.5c-15.333 0 -35.666 9.66699 -60.999 29s-52.333 42.666 -81 69.999c-12.667 12 -22.667 23.833 -30 35.5s-11 22.834 -11 33.501v0zM246 304
c0 8 3.99512 18 11.9951 30s18 24.333 30 37l16 15.5l16 15.5c16.667 15.333 32.334 28.333 47.001 39s23.334 16 26.001 16c2 0 4.66699 -0.333008 8 -1l10 -2c6 -2 11.167 -4 15.5 -6s6.5 -4.33301 6.5 -7c0 -1.33301 -0.833008 -3 -2.5 -5s-3.5 -4 -5.5 -6l-2 -2l-2 -2
l-73 -81c-7.33301 -8.66699 -13.166 -16.167 -17.499 -22.5s-7.5 -12.5 -9.5 -18.5c-1.33301 -3.33301 -2.16602 -6.5 -2.49902 -9.5s-0.5 -6.16699 -0.5 -9.5c0 -4.66699 6.66699 -16.667 20 -36s32.666 -41.333 57.999 -66c11.333 -10.667 19 -18.5 23 -23.5
s6 -9.16699 6 -12.5c0 -1.33301 -0.333008 -2.5 -1 -3.5s-1.33398 -2.16699 -2.00098 -3.5c-2 -2 -4.16699 -3.83301 -6.5 -5.5s-4.83301 -3.16699 -7.5 -4.5c-1.33301 -0.666992 -2.66602 -1.16699 -3.99902 -1.5s-2.66602 -0.5 -3.99902 -0.5
c-4.66699 0 -13.667 4.33301 -27 13s-27.666 19 -42.999 31l-13.5 11.5c-4.33301 3.66699 -8.5 7.5 -12.5 11.5c-10.667 9.33301 -20.167 18.5 -28.5 27.5s-13.833 16.833 -16.5 23.5c-0.666992 0.666992 -1.16699 1.5 -1.5 2.5s-0.5 1.83301 -0.5 2.5
c-2 4.66699 -3.66699 9.66699 -5 15l-4 16c-0.666992 4 -1.16699 7.83301 -1.5 11.5s-0.5 7.16699 -0.5 10.5v0z" />
    <glyph glyph-name="logicalnot" unicode="&#xac;" horiz-adv-x="500" 
 />
    <glyph glyph-name="sfthyphen" unicode="&#xad;" horiz-adv-x="500" 
 />
    <glyph glyph-name="registered" unicode="&#xae;" horiz-adv-x="800" 
d="M84 301c0 87.333 30.833 161.833 92.5 223.5s136.167 92.5 223.5 92.5s161.833 -30.833 223.5 -92.5s92.5 -136.167 92.5 -223.5s-30.833 -161.666 -92.5 -222.999s-136.167 -92 -223.5 -92s-161.833 30.667 -223.5 92s-92.5 135.666 -92.5 222.999v0zM142 301
c0 -76.667 24.5 -139.834 73.5 -189.501s110.5 -74.5 184.5 -74.5s135.5 24.833 184.5 74.5s73.5 112.834 73.5 189.501c0 77.333 -24.5 140.666 -73.5 189.999s-110.5 74 -184.5 74s-135.5 -24.667 -184.5 -74s-73.5 -112.666 -73.5 -189.999v0zM332 274v-159.001h-52v372
h142c41.333 0 72.333 -8.66699 93 -26s31 -43.333 31 -78c0 -36 -9.33301 -62.167 -28 -78.5s-40 -26.166 -64 -29.499l105 -160h-62l-101 159h-64v0zM332 319.999h60.001c25.333 0 48.666 3.16699 69.999 9.5s32 24.833 32 55.5c0 22.667 -8.33301 37.667 -25 45
s-36 11 -58 11h-79v-121v0z" />
    <glyph glyph-name="overstore" unicode="&#xaf;" 
 />
    <glyph glyph-name="degree" unicode="&#xb0;" horiz-adv-x="500" 
 />
    <glyph glyph-name="plusminus" unicode="&#xb1;" horiz-adv-x="500" 
 />
    <glyph glyph-name="twosuperior" unicode="&#xb2;" horiz-adv-x="337" 
d="M273 524c0 -7.33301 -1.50879 -16.5 -4.50879 -27.5s-7.83301 -22.5 -14.5 -34.5c-4 -6 -8.5 -12 -13.5 -18s-10.833 -11.667 -17.5 -17l-128 -110c-0.666992 0 -1.16699 -0.166992 -1.5 -0.5l-1.5 -1.5c0 -0.666992 -0.166992 -1.16699 -0.5 -1.5l-0.5 -0.5
c0 -0.666992 0.333008 -1.16699 1 -1.5s1.33398 -0.5 2.00098 -0.5h1.5h0.5c12.667 0 25.334 0.166992 38.001 0.5s25.667 0.5 39 0.5c12.667 0 25.334 0.166992 38.001 0.5s25.334 0.5 38.001 0.5c11.333 0 20.333 0.666992 27 2s12 2.66602 16 3.99902
c4 2 7.16699 3.66699 9.5 5s4.5 2 6.5 2h0.5h0.5c2.66699 0 4.83398 -1.33301 6.50098 -4s2.5 -7.33398 2.5 -14.001c0 -2 -0.333008 -5 -1 -9s-1.66699 -8.33301 -3 -13c-1.33301 -6 -3.16602 -11.5 -5.49902 -16.5s-4.5 -7.5 -6.5 -7.5s-3.83301 0.166992 -5.5 0.5
s-3.16699 0.833008 -4.5 1.5c-0.666992 0 -1.5 0.166992 -2.5 0.5s-1.83301 0.5 -2.5 0.5c-0.666992 0.666992 -1.5 1.16699 -2.5 1.5s-1.83301 0.5 -2.5 0.5c-4.66699 1.33301 -12.5 2.33301 -23.5 3s-34.167 1 -69.5 1c-48 0 -78.5 -0.166992 -91.5 -0.5
s-22.5 -1.5 -28.5 -3.5c-0.666992 0 -1.16699 -0.166992 -1.5 -0.5l-0.5 -0.5c-1.33301 -0.666992 -2.5 -1.16699 -3.5 -1.5s-2.16699 -0.833008 -3.5 -1.5c-1.33301 0 -2.5 -0.166992 -3.5 -0.5s-2.16699 -0.5 -3.5 -0.5s-2.66602 0.166992 -3.99902 0.5
s-3 0.833008 -5 1.5l-6 4c-2 1.33301 -3.33301 3 -4 5c-0.666992 0 -1 0.166992 -1 0.5v1.5v38v0.5v0.5c0.666992 4 4.66699 9.16699 12 15.5s22.666 18.833 45.999 37.5c52.667 42 86.5 75.333 101.5 100s22.5 44.334 22.5 59.001v3.5c0 1 -0.333008 2.16699 -1 3.5
c-1.33301 11.333 -7.33301 21.5 -18 30.5s-26 13.5 -46 13.5c-18 0 -32.167 -2.16699 -42.5 -6.5s-18.166 -12.166 -23.499 -23.499c-0.666992 -2 -2.83398 -3.66699 -6.50098 -5s-10.5 -2 -20.5 -2c-5.33301 0 -9.33301 2.66699 -12 8s-5 11 -7 17
c-0.666992 4 -1.16699 7.66699 -1.5 11s-0.5 6.33301 -0.5 9c0 6.66699 6.66699 12.167 20 16.5s28 7.83301 44 10.5c9.33301 2 18.5 3.33301 27.5 4s16.5 1 22.5 1c8.66699 0 16.334 -0.166992 23.001 -0.5s13.334 -1.16602 20.001 -2.49902c6 -2 12.333 -4.5 19 -7.5
s14.334 -7.5 23.001 -13.5c2.66699 -1.33301 5 -2.83301 7 -4.5s4 -3.16699 6 -4.5c8.66699 -8 15 -16.333 19 -25s6 -20.334 6 -35.001v0z" />
    <glyph glyph-name="threesuperior" unicode="&#xb3;" horiz-adv-x="301" 
d="M107 435l-0.00390625 0.501953v1.5c0.666992 3.33301 3.83398 7.66602 9.50098 12.999s14.834 14.666 27.501 27.999c21.333 22 34.333 36.5 39 43.5s7 11.5 7 13.5c0 1.33301 -2.33301 2.83301 -7 4.5s-10.667 3.5 -18 5.5c-4 0.666992 -8.33301 1.5 -13 2.5
s-9.66699 2.16699 -15 3.5l-32 5.5c-10 1.66699 -16.333 2.5 -19 2.5c-4.66699 0 -8.66699 -0.333008 -12 -1s-6.33301 -1.33398 -9 -2.00098c-0.666992 0 -1.5 -0.166992 -2.5 -0.5s-1.83301 -0.5 -2.5 -0.5c-1.33301 -0.666992 -2.83301 -1.16699 -4.5 -1.5
s-3.5 -0.5 -5.5 -0.5c-4.66699 0 -8.5 0.833008 -11.5 2.5s-4.5 4.83398 -4.5 9.50098c0 2.66699 0.166992 5.66699 0.5 9s0.833008 6.66602 1.5 9.99902c2 8.66699 5 16.334 9 23.001s9 10 15 10c11.333 0 32.5 -2.83301 63.5 -8.5s67.5 -16.5 109.5 -32.5
c6.66699 -2.66699 11.667 -6 15 -10s5 -9.33301 5 -16c0 -2.66699 -0.166992 -4.83398 -0.5 -6.50098s-0.833008 -3.5 -1.5 -5.5c-0.666992 -1.33301 -1.66699 -2.66602 -3 -3.99902s-2.66602 -3 -3.99902 -5l-55 -62c-4 -4.66699 -7 -9 -9 -13s-3 -7.66699 -3 -11
c0 -2.66699 1 -5.66699 3 -9s5 -7 9 -11c1.33301 -0.666992 2.5 -1.5 3.5 -2.5s2.16699 -1.83301 3.5 -2.5l37 -28c5.33301 -4 9.5 -8.66699 12.5 -14s4.5 -11.666 4.5 -18.999c0 -8 -1.16699 -15.333 -3.5 -22s-5.83301 -13.334 -10.5 -20.001
c-4.66699 -6 -10.334 -12 -17.001 -18s-15 -12.333 -25 -19c-3.33301 -2.66699 -9 -6.16699 -17 -10.5l-26 -13.5c-3.33301 -1.33301 -6.83301 -2.83301 -10.5 -4.5s-7.16699 -3.16699 -10.5 -4.5c-11.333 -5.33301 -22.166 -9.66602 -32.499 -12.999s-18.5 -5 -24.5 -5
c-8 0 -13.833 0.666992 -17.5 2s-6.5 2.66602 -8.5 3.99902l-20 15c-0.666992 0 -1.16699 0.166992 -1.5 0.5s-0.5 0.833008 -0.5 1.5c-2 1.33301 -3.33301 3 -4 5s-1 5 -1 9c0 3.33301 1.5 5.66602 4.5 6.99902s10.5 2.33301 22.5 3c32.667 2.66699 59.5 8.66699 80.5 18
s36.5 19.333 46.5 30c4.66699 4.66699 8.16699 9.33398 10.5 14.001s3.5 9 3.5 13c0 4.66699 -2.66699 10.167 -8 16.5s-14.666 14.833 -27.999 25.5l-34 26c-1.33301 1.33301 -2.5 2.33301 -3.5 3s-1.83301 1.66699 -2.5 3c-1.33301 1.33301 -2.5 3 -3.5 5
s-1.5 4.33301 -1.5 7v0z" />
    <glyph glyph-name="acute" unicode="&#xb4;" 
d="M193 748c2 0 4.50098 -0.501953 7.50098 -1.50195s6.5 -2.5 10.5 -4.5c3.33301 -2 6.66602 -4.33301 9.99902 -7s6 -5.33398 8 -8.00098c0.666992 -0.666992 1.16699 -1.5 1.5 -2.5s0.5 -2.16699 0.5 -3.5c0 -4.66699 -4 -11.5 -12 -20.5s-23.333 -19.5 -46 -31.5
c-3.33301 -2 -10.5 -6 -21.5 -12l-35.5 -19c-0.666992 0 -1.33398 -0.166992 -2.00098 -0.5s-1 -0.833008 -1 -1.5l-40.5 -20.5c-12.333 -6.33301 -19.5 -9.5 -21.5 -9.5c-3.33301 0 -6.33301 1 -9 3s-4 5.33301 -4 10c0 2.66699 0.5 5 1.5 7s2.16699 3.66699 3.5 5
c0.666992 0.666992 1.5 1.33398 2.5 2.00098s1.83301 1.33398 2.5 2.00098l115 95c6.66699 6 11.834 10.333 15.501 13s7.16699 4.33398 10.5 5.00098h2h2v0z" />
    <glyph glyph-name="mu" unicode="&#xb5;" horiz-adv-x="704" 
d="M182 215l-0.00195312 -68.998c0 -24 6.33301 -43 19 -57s26.667 -24.333 42 -31c12 -5.33301 23.333 -9 34 -11s18.334 -3 23.001 -3c5.33301 0 11 0.666992 17 2s12 3.33301 18 6c11.333 4.66699 22.166 11 32.499 19s17.833 17 22.5 27
c6.66699 14 10.834 35.167 12.501 63.5s2.5 61.833 2.5 100.5c0 10 -0.666992 19 -2 27s-3 15.667 -5 23c-2 6.66699 -3.66699 13 -5 19s-2 11.667 -2 17c0 8 3.5 13.667 10.5 17s16.167 5 27.5 5c17.333 0 29.666 -3 36.999 -9s11 -14.667 11 -26
c0 -3.33301 -0.666992 -10.333 -2 -21s-2.66602 -22.667 -3.99902 -36c0 -4 -0.166992 -7.83301 -0.5 -11.5s-0.833008 -7.5 -1.5 -11.5s-1.16699 -8 -1.5 -12s-0.5 -8 -0.5 -12c-0.666992 -8.66699 -1.5 -18.167 -2.5 -28.5s-1.83301 -20.833 -2.5 -31.5
c-2.66699 -20 -5.5 -39 -8.5 -57s-6.83301 -31 -11.5 -39c-2.66699 -4 -5.83398 -8.5 -9.50098 -13.5l-11.5 -15.5c-5.33301 -6 -10.666 -11.667 -15.999 -17s-11 -10 -17 -14l-9.5 -7.5c-3 -2.33301 -6.16699 -4.16602 -9.5 -5.49902
c-6.66699 -2.66699 -15 -4.83398 -25 -6.50098s-22.333 -2.5 -37 -2.5c-24.667 0 -45 3 -61 9s-31 16.333 -45 31c-2.66699 2 -5.16699 4.33301 -7.5 7l-7.5 9l-2 -2v-7v-7v-1.5c0 -0.333008 0.333008 -0.833008 1 -1.5v-8.5v-9.5c0 -58 -2.66699 -97.167 -8 -117.5
s-15.333 -30.5 -30 -30.5c-8.66699 0 -16 5.16699 -22 15.5s-9 28.5 -9 54.5v135c0 14.667 -0.166992 30 -0.5 46s-0.5 32.333 -0.5 49c-0.666992 11.333 -1.16699 22.666 -1.5 33.999s-0.5 22.333 -0.5 33c-1.33301 26 -2.33301 49.5 -3 70.5s-1 36.167 -1 45.5
c0 11.333 2.16699 20.666 6.5 27.999s11.833 11 22.5 11c2 0 4.33301 -0.166992 7 -0.5s5.33398 -1.16602 8.00098 -2.49902c1.33301 -0.666992 3 -1.33398 5 -2.00098s3.66699 -1.66699 5 -3l46 -34c1.33301 -1.33301 2.5 -3 3.5 -5s1.5 -4.66699 1.5 -8
c0 -4 -1.66699 -8.5 -5 -13.5s-7 -11.5 -11 -19.5c-4 -8.66699 -7.66699 -19.5 -11 -32.5s-5 -29.833 -5 -50.5v0z" />
    <glyph glyph-name="paragraph" unicode="&#xb6;" horiz-adv-x="500" 
 />
    <glyph glyph-name="middot" unicode="&#xb7;" 
 />
    <glyph glyph-name="cedilla" unicode="&#xb8;" 
d="M171 9h32c-8 -14.667 -13.167 -25.334 -15.5 -32.001s-3.5 -11.334 -3.5 -14.001s3 -5.66699 9 -9s19 -8.33301 39 -15c12 -4 20.167 -9.33301 24.5 -16s6.5 -15.667 6.5 -27c0 -18 -7.33301 -32.667 -22 -44s-30.667 -20 -48 -26
c-10.667 -3.33301 -21 -5.83301 -31 -7.5s-18.333 -2.5 -25 -2.5h-1.5h-0.5c-4 0.666992 -7.5 2.33398 -10.5 5.00098s-4.5 6 -4.5 10c0 2.66699 1 4.83398 3 6.50098s5.33301 3.16699 10 4.5c1.33301 0.666992 2.83301 1.16699 4.5 1.5s3.5 0.833008 5.5 1.5
c8.66699 2.66699 17.167 6.33398 25.5 11.001s15.166 9.33398 20.499 14.001c4 3.33301 7 6.66602 9 9.99902s3 6.33301 3 9c0 5.33301 -0.666992 10.5 -2 15.5s-4 8.5 -8 10.5l-36 16c-4 2.66699 -6.83301 5.5 -8.5 8.5s-2.5 6.16699 -2.5 9.5c0 6 1.83301 13.167 5.5 21.5
s10.834 21.166 21.501 38.499v0z" />
    <glyph glyph-name="onesuperior" unicode="&#xb9;" horiz-adv-x="216" 
d="M90 391c0 72 -1.99805 117.833 -5.99805 137.5s-10.667 31.5 -20 35.5c-4.66699 2 -8.33398 4.5 -11.001 7.5s-4 5.83301 -4 8.5c0 1.33301 0.5 2.83301 1.5 4.5s2.5 2.83398 4.5 3.50098c24.667 12.667 41 20.667 49 24s14.333 5 19 5h0.5h1.5
c0.666992 0 2 -0.166992 4 -0.5s4 -0.833008 6 -1.5c2.66699 -0.666992 5.16699 -1.66699 7.5 -3s3.5 -2.66602 3.5 -3.99902c0 -2.66699 -0.5 -6 -1.5 -10s-2.16699 -11.333 -3.5 -22c-1.33301 -10 -2.5 -24.5 -3.5 -43.5s-1.5 -44.5 -1.5 -76.5
c0 -34.667 0.5 -64.5 1.5 -89.5l2.5 -61.5c0 -5.33301 0.833008 -9.5 2.5 -12.5s3.5 -5.5 5.5 -7.5c0.666992 -0.666992 1.5 -1.33398 2.5 -2.00098s1.83301 -1.33398 2.5 -2.00098l2 -2c0.666992 -0.666992 1 -1.66699 1 -3c0 -4 -3.83301 -7.16699 -11.5 -9.5
s-17.834 -3.5 -30.501 -3.5c-17.333 0 -28.333 0.833008 -33 2.5s-7 4.16699 -7 7.5c0 1.33301 0.666992 3 2 5s4 5.33301 8 10c2 2 3.5 8.33301 4.5 19s1.5 38.667 1.5 84v0z" />
    <glyph glyph-name="ordmasculine" unicode="&#xba;" horiz-adv-x="378" 
d="M51 388c0 5.33301 0.166992 10.668 0.5 16.001s0.833008 10.666 1.5 15.999c4.66699 39.333 18.834 75.5 42.501 108.5s60.834 49.5 111.501 49.5c34 0 62.5 -13.833 85.5 -41.5s34.5 -72.167 34.5 -133.5c0 -60.667 -14.833 -106.167 -44.5 -136.5
s-63.834 -45.5 -102.501 -45.5c-32.667 0 -62.334 13.667 -89.001 41s-40 69.333 -40 126v0zM97 399.002c0 -6.66699 0.830078 -15.499 2.49707 -26.499s4.83398 -22.833 9.50098 -35.5c6.66699 -17.333 17 -33.333 31 -48s32.667 -22 56 -22
c4.66699 0 9.83398 0.5 15.501 1.5s11.5 2.83301 17.5 5.5c14.667 6.66699 28 19.167 40 37.5s18 46.166 18 83.499c0 53.333 -9.33301 90.5 -28 111.5s-39.667 31.5 -63 31.5c-31.333 0 -55.666 -13.833 -72.999 -41.5s-26 -60.167 -26 -97.5v0z" />
    <glyph glyph-name="guillemotright" unicode="&#xbb;" horiz-adv-x="481" 
d="M339 297c0 2.66699 -0.166992 5.33496 -0.5 8.00195s-0.833008 5.33398 -1.5 8.00098c-1.33301 2 -2.66602 4.33301 -3.99902 7s-3 5.33398 -5 8.00098l-70 99c-0.666992 1.33301 -1.5 2.66602 -2.5 3.99902s-1.5 2.66602 -1.5 3.99902
c-0.666992 1.33301 -1.16699 2.66602 -1.5 3.99902s-0.5 2.66602 -0.5 3.99902c0 5.33301 2 9.66602 6 12.999s8.33301 5 13 5c6 0 17.667 -7 35 -21s36 -30.667 56 -50l2 -2l2 -2l11.5 -12c4.33301 -4.66699 8.5 -9.66699 12.5 -15
c2.66699 -2.66699 5.16699 -5.33398 7.5 -8.00098s4.5 -5.33398 6.5 -8.00098c8 -10 14.833 -19.667 20.5 -29s8.5 -16.666 8.5 -21.999c0 -10.667 -3.66699 -21.834 -11 -33.501s-17.333 -23.5 -30 -35.5c-28.667 -27.333 -55.667 -50.666 -81 -69.999
s-45.666 -29 -60.999 -29c-2 0 -4.33301 0.166992 -7 0.5s-5.33398 1.16602 -8.00098 2.49902c-4.66699 1.33301 -8.83398 3 -12.501 5s-5.5 4.66699 -5.5 8c0 4.66699 8.66699 15.334 26 32.001s41 35.334 71 56.001c6.66699 4.66699 12.5 12.334 17.5 23.001
s7.5 26 7.5 46v0zM163 285.001c0 3.33301 -0.171875 6.5 -0.504883 9.5s-1.16602 6.16699 -2.49902 9.5c-1.33301 6 -4.16602 12.167 -8.49902 18.5s-10.5 13.833 -18.5 22.5l-73 81l-2 2l-2 2c-2 2 -3.83301 4 -5.5 6s-2.5 3.66699 -2.5 5c0 2.66699 2.33301 5 7 7
s9.66699 4 15 6l10 2c3.33301 0.666992 6 1 8 1c2.66699 0 11.334 -5.33301 26.001 -16s30.334 -23.667 47.001 -39l16 -15.5l16 -15.5c12 -12.667 22 -25 30 -37s12 -22 12 -30c0 -3.33301 -0.166992 -6.83301 -0.5 -10.5s-0.833008 -7.5 -1.5 -11.5l-4 -16
c-1.33301 -5.33301 -3 -10.333 -5 -15c0 -0.666992 -0.166992 -1.5 -0.5 -2.5s-0.833008 -1.83301 -1.5 -2.5c-2.66699 -6.66699 -8.16699 -14.5 -16.5 -23.5s-17.833 -18.167 -28.5 -27.5c-4 -4 -8.16699 -7.83301 -12.5 -11.5l-13.5 -11.5
c-15.333 -12 -29.666 -22.333 -42.999 -31s-22.333 -13 -27 -13c-1.33301 0 -2.66602 0.166992 -3.99902 0.5s-2.66602 0.833008 -3.99902 1.5c-2.66699 1.33301 -5.16699 2.83301 -7.5 4.5s-4.5 3.5 -6.5 5.5c-0.666992 1.33301 -1.33398 2.5 -2.00098 3.5
s-1 2.16699 -1 3.5c0 3.33301 2.16699 7.5 6.5 12.5s11.833 12.833 22.5 23.5c25.333 24.667 44.666 46.667 57.999 66s20 31.333 20 36v0z" />
    <glyph glyph-name="onequarter" unicode="&#xbc;" horiz-adv-x="500" 
 />
    <glyph glyph-name="onehalf" unicode="&#xbd;" horiz-adv-x="500" 
 />
    <glyph glyph-name="threequarters" unicode="&#xbe;" horiz-adv-x="500" 
 />
    <glyph glyph-name="questiondown" unicode="&#xbf;" horiz-adv-x="481" 
d="M73 104c0 5.33301 0.333008 10.6592 1 15.9922s2 10.666 4 15.999c4.66699 16 11.834 31.5 21.501 46.5s20.834 26.833 33.501 35.5l67 48c21.333 15.333 38.666 29 51.999 41c1.33301 0.666992 2.33301 1.33398 3 2.00098s1.66699 1.33398 3 2.00098
c2.66699 2 5.5 3.33301 8.5 4s7.16699 1 12.5 1c6 0 10 -2.66699 12 -8s3 -11.333 3 -18s-1 -12.167 -3 -16.5s-4.66699 -7.16602 -8 -8.49902c-4 -1.33301 -11.833 -5.83301 -23.5 -13.5s-24.167 -16.5 -37.5 -26.5c-2.66699 -2 -5.5 -4 -8.5 -6s-5.83301 -4.33301 -8.5 -7
c-5.33301 -4 -10.5 -8.16699 -15.5 -12.5s-9.5 -8.5 -13.5 -12.5c-6.66699 -6.66699 -12.834 -15 -18.501 -25s-10.167 -20 -13.5 -30c-2.66699 -8.66699 -4.83398 -17 -6.50098 -25s-2.5 -15.333 -2.5 -22c0 -8 1 -16.333 3 -25s6.66699 -18.667 14 -30
c1.33301 -2.66699 3.33301 -5.66699 6 -9l8 -10c0.666992 -1.33301 1.5 -2.5 2.5 -3.5s1.83301 -2.16699 2.5 -3.5l7.5 -7.5l6.5 -6.5c4 -3.33301 7.83301 -6.16602 11.5 -8.49902l10.5 -6.5c7.33301 -4 14.833 -7 22.5 -9s14.834 -3 21.501 -3c4 0 8 0.333008 12 1
s8 1.66699 12 3c9.33301 2.66699 18.333 7.33398 27 14.001s14.667 15.667 18 27c3.33301 10.667 8.33301 19 15 25s13.667 10.333 21 13c5.33301 2 10.333 3.33301 15 4s9 1 13 1c4.66699 0 8.33398 -3.16699 11.001 -9.5s4.66699 -13.166 6 -20.499
c0 -3.33301 0.166992 -6.66602 0.5 -9.99902s0.5 -6.33301 0.5 -9c0 -11.333 -7.16699 -22.5 -21.5 -33.5s-29.833 -20.5 -46.5 -28.5c-15.333 -7.33301 -29.5 -13 -42.5 -17s-21.167 -6 -24.5 -6c-8.66699 0 -18.5 0.666992 -29.5 2s-22.167 3 -33.5 5
c-16.667 3.33301 -32.834 8 -48.501 14s-28.167 13 -37.5 21c-10 8.66699 -18 19.834 -24 33.501s-10.667 27.834 -14 42.501c-2.66699 12.667 -4.5 25.167 -5.5 37.5s-1.5 22.833 -1.5 31.5v0zM201 478.993c0 9.33301 2.99902 16.835 8.99902 22.502s16.333 8.5 31 8.5
c1.33301 0 5.5 -0.666992 12.5 -2s14.5 -3.33301 22.5 -6c8.66699 -2.66699 16.667 -6.83398 24 -12.501s11 -12.5 11 -20.5c0 -2.66699 -1.33301 -7.33398 -4 -14.001s-6 -13.334 -10 -20.001c-2 -4 -4.16699 -7.66699 -6.5 -11s-4.5 -6.66602 -6.5 -9.99902
c-3.33301 -4.66699 -6.66602 -8.5 -9.99902 -11.5s-6.33301 -4.5 -9 -4.5s-6 0.833008 -10 2.5s-8.33301 3.83398 -13 6.50098c-1.33301 0.666992 -2.83301 1.5 -4.5 2.5s-3.5 2.16699 -5.5 3.5c-3.33301 2 -6.5 4.16699 -9.5 6.5s-5.16699 4.16602 -6.5 5.49902l-3.5 3.5
c-1 1 -1.83301 2.16699 -2.5 3.5c-4 4.66699 -6.5 10.167 -7.5 16.5s-1.5 16.5 -1.5 30.5v0z" />
    <glyph glyph-name="Agrave" unicode="&#xc0;" horiz-adv-x="667" 
d="M275 211c-30 0 -49.6758 -1.16699 -59.0088 -3.5s-16.666 -9.5 -21.999 -21.5c-0.666992 -1.33301 -1.16699 -2.5 -1.5 -3.5s-0.833008 -2.16699 -1.5 -3.5c-2.66699 -8 -6.83398 -17.667 -12.501 -29l-17.5 -35c0 -0.666992 -0.166992 -1.33398 -0.5 -2.00098l-0.5 -1
l-22.5 -45c-7 -14 -11.167 -24.333 -12.5 -31c-2 -10.667 -4.5 -18 -7.5 -22s-6.83301 -6.33301 -11.5 -7s-10.167 -1.16699 -16.5 -1.5s-12.833 -0.833008 -19.5 -1.5v0h-1c-11.333 -1.33301 -21.666 -2.33301 -30.999 -3s-15 -1 -17 -1c-2.66699 0 -4.66699 1 -6 3
s-2.33301 4.33301 -3 7c-0.666992 1.33301 -1 2.5 -1 3.5v2.5c0 9.33301 0.833008 15.666 2.5 18.999s4.83398 5.33301 9.50098 6c2 0.666992 4.33301 1.33398 7 2.00098s5 1.66699 7 3c8 3.33301 15.833 8.5 23.5 15.5s13.834 17.5 18.501 31.5
c2.66699 6.66699 14 27.834 34 63.501l65 121.5c4 6.66699 7.83301 13.5 11.5 20.5s7.16699 14.167 10.5 21.5c20.667 41.333 38.834 80.833 54.501 118.5s23.5 66.5 23.5 86.5c0 2 -0.666992 4.83301 -2 8.5s-2.66602 7.83398 -3.99902 12.501
c-2 4.66699 -3.66699 8.83398 -5 12.501s-2 6.5 -2 8.5s0.5 3.83301 1.5 5.5s2.5 3.5 4.5 5.5c3.33301 3.33301 7 6.33301 11 9s8 5 12 7c5.33301 2.66699 10.166 4.66699 14.499 6s7.83301 2 10.5 2c2 0 5 -1.5 9 -4.5s8.33301 -6.83301 13 -11.5
c2.66699 -3.33301 5.5 -7.33301 8.5 -12s5.83301 -9.33398 8.5 -14.001c0.666992 -1.33301 1.33398 -2.83301 2.00098 -4.5s1.33398 -3.16699 2.00098 -4.5l71 -150c24.667 -53.333 55.334 -112.333 92.001 -177c48 -84.667 81.333 -136.667 100 -156s28 -31.666 28 -36.999
c0 -6.66699 -2.16699 -11.334 -6.5 -14.001s-8.83301 -4 -13.5 -4h-1.5h-1.5c-3.33301 0 -8.66602 0.333008 -15.999 1s-14.666 1.66699 -21.999 3c-3.33301 0.666992 -6.33301 1.16699 -9 1.5s-5.33398 0.833008 -8.00098 1.5c-5.33301 0.666992 -10 1.5 -14 2.5
s-7 1.83301 -9 2.5c-6 1.33301 -11 5.5 -15 12.5s-7.33301 14.833 -10 23.5c-1.33301 5.33301 -4.66602 14 -9.99902 26s-11.333 24.667 -18 38c-1.33301 2.66699 -2.5 5.16699 -3.5 7.5s-2.16699 4.83301 -3.5 7.5l-20.5 36c-6.33301 10.667 -10.833 16.667 -13.5 18
c-7.33301 4 -20 7.16699 -38 9.5s-37.333 3.83301 -58 4.5c-17.333 1.33301 -33.833 2.16602 -49.5 2.49902s-28.167 0.5 -37.5 0.5v0zM250.991 257l181 0.00195312l-79 155c-5.33301 10 -9.33301 18.5 -12 25.5s-5 12.5 -7 16.5c-0.666992 2 -1.66699 3.5 -3 4.5
s-2.66602 1.5 -3.99902 1.5c-2.66699 0 -4.83398 -2.16699 -6.50098 -6.5l-5.5 -14.5c-0.666992 -1.33301 -1 -2.33301 -1 -3s-0.333008 -1.33398 -1 -2.00098c-0.666992 -3.33301 -1.5 -6.33301 -2.5 -9s-2.16699 -5.33398 -3.5 -8.00098l-52 -106l-16 -32
c-3.33301 -6.66699 -5 -11.667 -5 -15c0 -2.66699 1.66699 -4.5 5 -5.5s7.33301 -1.5 12 -1.5v0zM261.991 713.002c0 2 0.499023 4.16602 1.49902 6.49902s2.5 4.83301 4.5 7.5c1.33301 2.66699 3.16602 5.33398 5.49902 8.00098s4.83301 5 7.5 7s5 3.5 7 4.5s4 1.5 6 1.5
c8.66699 0 15.667 -1 21 -3s9 -6 11 -12c5.33301 -14.667 11.166 -27.667 17.499 -39s13.833 -21.666 22.5 -30.999l32 -35.5c5.33301 -5.66699 8 -9.5 8 -11.5s-1.5 -3.66699 -4.5 -5s-6.16699 -2.33301 -9.5 -3s-6.16602 -1.16699 -8.49902 -1.5
s-4.16602 -0.5 -5.49902 -0.5c-5.33301 0 -13 3.16699 -23 9.5s-20.667 14.166 -32 23.499l-14.5 12.5c-5 4.33301 -9.5 8.5 -13.5 12.5c-9.33301 9.33301 -17.166 18.5 -23.499 27.5s-9.5 16.167 -9.5 21.5v0z" />
    <glyph glyph-name="Aacute" unicode="&#xc1;" horiz-adv-x="667" 
d="M275 211c-30 0 -49.6758 -1.16699 -59.0088 -3.5s-16.666 -9.5 -21.999 -21.5c-0.666992 -1.33301 -1.16699 -2.5 -1.5 -3.5s-0.833008 -2.16699 -1.5 -3.5c-2.66699 -8 -6.83398 -17.667 -12.501 -29l-17.5 -35c0 -0.666992 -0.166992 -1.33398 -0.5 -2.00098l-0.5 -1
l-22.5 -45c-7 -14 -11.167 -24.333 -12.5 -31c-2 -10.667 -4.5 -18 -7.5 -22s-6.83301 -6.33301 -11.5 -7s-10.167 -1.16699 -16.5 -1.5s-12.833 -0.833008 -19.5 -1.5v0h-1c-11.333 -1.33301 -21.666 -2.33301 -30.999 -3s-15 -1 -17 -1c-2.66699 0 -4.66699 1 -6 3
s-2.33301 4.33301 -3 7c-0.666992 1.33301 -1 2.5 -1 3.5v2.5c0 9.33301 0.833008 15.666 2.5 18.999s4.83398 5.33301 9.50098 6c2 0.666992 4.33301 1.33398 7 2.00098s5 1.66699 7 3c8 3.33301 15.833 8.5 23.5 15.5s13.834 17.5 18.501 31.5
c2.66699 6.66699 14 27.834 34 63.501l65 121.5c4 6.66699 7.83301 13.5 11.5 20.5s7.16699 14.167 10.5 21.5c20.667 41.333 38.834 80.833 54.501 118.5s23.5 66.5 23.5 86.5c0 2 -0.666992 4.83301 -2 8.5s-2.66602 7.83398 -3.99902 12.501
c-2 4.66699 -3.66699 8.83398 -5 12.501s-2 6.5 -2 8.5s0.5 3.83301 1.5 5.5s2.5 3.5 4.5 5.5c3.33301 3.33301 7 6.33301 11 9s8 5 12 7c5.33301 2.66699 10.166 4.66699 14.499 6s7.83301 2 10.5 2c2 0 5 -1.5 9 -4.5s8.33301 -6.83301 13 -11.5
c2.66699 -3.33301 5.5 -7.33301 8.5 -12s5.83301 -9.33398 8.5 -14.001c0.666992 -1.33301 1.33398 -2.83301 2.00098 -4.5s1.33398 -3.16699 2.00098 -4.5l71 -150c24.667 -53.333 55.334 -112.333 92.001 -177c48 -84.667 81.333 -136.667 100 -156s28 -31.666 28 -36.999
c0 -6.66699 -2.16699 -11.334 -6.5 -14.001s-8.83301 -4 -13.5 -4h-1.5h-1.5c-3.33301 0 -8.66602 0.333008 -15.999 1s-14.666 1.66699 -21.999 3c-3.33301 0.666992 -6.33301 1.16699 -9 1.5s-5.33398 0.833008 -8.00098 1.5c-5.33301 0.666992 -10 1.5 -14 2.5
s-7 1.83301 -9 2.5c-6 1.33301 -11 5.5 -15 12.5s-7.33301 14.833 -10 23.5c-1.33301 5.33301 -4.66602 14 -9.99902 26s-11.333 24.667 -18 38c-1.33301 2.66699 -2.5 5.16699 -3.5 7.5s-2.16699 4.83301 -3.5 7.5l-20.5 36c-6.33301 10.667 -10.833 16.667 -13.5 18
c-7.33301 4 -20 7.16699 -38 9.5s-37.333 3.83301 -58 4.5c-17.333 1.33301 -33.833 2.16602 -49.5 2.49902s-28.167 0.5 -37.5 0.5v0zM250.991 257l181 0.00195312l-79 155c-5.33301 10 -9.33301 18.5 -12 25.5s-5 12.5 -7 16.5c-0.666992 2 -1.66699 3.5 -3 4.5
s-2.66602 1.5 -3.99902 1.5c-2.66699 0 -4.83398 -2.16699 -6.50098 -6.5l-5.5 -14.5c-0.666992 -1.33301 -1 -2.33301 -1 -3s-0.333008 -1.33398 -1 -2.00098c-0.666992 -3.33301 -1.5 -6.33301 -2.5 -9s-2.16699 -5.33398 -3.5 -8.00098l-52 -106l-16 -32
c-3.33301 -6.66699 -5 -11.667 -5 -15c0 -2.66699 1.66699 -4.5 5 -5.5s7.33301 -1.5 12 -1.5v0zM375.991 748.002c2 0 4.50098 -0.501953 7.50098 -1.50195s6.5 -2.5 10.5 -4.5c3.33301 -2 6.66602 -4.33301 9.99902 -7s6 -5.33398 8 -8.00098
c0.666992 -0.666992 1.16699 -1.5 1.5 -2.5s0.5 -2.16699 0.5 -3.5c0 -4.66699 -4 -11.5 -12 -20.5s-23.333 -19.5 -46 -31.5c-3.33301 -2 -10.5 -6 -21.5 -12l-35.5 -19c-0.666992 0 -1.33398 -0.166992 -2.00098 -0.5s-1 -0.833008 -1 -1.5l-40.5 -20.5
c-12.333 -6.33301 -19.5 -9.5 -21.5 -9.5c-3.33301 0 -6.33301 1 -9 3s-4 5.33301 -4 10c0 2.66699 0.5 5 1.5 7s2.16699 3.66699 3.5 5c0.666992 0.666992 1.5 1.33398 2.5 2.00098s1.83301 1.33398 2.5 2.00098l115 95c6.66699 6 11.834 10.333 15.501 13
s7.16699 4.33398 10.5 5.00098h2h2v0z" />
    <glyph glyph-name="Acircumflex" unicode="&#xc2;" horiz-adv-x="667" 
d="M275 211c-30 0 -49.6758 -1.16699 -59.0088 -3.5s-16.666 -9.5 -21.999 -21.5c-0.666992 -1.33301 -1.16699 -2.5 -1.5 -3.5s-0.833008 -2.16699 -1.5 -3.5c-2.66699 -8 -6.83398 -17.667 -12.501 -29l-17.5 -35c0 -0.666992 -0.166992 -1.33398 -0.5 -2.00098l-0.5 -1
l-22.5 -45c-7 -14 -11.167 -24.333 -12.5 -31c-2 -10.667 -4.5 -18 -7.5 -22s-6.83301 -6.33301 -11.5 -7s-10.167 -1.16699 -16.5 -1.5s-12.833 -0.833008 -19.5 -1.5v0h-1c-11.333 -1.33301 -21.666 -2.33301 -30.999 -3s-15 -1 -17 -1c-2.66699 0 -4.66699 1 -6 3
s-2.33301 4.33301 -3 7c-0.666992 1.33301 -1 2.5 -1 3.5v2.5c0 9.33301 0.833008 15.666 2.5 18.999s4.83398 5.33301 9.50098 6c2 0.666992 4.33301 1.33398 7 2.00098s5 1.66699 7 3c8 3.33301 15.833 8.5 23.5 15.5s13.834 17.5 18.501 31.5
c2.66699 6.66699 14 27.834 34 63.501l65 121.5c4 6.66699 7.83301 13.5 11.5 20.5s7.16699 14.167 10.5 21.5c20.667 41.333 38.834 80.833 54.501 118.5s23.5 66.5 23.5 86.5c0 2 -0.666992 4.83301 -2 8.5s-2.66602 7.83398 -3.99902 12.501
c-2 4.66699 -3.66699 8.83398 -5 12.501s-2 6.5 -2 8.5s0.5 3.83301 1.5 5.5s2.5 3.5 4.5 5.5c3.33301 3.33301 7 6.33301 11 9s8 5 12 7c5.33301 2.66699 10.166 4.66699 14.499 6s7.83301 2 10.5 2c2 0 5 -1.5 9 -4.5s8.33301 -6.83301 13 -11.5
c2.66699 -3.33301 5.5 -7.33301 8.5 -12s5.83301 -9.33398 8.5 -14.001c0.666992 -1.33301 1.33398 -2.83301 2.00098 -4.5s1.33398 -3.16699 2.00098 -4.5l71 -150c24.667 -53.333 55.334 -112.333 92.001 -177c48 -84.667 81.333 -136.667 100 -156s28 -31.666 28 -36.999
c0 -6.66699 -2.16699 -11.334 -6.5 -14.001s-8.83301 -4 -13.5 -4h-1.5h-1.5c-3.33301 0 -8.66602 0.333008 -15.999 1s-14.666 1.66699 -21.999 3c-3.33301 0.666992 -6.33301 1.16699 -9 1.5s-5.33398 0.833008 -8.00098 1.5c-5.33301 0.666992 -10 1.5 -14 2.5
s-7 1.83301 -9 2.5c-6 1.33301 -11 5.5 -15 12.5s-7.33301 14.833 -10 23.5c-1.33301 5.33301 -4.66602 14 -9.99902 26s-11.333 24.667 -18 38c-1.33301 2.66699 -2.5 5.16699 -3.5 7.5s-2.16699 4.83301 -3.5 7.5l-20.5 36c-6.33301 10.667 -10.833 16.667 -13.5 18
c-7.33301 4 -20 7.16699 -38 9.5s-37.333 3.83301 -58 4.5c-17.333 1.33301 -33.833 2.16602 -49.5 2.49902s-28.167 0.5 -37.5 0.5v0zM250.991 257l181 0.00195312l-79 155c-5.33301 10 -9.33301 18.5 -12 25.5s-5 12.5 -7 16.5c-0.666992 2 -1.66699 3.5 -3 4.5
s-2.66602 1.5 -3.99902 1.5c-2.66699 0 -4.83398 -2.16699 -6.50098 -6.5l-5.5 -14.5c-0.666992 -1.33301 -1 -2.33301 -1 -3s-0.333008 -1.33398 -1 -2.00098c-0.666992 -3.33301 -1.5 -6.33301 -2.5 -9s-2.16699 -5.33398 -3.5 -8.00098l-52 -106l-16 -32
c-3.33301 -6.66699 -5 -11.667 -5 -15c0 -2.66699 1.66699 -4.5 5 -5.5s7.33301 -1.5 12 -1.5v0zM187.991 616.002c0 2 0.331055 4.50488 0.998047 7.50488s1.33398 6.5 2.00098 10.5l4 10.5c1.33301 3.66699 3 6.16699 5 7.5c40 34 67.167 56.667 81.5 68
s26.166 17.333 35.499 18h1.5h1.5c20.667 0 39.667 -5.5 57 -16.5s32 -23.167 44 -36.5c11.333 -12 20 -23.167 26 -33.5s9 -16.833 9 -19.5s-1.16699 -4.83398 -3.5 -6.50098s-5.16602 -2.83398 -8.49902 -3.50098c-0.666992 -0.666992 -1.66699 -1 -3 -1h-3
c-4.66699 0 -12 3 -22 9s-20.667 13 -32 21h-1.5c-0.333008 0 -0.5 0.333008 -0.5 1c-11.333 7.33301 -22 13.833 -32 19.5s-17.667 8.5 -23 8.5c-4.66699 0 -13.167 -3.33301 -25.5 -10s-25.166 -14.334 -38.499 -23.001c-1.33301 -0.666992 -2.5 -1.33398 -3.5 -2.00098
s-2.16699 -1.33398 -3.5 -2.00098l-39.5 -25.5c-12.333 -7.66699 -19.5 -11.5 -21.5 -11.5s-3.66699 1 -5 3s-2 4.33301 -2 7v0z" />
    <glyph glyph-name="Atilde" unicode="&#xc3;" horiz-adv-x="667" 
d="M275 211c-30 0 -49.6758 -1.16699 -59.0088 -3.5s-16.666 -9.5 -21.999 -21.5c-0.666992 -1.33301 -1.16699 -2.5 -1.5 -3.5s-0.833008 -2.16699 -1.5 -3.5c-2.66699 -8 -6.83398 -17.667 -12.501 -29l-17.5 -35c0 -0.666992 -0.166992 -1.33398 -0.5 -2.00098l-0.5 -1
l-22.5 -45c-7 -14 -11.167 -24.333 -12.5 -31c-2 -10.667 -4.5 -18 -7.5 -22s-6.83301 -6.33301 -11.5 -7s-10.167 -1.16699 -16.5 -1.5s-12.833 -0.833008 -19.5 -1.5v0h-1c-11.333 -1.33301 -21.666 -2.33301 -30.999 -3s-15 -1 -17 -1c-2.66699 0 -4.66699 1 -6 3
s-2.33301 4.33301 -3 7c-0.666992 1.33301 -1 2.5 -1 3.5v2.5c0 9.33301 0.833008 15.666 2.5 18.999s4.83398 5.33301 9.50098 6c2 0.666992 4.33301 1.33398 7 2.00098s5 1.66699 7 3c8 3.33301 15.833 8.5 23.5 15.5s13.834 17.5 18.501 31.5
c2.66699 6.66699 14 27.834 34 63.501l65 121.5c4 6.66699 7.83301 13.5 11.5 20.5s7.16699 14.167 10.5 21.5c20.667 41.333 38.834 80.833 54.501 118.5s23.5 66.5 23.5 86.5c0 2 -0.666992 4.83301 -2 8.5s-2.66602 7.83398 -3.99902 12.501
c-2 4.66699 -3.66699 8.83398 -5 12.501s-2 6.5 -2 8.5s0.5 3.83301 1.5 5.5s2.5 3.5 4.5 5.5c3.33301 3.33301 7 6.33301 11 9s8 5 12 7c5.33301 2.66699 10.166 4.66699 14.499 6s7.83301 2 10.5 2c2 0 5 -1.5 9 -4.5s8.33301 -6.83301 13 -11.5
c2.66699 -3.33301 5.5 -7.33301 8.5 -12s5.83301 -9.33398 8.5 -14.001c0.666992 -1.33301 1.33398 -2.83301 2.00098 -4.5s1.33398 -3.16699 2.00098 -4.5l71 -150c24.667 -53.333 55.334 -112.333 92.001 -177c48 -84.667 81.333 -136.667 100 -156s28 -31.666 28 -36.999
c0 -6.66699 -2.16699 -11.334 -6.5 -14.001s-8.83301 -4 -13.5 -4h-1.5h-1.5c-3.33301 0 -8.66602 0.333008 -15.999 1s-14.666 1.66699 -21.999 3c-3.33301 0.666992 -6.33301 1.16699 -9 1.5s-5.33398 0.833008 -8.00098 1.5c-5.33301 0.666992 -10 1.5 -14 2.5
s-7 1.83301 -9 2.5c-6 1.33301 -11 5.5 -15 12.5s-7.33301 14.833 -10 23.5c-1.33301 5.33301 -4.66602 14 -9.99902 26s-11.333 24.667 -18 38c-1.33301 2.66699 -2.5 5.16699 -3.5 7.5s-2.16699 4.83301 -3.5 7.5l-20.5 36c-6.33301 10.667 -10.833 16.667 -13.5 18
c-7.33301 4 -20 7.16699 -38 9.5s-37.333 3.83301 -58 4.5c-17.333 1.33301 -33.833 2.16602 -49.5 2.49902s-28.167 0.5 -37.5 0.5v0zM250.991 257l181 0.00195312l-79 155c-5.33301 10 -9.33301 18.5 -12 25.5s-5 12.5 -7 16.5c-0.666992 2 -1.66699 3.5 -3 4.5
s-2.66602 1.5 -3.99902 1.5c-2.66699 0 -4.83398 -2.16699 -6.50098 -6.5l-5.5 -14.5c-0.666992 -1.33301 -1 -2.33301 -1 -3s-0.333008 -1.33398 -1 -2.00098c-0.666992 -3.33301 -1.5 -6.33301 -2.5 -9s-2.16699 -5.33398 -3.5 -8.00098l-52 -106l-16 -32
c-3.33301 -6.66699 -5 -11.667 -5 -15c0 -2.66699 1.66699 -4.5 5 -5.5s7.33301 -1.5 12 -1.5v0zM165.991 643.002c0 3.33301 1.66211 8.16504 4.99512 14.498s8 12.833 14 19.5c4 4.66699 8.33301 9.33398 13 14.001s9.33398 8.66699 14.001 12
c4.66699 4 9.33398 7 14.001 9s9 3 13 3c6.66699 0 13.834 -0.666992 21.501 -2s15.167 -3.33301 22.5 -6c6 -2 12.167 -4.16699 18.5 -6.5s12.5 -4.83301 18.5 -7.5l36 -15c10.667 -4.66699 18.667 -7 24 -7c3.33301 0 8 2 14 6s12.333 8.66699 19 14l2 2
c0.666992 0.666992 1.66699 1.33398 3 2.00098l19 16.5c6 5 10 7.5 12 7.5c0.666992 0 1.33398 -0.166992 2.00098 -0.5s1.33398 -0.833008 2.00098 -1.5c1.33301 -1.33301 2.66602 -3.16602 3.99902 -5.49902s2.33301 -4.83301 3 -7.5c0.666992 -1.33301 1 -2.5 1 -3.5
v-2.5c0 -3.33301 -2.16699 -8.5 -6.5 -15.5s-10.166 -14.5 -17.499 -22.5c-3.33301 -4.66699 -7.16602 -9.16699 -11.499 -13.5s-8.83301 -8.16602 -13.5 -11.499c-6 -4.66699 -11.667 -8.5 -17 -11.5s-10.333 -4.5 -15 -4.5c-8 0 -16.5 1.16699 -25.5 3.5
s-17.833 5.16602 -26.5 8.49902c-4 1.33301 -8 2.83301 -12 4.5s-8 3.5 -12 5.5l-36 15c-11.333 4.66699 -20.666 7 -27.999 7c-4 0 -8.5 -1.5 -13.5 -4.5s-10.5 -6.5 -16.5 -10.5c-0.666992 -0.666992 -1.5 -1.33398 -2.5 -2.00098s-1.83301 -1 -2.5 -1l-17.5 -13
c-5.66699 -4 -9.83398 -6 -12.501 -6c-2 0 -3.83301 1.5 -5.5 4.5s-2.83398 6.5 -3.50098 10.5v0.5v1.5v0z" />
    <glyph glyph-name="Adieresis" unicode="&#xc4;" horiz-adv-x="667" 
d="M275 211c-30 0 -49.6758 -1.16699 -59.0088 -3.5s-16.666 -9.5 -21.999 -21.5c-0.666992 -1.33301 -1.16699 -2.5 -1.5 -3.5s-0.833008 -2.16699 -1.5 -3.5c-2.66699 -8 -6.83398 -17.667 -12.501 -29l-17.5 -35c0 -0.666992 -0.166992 -1.33398 -0.5 -2.00098l-0.5 -1
l-22.5 -45c-7 -14 -11.167 -24.333 -12.5 -31c-2 -10.667 -4.5 -18 -7.5 -22s-6.83301 -6.33301 -11.5 -7s-10.167 -1.16699 -16.5 -1.5s-12.833 -0.833008 -19.5 -1.5v0h-1c-11.333 -1.33301 -21.666 -2.33301 -30.999 -3s-15 -1 -17 -1c-2.66699 0 -4.66699 1 -6 3
s-2.33301 4.33301 -3 7c-0.666992 1.33301 -1 2.5 -1 3.5v2.5c0 9.33301 0.833008 15.666 2.5 18.999s4.83398 5.33301 9.50098 6c2 0.666992 4.33301 1.33398 7 2.00098s5 1.66699 7 3c8 3.33301 15.833 8.5 23.5 15.5s13.834 17.5 18.501 31.5
c2.66699 6.66699 14 27.834 34 63.501l65 121.5c4 6.66699 7.83301 13.5 11.5 20.5s7.16699 14.167 10.5 21.5c20.667 41.333 38.834 80.833 54.501 118.5s23.5 66.5 23.5 86.5c0 2 -0.666992 4.83301 -2 8.5s-2.66602 7.83398 -3.99902 12.501
c-2 4.66699 -3.66699 8.83398 -5 12.501s-2 6.5 -2 8.5s0.5 3.83301 1.5 5.5s2.5 3.5 4.5 5.5c3.33301 3.33301 7 6.33301 11 9s8 5 12 7c5.33301 2.66699 10.166 4.66699 14.499 6s7.83301 2 10.5 2c2 0 5 -1.5 9 -4.5s8.33301 -6.83301 13 -11.5
c2.66699 -3.33301 5.5 -7.33301 8.5 -12s5.83301 -9.33398 8.5 -14.001c0.666992 -1.33301 1.33398 -2.83301 2.00098 -4.5s1.33398 -3.16699 2.00098 -4.5l71 -150c24.667 -53.333 55.334 -112.333 92.001 -177c48 -84.667 81.333 -136.667 100 -156s28 -31.666 28 -36.999
c0 -6.66699 -2.16699 -11.334 -6.5 -14.001s-8.83301 -4 -13.5 -4h-1.5h-1.5c-3.33301 0 -8.66602 0.333008 -15.999 1s-14.666 1.66699 -21.999 3c-3.33301 0.666992 -6.33301 1.16699 -9 1.5s-5.33398 0.833008 -8.00098 1.5c-5.33301 0.666992 -10 1.5 -14 2.5
s-7 1.83301 -9 2.5c-6 1.33301 -11 5.5 -15 12.5s-7.33301 14.833 -10 23.5c-1.33301 5.33301 -4.66602 14 -9.99902 26s-11.333 24.667 -18 38c-1.33301 2.66699 -2.5 5.16699 -3.5 7.5s-2.16699 4.83301 -3.5 7.5l-20.5 36c-6.33301 10.667 -10.833 16.667 -13.5 18
c-7.33301 4 -20 7.16699 -38 9.5s-37.333 3.83301 -58 4.5c-17.333 1.33301 -33.833 2.16602 -49.5 2.49902s-28.167 0.5 -37.5 0.5v0zM250.991 257l181 0.00195312l-79 155c-5.33301 10 -9.33301 18.5 -12 25.5s-5 12.5 -7 16.5c-0.666992 2 -1.66699 3.5 -3 4.5
s-2.66602 1.5 -3.99902 1.5c-2.66699 0 -4.83398 -2.16699 -6.50098 -6.5l-5.5 -14.5c-0.666992 -1.33301 -1 -2.33301 -1 -3s-0.333008 -1.33398 -1 -2.00098c-0.666992 -3.33301 -1.5 -6.33301 -2.5 -9s-2.16699 -5.33398 -3.5 -8.00098l-52 -106l-16 -32
c-3.33301 -6.66699 -5 -11.667 -5 -15c0 -2.66699 1.66699 -4.5 5 -5.5s7.33301 -1.5 12 -1.5v0zM176.991 666.002c0 3.33301 0.833008 7.49707 2.5 12.4971s3.5 10.167 5.5 15.5c4 7.33301 8.5 14.333 13.5 21s10.167 11.667 15.5 15
c1.33301 0.666992 2.83301 1.16699 4.5 1.5s3.16699 0.5 4.5 0.5c2.66699 0 5.83398 -1.16699 9.50098 -3.5s7.83398 -5.5 12.501 -9.5c2.66699 -2 5.16699 -4.5 7.5 -7.5s4.83301 -5.83301 7.5 -8.5c3.33301 -4 6 -8 8 -12s3 -7.33301 3 -10
c0 -4.66699 -2.16699 -10.167 -6.5 -16.5s-15.5 -15.5 -33.5 -27.5c-0.666992 -0.666992 -1.33398 -1.16699 -2.00098 -1.5s-1.33398 -0.5 -2.00098 -0.5c-2.66699 -1.33301 -5 -2.16602 -7 -2.49902s-4.66699 -0.5 -8 -0.5c-2 0 -4.33301 0.833008 -7 2.5
s-5.66699 3.83398 -9 6.50098c-2 1.33301 -3.83301 2.83301 -5.5 4.5l-5.5 5.5c-2 2.66699 -3.83301 5.33398 -5.5 8.00098s-2.5 5 -2.5 7v0zM366.991 688.999c0 2 1.33398 4.50391 4.00098 7.50391s6.33398 6.16699 11.001 9.5
c1.33301 1.33301 3.16602 2.66602 5.49902 3.99902s4.5 2.66602 6.5 3.99902c5.33301 3.33301 10.333 6.16602 15 8.49902s8 3.5 10 3.5c2.66699 0 6 -1.33301 10 -4s8 -6 12 -10c2 -2 4.16699 -4 6.5 -6s4.16602 -4 5.49902 -6c4 -4.66699 7.33301 -9 10 -13
s4 -7.33301 4 -10c0 -2 -0.833008 -5 -2.5 -9s-3.5 -8 -5.5 -12c-1.33301 -2.66699 -2.83301 -5.16699 -4.5 -7.5l-5.5 -7.5c-2 -2.66699 -4 -4.83398 -6 -6.50098s-4 -2.5 -6 -2.5c-12 0 -23.5 3.5 -34.5 10.5s-19.5 14.833 -25.5 23.5c-3.33301 4 -5.83301 8 -7.5 12
s-2.5 7.66699 -2.5 11v0z" />
    </font>
</defs>
</svg>
